M48
; DRILL file {KiCad 7.0.7-2.fc38} date Sun 01 Oct 2023 02:52:06 PM CEST
; FORMAT={-:-/ absolute / metric / decimal}
; #@! TF.CreationDate,2023-10-01T14:52:06+02:00
; #@! TF.GenerationSoftware,Kicad,Pcbnew,7.0.7-2.fc38
; #@! TF.FileFunction,Plated,1,2,PTH
FMAT,2
METRIC
; #@! TA.AperFunction,Plated,PTH,ViaDrill
T1C0.300
; #@! TA.AperFunction,Plated,PTH,ComponentDrill
T2C0.400
; #@! TA.AperFunction,Plated,PTH,ComponentDrill
T3C0.600
; #@! TA.AperFunction,Plated,PTH,ComponentDrill
T4C0.813
; #@! TA.AperFunction,Plated,PTH,ComponentDrill
T5C1.000
; #@! TA.AperFunction,Plated,PTH,ComponentDrill
T6C1.500
%
G90
G05
T1
X85.957Y-107.861
X86.973Y-101.892
X90.148Y-121.831
X90.148Y-122.593
X90.275Y-128.308
X90.402Y-124.117
X90.402Y-125.26
X91.291Y-108.877
X91.291Y-127.488
X91.799Y-60.617
X91.926Y-125.006
X92.561Y-125.006
X93.196Y-125.006
X93.704Y-101.003
X93.704Y-104.305
X93.958Y-55.664
X95.228Y-127.673
X95.99Y-55.664
X96.625Y-101.13
X96.625Y-104.305
X97.895Y-86.525
X99.129Y-55.69
X100.435Y-58.036
X100.435Y-90.208
X101.324Y-90.208
X101.324Y-60.576
X102.142Y-63.106
X102.467Y-59.347
X102.907Y-68.17
X102.911Y-73.255
X102.926Y-75.81
X102.934Y-70.738
X102.935Y-78.358
X102.941Y-85.984
X102.95Y-80.913
X102.977Y-83.481
X103.61Y-101.765
X105.515Y-88.938
X105.515Y-91.986
X105.515Y-95.034
X105.515Y-98.082
X105.769Y-59.347
X108.69Y-95.034
X108.817Y-88.938
X108.993Y-71.539
X108.993Y-79.413
X109.071Y-75.476
X109.071Y-91.986
X110.468Y-69.634
X110.468Y-73.444
X110.468Y-77.508
X110.595Y-67.602
X110.595Y-81.445
X110.595Y-85.382
X112.627Y-56.68
X113.818Y-115.8
X114.068Y-91.757
X115.929Y-56.68
X115.929Y-65.57
X118.723Y-63.846
X118.977Y-56.68
X121.517Y-64.408
X122.025Y-56.68
X124.057Y-64.935
X125.327Y-56.68
X125.429Y-65.462
X128.121Y-90.335
X128.248Y-71.285
X128.629Y-56.68
X147.276Y-111.865
X147.298Y-68.11
X147.298Y-87.16
X166.348Y-78.016
X185.525Y-108.115
X186.795Y-89.192
X188.065Y-70.015
X206.607Y-104.178
X211.66Y-107.42
T2
X80.343Y-159.0
X81.331Y-158.013
X82.858Y-161.515
X85.282Y-162.682
X86.221Y-160.531
X86.27Y-161.694
X90.491Y-148.853
X91.479Y-147.865
X93.009Y-153.742
X93.993Y-150.379
X94.173Y-153.792
X95.161Y-152.804
X95.809Y-144.429
X97.019Y-143.73
X97.587Y-147.508
X99.627Y-149.263
X100.837Y-148.565
X101.09Y-147.428
X108.237Y-137.253
X109.404Y-142.628
X109.447Y-136.555
X110.516Y-142.977
X111.225Y-139.634
X111.725Y-142.278
X113.194Y-72.365
X113.194Y-75.921
X113.194Y-91.437
X113.194Y-94.993
X113.194Y-110.51
X113.194Y-114.066
X114.083Y-78.461
X114.083Y-97.533
X114.083Y-116.606
X114.489Y-134.353
X114.591Y-72.365
X114.591Y-91.437
X114.591Y-110.51
X115.409Y-137.788
X115.48Y-78.461
X115.48Y-97.533
X115.48Y-116.606
X115.838Y-133.991
X116.268Y-77.603
X116.268Y-96.675
X116.268Y-115.748
X116.925Y-140.011
X118.275Y-139.65
X118.814Y-138.617
X125.868Y-77.603
X125.868Y-96.675
X125.868Y-115.748
X126.656Y-78.461
X126.656Y-97.533
X126.656Y-116.606
X127.545Y-72.365
X127.545Y-91.437
X127.545Y-110.51
X128.053Y-78.461
X128.053Y-97.533
X128.053Y-116.606
X128.087Y-136.132
X128.351Y-130.639
X128.942Y-72.365
X128.942Y-75.921
X128.942Y-91.437
X128.942Y-94.993
X128.942Y-110.51
X128.942Y-114.066
X129.07Y-136.757
X129.7Y-130.277
X130.419Y-136.395
X130.62Y-133.712
X132.187Y-69.365
X132.187Y-72.921
X132.187Y-88.437
X132.187Y-91.993
X132.187Y-107.51
X132.187Y-111.066
X133.076Y-75.461
X133.076Y-94.533
X133.076Y-113.606
X133.584Y-69.365
X133.584Y-88.437
X133.584Y-107.51
X134.473Y-75.461
X134.473Y-94.533
X134.473Y-113.606
X135.137Y-129.46
X135.137Y-133.016
X135.261Y-74.603
X135.261Y-93.675
X135.261Y-112.748
X136.026Y-135.556
X136.534Y-129.46
X137.423Y-135.556
X138.211Y-134.698
X144.861Y-74.603
X144.861Y-93.675
X144.861Y-112.748
X145.649Y-75.461
X145.649Y-94.533
X145.649Y-113.606
X146.538Y-69.365
X146.538Y-88.437
X146.538Y-107.51
X147.046Y-75.461
X147.046Y-94.533
X147.046Y-113.606
X147.811Y-134.698
X147.935Y-69.365
X147.935Y-72.921
X147.935Y-88.437
X147.935Y-91.993
X147.935Y-107.51
X147.935Y-111.066
X148.599Y-135.556
X149.488Y-129.46
X149.996Y-135.556
X150.885Y-129.46
X150.885Y-133.016
X151.237Y-60.365
X151.237Y-63.921
X151.237Y-79.437
X151.237Y-82.993
X151.237Y-98.51
X151.237Y-102.066
X152.126Y-66.461
X152.126Y-85.533
X152.126Y-104.606
X152.634Y-60.365
X152.634Y-79.437
X152.634Y-98.51
X153.523Y-66.461
X153.523Y-85.533
X153.523Y-104.606
X154.311Y-65.603
X154.311Y-84.675
X154.311Y-103.748
X163.911Y-65.603
X163.911Y-84.675
X163.911Y-103.748
X164.699Y-66.461
X164.699Y-85.533
X164.699Y-104.606
X165.588Y-60.365
X165.588Y-79.437
X165.588Y-98.51
X166.096Y-66.461
X166.096Y-85.533
X166.096Y-104.606
X166.985Y-60.365
X166.985Y-63.921
X166.985Y-79.437
X166.985Y-82.993
X166.985Y-98.51
X166.985Y-102.066
X170.066Y-111.837
X170.314Y-108.29
X170.776Y-114.433
X171.397Y-92.811
X171.645Y-89.264
X171.708Y-108.387
X172.106Y-95.407
X172.169Y-114.531
X172.727Y-73.785
X172.975Y-70.238
X173.015Y-113.73
X173.038Y-89.361
X173.437Y-76.381
X173.5Y-95.505
X174.346Y-94.704
X174.369Y-70.335
X174.83Y-76.478
X175.676Y-75.677
X182.592Y-114.399
X183.318Y-115.31
X183.922Y-95.373
X184.63Y-109.291
X184.649Y-96.284
X184.712Y-115.408
X185.253Y-76.347
X185.776Y-112.936
X185.961Y-90.265
X185.979Y-77.258
X186.024Y-109.389
X186.042Y-96.382
X187.106Y-93.91
X187.291Y-71.239
X187.354Y-90.362
X187.373Y-77.355
X187.576Y-124.975
X188.01Y-127.631
X188.193Y-121.474
X188.437Y-74.884
X188.685Y-71.336
X189.386Y-127.874
X189.569Y-121.716
X190.311Y-127.166
X190.888Y-106.193
X191.322Y-108.848
X191.505Y-102.691
X192.698Y-109.091
X192.881Y-102.933
X193.623Y-108.383
X194.2Y-87.41
X194.634Y-90.066
X194.817Y-83.908
X196.01Y-90.308
X196.193Y-84.15
X196.935Y-89.6
X199.765Y-128.833
X200.392Y-129.815
X201.768Y-130.057
X202.326Y-123.966
X203.077Y-110.05
X203.085Y-127.71
X203.702Y-124.208
X203.704Y-111.032
X205.08Y-111.274
X205.638Y-105.183
X206.389Y-91.267
X206.397Y-108.927
X207.014Y-105.425
X207.016Y-92.249
X207.178Y-123.355
X207.613Y-126.011
X207.796Y-119.853
X208.392Y-92.491
X208.95Y-86.4
X208.988Y-126.253
X209.171Y-120.095
X209.709Y-90.144
X209.913Y-125.545
X210.326Y-86.642
X210.49Y-104.572
X210.925Y-107.228
X211.108Y-101.07
X212.3Y-107.47
X212.483Y-101.313
X213.225Y-106.762
X219.368Y-127.212
X219.995Y-128.194
X221.37Y-128.436
X221.929Y-122.345
X222.679Y-108.429
X222.687Y-126.089
X223.304Y-122.587
X223.307Y-109.411
X224.682Y-109.654
X225.241Y-103.562
X225.999Y-107.307
X226.616Y-103.805
T4
X88.78Y-56.84
X88.78Y-59.38
X88.78Y-61.92
X88.78Y-64.46
X88.78Y-67.0
X88.78Y-69.54
X88.78Y-72.08
X88.78Y-74.62
X88.78Y-77.16
X88.78Y-79.7
X88.78Y-82.24
X88.78Y-84.78
X90.079Y-58.036
X90.079Y-60.576
X90.079Y-63.116
X90.079Y-65.656
X90.079Y-68.196
X90.079Y-70.736
X90.079Y-73.276
X90.079Y-75.816
X90.079Y-78.356
X90.079Y-80.896
X90.079Y-83.436
X90.079Y-85.976
X104.02Y-56.84
X104.02Y-59.38
X104.02Y-61.92
X104.02Y-64.46
X104.02Y-67.0
X104.02Y-69.54
X104.02Y-72.08
X104.02Y-74.62
X104.02Y-77.16
X104.02Y-79.7
X104.02Y-82.24
X104.02Y-84.78
X105.319Y-58.036
X105.319Y-60.576
X105.319Y-63.116
X105.319Y-65.656
X105.319Y-68.196
X105.319Y-70.736
X105.319Y-73.276
X105.319Y-75.816
X105.319Y-78.356
X105.319Y-80.896
X105.319Y-83.436
X105.319Y-85.976
T5
X88.09Y-111.45
X88.09Y-113.95
X88.09Y-116.45
X102.59Y-111.45
X102.59Y-116.45
T3
X83.119Y-119.418G85X82.319Y-119.418
G05
X83.119Y-130.658G85X82.319Y-130.658
G05
X87.119Y-119.418G85X86.319Y-119.418
G05
X87.119Y-130.658G85X86.319Y-130.658
G05
T6
X94.94Y-108.35G85X96.24Y-108.35
G05
X94.94Y-119.55G85X96.24Y-119.55
G05
T0
M30
