%TF.GenerationSoftware,KiCad,Pcbnew,7.0.7-2.fc38*%
%TF.CreationDate,2023-10-01T14:52:07+02:00*%
%TF.ProjectId,klor1_3,6b6c6f72-315f-4332-9e6b-696361645f70,v1.3.0*%
%TF.SameCoordinates,Original*%
%TF.FileFunction,Drillmap*%
%TF.FilePolarity,Positive*%
%FSLAX45Y45*%
G04 Gerber Fmt 4.5, Leading zero omitted, Abs format (unit mm)*
G04 Created by KiCad (PCBNEW 7.0.7-2.fc38) date 2023-10-01 14:52:07*
%MOMM*%
%LPD*%
G01*
G04 APERTURE LIST*
%ADD10C,0.100000*%
%ADD11C,0.200000*%
%ADD12C,0.060000*%
%ADD13C,0.170000*%
%ADD14C,0.170180*%
%ADD15C,0.220000*%
%ADD16C,0.300000*%
%ADD17C,0.320000*%
%ADD18C,0.398780*%
G04 APERTURE END LIST*
D10*
X21024150Y-7525187D02*
X21024150Y-5388510D01*
X15276983Y-13917589D02*
X15287685Y-13916773D01*
X15297893Y-13914405D01*
X15307485Y-13910608D01*
X15316339Y-13905503D01*
X15324333Y-13899213D01*
X15331345Y-13891860D01*
X15337253Y-13883566D01*
X15341936Y-13874452D01*
X15345270Y-13864641D01*
X15347134Y-13854255D01*
X15347500Y-13847072D01*
X23083258Y-9390372D02*
X23086225Y-9379665D01*
X23087287Y-9369416D01*
X23085978Y-9356616D01*
X23081860Y-9344993D01*
X23075263Y-9334755D01*
X23066517Y-9326107D01*
X23055953Y-9319257D01*
X23043902Y-9314410D01*
X23037422Y-9312803D01*
X14853878Y-5314467D02*
X8137096Y-5314467D01*
X10517059Y-15028238D02*
X10530982Y-15019024D01*
X10544983Y-15009893D01*
X10559057Y-15000844D01*
X10573197Y-14991877D01*
X10587400Y-14982994D01*
X10601659Y-14974193D01*
X10615970Y-14965475D01*
X10630327Y-14956839D01*
X10644726Y-14948286D01*
X10659161Y-14939816D01*
X10673627Y-14931428D01*
X10688118Y-14923123D01*
X10702631Y-14914901D01*
X10717159Y-14906761D01*
X10731697Y-14898704D01*
X10746240Y-14890729D01*
X21408470Y-7592179D02*
X21024150Y-7525187D01*
X8137096Y-5314467D02*
X8125493Y-5315283D01*
X8114552Y-5317651D01*
X8104378Y-5321448D01*
X8095075Y-5326553D01*
X8086749Y-5332843D01*
X8079503Y-5340196D01*
X8073443Y-5348490D01*
X8068673Y-5357604D01*
X8065297Y-5367415D01*
X8063420Y-5377801D01*
X8063053Y-5384985D01*
X9279478Y-16029585D02*
X9295035Y-16014070D01*
X9310633Y-15998597D01*
X9326272Y-15983166D01*
X9341952Y-15967779D01*
X9357674Y-15952436D01*
X9373437Y-15937137D01*
X9389242Y-15921883D01*
X9405087Y-15906675D01*
X9420974Y-15891514D01*
X9436903Y-15876400D01*
X9452873Y-15861334D01*
X9468884Y-15846316D01*
X9484936Y-15831347D01*
X9501030Y-15816427D01*
X9517165Y-15801559D01*
X9533341Y-15786741D01*
X9549559Y-15771975D01*
X9565817Y-15757261D01*
X9582118Y-15742600D01*
X9598459Y-15727992D01*
X9614842Y-15713439D01*
X9631266Y-15698941D01*
X9647732Y-15684498D01*
X9664239Y-15670112D01*
X9680787Y-15655782D01*
X9697377Y-15641510D01*
X9714007Y-15627295D01*
X9730680Y-15613140D01*
X9747393Y-15599044D01*
X9764148Y-15585008D01*
X9780944Y-15571032D01*
X9797781Y-15557119D01*
X8496735Y-16717130D02*
X8505017Y-16724319D01*
X8513903Y-16730021D01*
X8523254Y-16734236D01*
X8532931Y-16736963D01*
X8546097Y-16738285D01*
X8559264Y-16736963D01*
X8568941Y-16734236D01*
X8578292Y-16730021D01*
X8587178Y-16724319D01*
X8595460Y-16717130D01*
X20629253Y-12951501D02*
X20537500Y-12935000D01*
X16944719Y-12542500D02*
X18453791Y-12648276D01*
X21461358Y-7669748D02*
X21462412Y-7656581D01*
X21460532Y-7643745D01*
X21456090Y-7631569D01*
X21449458Y-7620386D01*
X21441009Y-7610524D01*
X21431113Y-7602316D01*
X21420143Y-7596090D01*
X21408470Y-7592179D01*
X20950107Y-5314467D02*
X20854909Y-5314467D01*
X8063053Y-5384985D02*
X8062300Y-12056100D01*
X7798613Y-14545194D02*
X7111068Y-15232739D01*
X8710000Y-12056100D02*
X8710000Y-12945100D01*
X14853878Y-4986561D02*
X14853878Y-5314467D01*
X18393851Y-12997337D02*
X18393810Y-13010353D01*
X18396165Y-13022790D01*
X18400669Y-13034400D01*
X18407073Y-13044936D01*
X18415131Y-13054150D01*
X18424593Y-13061794D01*
X18435212Y-13067620D01*
X18446740Y-13071380D01*
X16955297Y-5314467D02*
X16955297Y-4986561D01*
X8595460Y-16717130D02*
X9279478Y-16029585D01*
X21024150Y-5388510D02*
X21023331Y-5376991D01*
X21020943Y-5366268D01*
X21017091Y-5356393D01*
X21011879Y-5347419D01*
X21005412Y-5339398D01*
X20997794Y-5332381D01*
X20989131Y-5326423D01*
X20979526Y-5321574D01*
X20969085Y-5317887D01*
X20957911Y-5315415D01*
X20950107Y-5314467D01*
X20460011Y-13360502D02*
X20537500Y-12935000D01*
X15347500Y-12542500D02*
X16944719Y-12542500D01*
X14296791Y-13917589D02*
X15276983Y-13917589D01*
X22409817Y-13198312D02*
X23083258Y-9390372D01*
X10517059Y-15028238D02*
X9797781Y-15557119D01*
X8062300Y-12056100D02*
X8710000Y-12056100D01*
X21401418Y-8011757D02*
X21461358Y-7669748D01*
X18446740Y-13071380D02*
X20382442Y-13413390D01*
X20382442Y-13413390D02*
X20395609Y-13414588D01*
X20408445Y-13413059D01*
X20420621Y-13409051D01*
X20431804Y-13402812D01*
X20441666Y-13394590D01*
X20449874Y-13384632D01*
X20456100Y-13373186D01*
X20460011Y-13360502D01*
X14920870Y-4919570D02*
X14907868Y-4921002D01*
X14895527Y-4925079D01*
X14884179Y-4931470D01*
X14874152Y-4939843D01*
X14865778Y-4949870D01*
X14859387Y-4961219D01*
X14855311Y-4973560D01*
X14853878Y-4986561D01*
X23037422Y-9312803D02*
X21327375Y-9013104D01*
X7111068Y-15232739D02*
X7103879Y-15241020D01*
X7098177Y-15249906D01*
X7093962Y-15259257D01*
X7091235Y-15268934D01*
X7089913Y-15282101D01*
X7091235Y-15295268D01*
X7093962Y-15304944D01*
X7098177Y-15314295D01*
X7103879Y-15323181D01*
X7111068Y-15331463D01*
X8710000Y-12945100D02*
X8062300Y-12945100D01*
X10746240Y-14890729D02*
X10798258Y-14860867D01*
X10850511Y-14831442D01*
X10902984Y-14802459D01*
X10955664Y-14773921D01*
X11008538Y-14745833D01*
X11061593Y-14718197D01*
X11114814Y-14691019D01*
X11168187Y-14664302D01*
X11221701Y-14638050D01*
X11275340Y-14612266D01*
X11329091Y-14586955D01*
X11382942Y-14562121D01*
X11436877Y-14537767D01*
X11490885Y-14513897D01*
X11544950Y-14490515D01*
X11599060Y-14467625D01*
X11653201Y-14445231D01*
X11707359Y-14423336D01*
X11761521Y-14401945D01*
X11815673Y-14381062D01*
X11869803Y-14360690D01*
X11923895Y-14340833D01*
X11977937Y-14321495D01*
X12031915Y-14302680D01*
X12085816Y-14284392D01*
X12139626Y-14266635D01*
X12193331Y-14249412D01*
X12246918Y-14232727D01*
X12300373Y-14216585D01*
X12353683Y-14200989D01*
X12406834Y-14185944D01*
X12459813Y-14171452D01*
X12459813Y-14171452D02*
X12517699Y-14156153D01*
X12575657Y-14141330D01*
X12633677Y-14126982D01*
X12691749Y-14113109D01*
X12749862Y-14099712D01*
X12808006Y-14086789D01*
X12866171Y-14074342D01*
X12924346Y-14062370D01*
X12982521Y-14050873D01*
X13040686Y-14039851D01*
X13098830Y-14029305D01*
X13156943Y-14019233D01*
X13215015Y-14009637D01*
X13273035Y-14000516D01*
X13330993Y-13991870D01*
X13388879Y-13983699D01*
X13446683Y-13976004D01*
X13504393Y-13968783D01*
X13562000Y-13962038D01*
X13619493Y-13955768D01*
X13676863Y-13949973D01*
X13734098Y-13944653D01*
X13791188Y-13939808D01*
X13848124Y-13935439D01*
X13904894Y-13931545D01*
X13961489Y-13928125D01*
X14017898Y-13925181D01*
X14074110Y-13922713D01*
X14130116Y-13920719D01*
X14185905Y-13919200D01*
X14241467Y-13918157D01*
X14296791Y-13917589D01*
X7111068Y-15331463D02*
X8496735Y-16717130D01*
X21227500Y-8995000D02*
X21401418Y-8011757D01*
X21327375Y-9013104D02*
X21227500Y-8995000D01*
X16955297Y-4986561D02*
X16953864Y-4973560D01*
X16949788Y-4961219D01*
X16943397Y-4949870D01*
X16935023Y-4939843D01*
X16924996Y-4931470D01*
X16913647Y-4925079D01*
X16901307Y-4921002D01*
X16888305Y-4919570D01*
X22332248Y-13254726D02*
X22342956Y-13255887D01*
X22353204Y-13255462D01*
X22366005Y-13252578D01*
X22377627Y-13247236D01*
X22387866Y-13239642D01*
X22396513Y-13230002D01*
X22403364Y-13218524D01*
X22407197Y-13208834D01*
X22409817Y-13198312D01*
X8062300Y-14285000D02*
X8054095Y-14292568D01*
X8045866Y-14300199D01*
X8037617Y-14307891D01*
X8029349Y-14315641D01*
X8021064Y-14323446D01*
X8012764Y-14331305D01*
X8004452Y-14339212D01*
X7996130Y-14347168D01*
X7987798Y-14355167D01*
X7979461Y-14363209D01*
X7971119Y-14371289D01*
X7962775Y-14379406D01*
X7954430Y-14387556D01*
X7946088Y-14395738D01*
X7937749Y-14403947D01*
X7929417Y-14412182D01*
X7921092Y-14420440D01*
X7912778Y-14428718D01*
X7904476Y-14437013D01*
X7896189Y-14445323D01*
X7887918Y-14453645D01*
X7879665Y-14461976D01*
X7871433Y-14470313D01*
X7863224Y-14478654D01*
X7855039Y-14486997D01*
X7846881Y-14495337D01*
X7838752Y-14503673D01*
X7830654Y-14512003D01*
X7822589Y-14520322D01*
X7814559Y-14528629D01*
X7806566Y-14536920D01*
X7798613Y-14545194D01*
X20854909Y-5314467D02*
X16955297Y-5314467D01*
X20629253Y-12951501D02*
X22332248Y-13254726D01*
X16888305Y-4919570D02*
X14920870Y-4919570D01*
X15347500Y-13847072D02*
X15347500Y-12542500D01*
X18453791Y-12648276D02*
X18393851Y-12997337D01*
X8062300Y-12945100D02*
X8062300Y-14285000D01*
D11*
D12*
X9547500Y-5384000D02*
X9607500Y-5444000D01*
X9607500Y-5384000D02*
X9547500Y-5444000D01*
X9717500Y-5384000D02*
X9777500Y-5444000D01*
X9777500Y-5384000D02*
X9717500Y-5444000D01*
D13*
X8981426Y-14930173D02*
G75*
G03*
X8981426Y-14930173I-85000J0D01*
G01*
X10749656Y-13729174D02*
G75*
G03*
X10749656Y-13729174I-85000J0D01*
G01*
X12699797Y-7160266D02*
G75*
G03*
X12699797Y-7160266I-85000J0D01*
G01*
X12699797Y-9067526D02*
G75*
G03*
X12699797Y-9067526I-85000J0D01*
G01*
X12699797Y-10974786D02*
G75*
G03*
X12699797Y-10974786I-85000J0D01*
G01*
X12765406Y-13026414D02*
G75*
G03*
X12765406Y-13026414I-85000J0D01*
G01*
X14599140Y-6860266D02*
G75*
G03*
X14599140Y-6860266I-85000J0D01*
G01*
X14599140Y-8767526D02*
G75*
G03*
X14599140Y-8767526I-85000J0D01*
G01*
X14599140Y-10674786D02*
G75*
G03*
X14599140Y-10674786I-85000J0D01*
G01*
X14894140Y-12869786D02*
G75*
G03*
X14894140Y-12869786I-85000J0D01*
G01*
X16504140Y-5960266D02*
G75*
G03*
X16504140Y-5960266I-85000J0D01*
G01*
X16504140Y-7867526D02*
G75*
G03*
X16504140Y-7867526I-85000J0D01*
G01*
X16504140Y-9774786D02*
G75*
G03*
X16504140Y-9774786I-85000J0D01*
G01*
X18413978Y-10843352D02*
G75*
G03*
X18413978Y-10843352I-85000J0D01*
G01*
X18547022Y-8940738D02*
G75*
G03*
X18547022Y-8940738I-85000J0D01*
G01*
X18680065Y-7038124D02*
G75*
G03*
X18680065Y-7038124I-85000J0D01*
G01*
X20193297Y-12297253D02*
G75*
G03*
X20193297Y-12297253I-85000J0D01*
G01*
X20524489Y-10418969D02*
G75*
G03*
X20524489Y-10418969I-85000J0D01*
G01*
X20855681Y-8540685D02*
G75*
G03*
X20855681Y-8540685I-85000J0D01*
G01*
X22153520Y-12135180D02*
G75*
G03*
X22153520Y-12135180I-85000J0D01*
G01*
X22484712Y-10256896D02*
G75*
G03*
X22484712Y-10256896I-85000J0D01*
G01*
D14*
X8178005Y-15563503D02*
X8178005Y-15733683D01*
X8092915Y-15648593D02*
X8263095Y-15648593D01*
X9784775Y-14152084D02*
X9784775Y-14322264D01*
X9699685Y-14237174D02*
X9869865Y-14237174D01*
X11598797Y-7075176D02*
X11598797Y-7245356D01*
X11513707Y-7160266D02*
X11683887Y-7160266D01*
X11598797Y-8982436D02*
X11598797Y-9152616D01*
X11513707Y-9067526D02*
X11683887Y-9067526D01*
X11598797Y-10889696D02*
X11598797Y-11059876D01*
X11513707Y-10974786D02*
X11683887Y-10974786D01*
X11699025Y-13204284D02*
X11699025Y-13374464D01*
X11613935Y-13289374D02*
X11784115Y-13289374D01*
X13498140Y-6775176D02*
X13498140Y-6945356D01*
X13413050Y-6860266D02*
X13583230Y-6860266D01*
X13498140Y-8682436D02*
X13498140Y-8852616D01*
X13413050Y-8767526D02*
X13583230Y-8767526D01*
X13498140Y-10589696D02*
X13498140Y-10759876D01*
X13413050Y-10674786D02*
X13583230Y-10674786D01*
X13793140Y-12784696D02*
X13793140Y-12954876D01*
X13708050Y-12869786D02*
X13878230Y-12869786D01*
X15403140Y-5875176D02*
X15403140Y-6045356D01*
X15318050Y-5960266D02*
X15488230Y-5960266D01*
X15403140Y-7782436D02*
X15403140Y-7952616D01*
X15318050Y-7867526D02*
X15488230Y-7867526D01*
X15403140Y-9689696D02*
X15403140Y-9859876D01*
X15318050Y-9774786D02*
X15488230Y-9774786D01*
X17315453Y-10687389D02*
X17315453Y-10857569D01*
X17230363Y-10772479D02*
X17400543Y-10772479D01*
X17448497Y-8784775D02*
X17448497Y-8954955D01*
X17363407Y-8869865D02*
X17533587Y-8869865D01*
X17581540Y-6882162D02*
X17581540Y-7052342D01*
X17496450Y-6967252D02*
X17666630Y-6967252D01*
X19107732Y-12035736D02*
X19107732Y-12205916D01*
X19022642Y-12120826D02*
X19192822Y-12120826D01*
X19438924Y-10157452D02*
X19438924Y-10327632D01*
X19353834Y-10242542D02*
X19524014Y-10242542D01*
X19770116Y-8279168D02*
X19770116Y-8449348D01*
X19685026Y-8364258D02*
X19855206Y-8364258D01*
X21067956Y-11873663D02*
X21067956Y-12043843D01*
X20982866Y-11958753D02*
X21153046Y-11958753D01*
X21399148Y-9995379D02*
X21399148Y-10165559D01*
X21314058Y-10080469D02*
X21484238Y-10080469D01*
D15*
X13132682Y-9717783D02*
X13132682Y-9562218D01*
X12977117Y-9562218D01*
X12977117Y-9717783D01*
X13132682Y-9717783D01*
X15037682Y-7812782D02*
X15037682Y-7657217D01*
X14882117Y-7657217D01*
X14882117Y-7812782D01*
X15037682Y-7812782D01*
X16942683Y-9717783D02*
X16942683Y-9562218D01*
X16787118Y-9562218D01*
X16787118Y-9717783D01*
X16942683Y-9717783D01*
X19402783Y-7582782D02*
X19402783Y-7427217D01*
X19247218Y-7427217D01*
X19247218Y-7582782D01*
X19402783Y-7582782D01*
D16*
X8447413Y-15888396D02*
X8597413Y-15738396D01*
X8447413Y-15588396D01*
X8297413Y-15738396D01*
X8447413Y-15888396D01*
X8716821Y-15978198D02*
X8866821Y-15828198D01*
X8716821Y-15678198D01*
X8566821Y-15828198D01*
X8716821Y-15978198D01*
X8986228Y-15349580D02*
X9136228Y-15199580D01*
X8986228Y-15049580D01*
X8836228Y-15199580D01*
X8986228Y-15349580D01*
X9076031Y-15618988D02*
X9226031Y-15468988D01*
X9076031Y-15318988D01*
X8926031Y-15468988D01*
X9076031Y-15618988D01*
X10021760Y-14543644D02*
X10171760Y-14393644D01*
X10021760Y-14243644D01*
X9871760Y-14393644D01*
X10021760Y-14543644D01*
X10258745Y-14700114D02*
X10408745Y-14550114D01*
X10258745Y-14400114D01*
X10108745Y-14550114D01*
X10258745Y-14700114D01*
X10681671Y-14162644D02*
X10831671Y-14012644D01*
X10681671Y-13862644D01*
X10531671Y-14012644D01*
X10681671Y-14162644D01*
X10698686Y-14446114D02*
X10848686Y-14296114D01*
X10698686Y-14146114D01*
X10548686Y-14296114D01*
X10698686Y-14446114D01*
X11725797Y-7564266D02*
X11875797Y-7414266D01*
X11725797Y-7264266D01*
X11575797Y-7414266D01*
X11725797Y-7564266D01*
X11725797Y-9471526D02*
X11875797Y-9321526D01*
X11725797Y-9171526D01*
X11575797Y-9321526D01*
X11725797Y-9471526D01*
X11725797Y-11378786D02*
X11875797Y-11228786D01*
X11725797Y-11078786D01*
X11575797Y-11228786D01*
X11725797Y-11378786D01*
X11852797Y-7818266D02*
X12002797Y-7668266D01*
X11852797Y-7518266D01*
X11702797Y-7668266D01*
X11852797Y-7818266D01*
X11852797Y-9725526D02*
X12002797Y-9575526D01*
X11852797Y-9425526D01*
X11702797Y-9575526D01*
X11852797Y-9725526D01*
X11852797Y-11632786D02*
X12002797Y-11482786D01*
X11852797Y-11332786D01*
X11702797Y-11482786D01*
X11852797Y-11632786D01*
X11887438Y-13651849D02*
X12037438Y-13501849D01*
X11887438Y-13351849D01*
X11737438Y-13501849D01*
X11887438Y-13651849D01*
X12075850Y-13864324D02*
X12225850Y-13714324D01*
X12075850Y-13564324D01*
X11925850Y-13714324D01*
X12075850Y-13864324D01*
X12360797Y-7818266D02*
X12510797Y-7668266D01*
X12360797Y-7518266D01*
X12210797Y-7668266D01*
X12360797Y-7818266D01*
X12360797Y-9725526D02*
X12510797Y-9575526D01*
X12360797Y-9425526D01*
X12210797Y-9575526D01*
X12360797Y-9725526D01*
X12360797Y-11632786D02*
X12510797Y-11482786D01*
X12360797Y-11332786D01*
X12210797Y-11482786D01*
X12360797Y-11632786D01*
X12487797Y-7564266D02*
X12637797Y-7414266D01*
X12487797Y-7264266D01*
X12337797Y-7414266D01*
X12487797Y-7564266D01*
X12487797Y-9471526D02*
X12637797Y-9321526D01*
X12487797Y-9171526D01*
X12337797Y-9321526D01*
X12487797Y-9471526D01*
X12487797Y-11378786D02*
X12637797Y-11228786D01*
X12487797Y-11078786D01*
X12337797Y-11228786D01*
X12487797Y-11378786D01*
X12566541Y-13732844D02*
X12716541Y-13582844D01*
X12566541Y-13432844D01*
X12416541Y-13582844D01*
X12566541Y-13732844D01*
X12623473Y-13454629D02*
X12773473Y-13304629D01*
X12623473Y-13154629D01*
X12473473Y-13304629D01*
X12623473Y-13454629D01*
X13625140Y-7264266D02*
X13775140Y-7114266D01*
X13625140Y-6964266D01*
X13475140Y-7114266D01*
X13625140Y-7264266D01*
X13625140Y-9171526D02*
X13775140Y-9021526D01*
X13625140Y-8871526D01*
X13475140Y-9021526D01*
X13625140Y-9171526D01*
X13625140Y-11078786D02*
X13775140Y-10928786D01*
X13625140Y-10778786D01*
X13475140Y-10928786D01*
X13625140Y-11078786D01*
X13752140Y-7518266D02*
X13902140Y-7368266D01*
X13752140Y-7218266D01*
X13602140Y-7368266D01*
X13752140Y-7518266D01*
X13752140Y-9425526D02*
X13902140Y-9275526D01*
X13752140Y-9125526D01*
X13602140Y-9275526D01*
X13752140Y-9425526D01*
X13752140Y-11332786D02*
X13902140Y-11182786D01*
X13752140Y-11032786D01*
X13602140Y-11182786D01*
X13752140Y-11332786D01*
X13920140Y-13273786D02*
X14070140Y-13123786D01*
X13920140Y-12973786D01*
X13770140Y-13123786D01*
X13920140Y-13273786D01*
X14047140Y-13527786D02*
X14197140Y-13377786D01*
X14047140Y-13227786D01*
X13897140Y-13377786D01*
X14047140Y-13527786D01*
X14260140Y-7518266D02*
X14410140Y-7368266D01*
X14260140Y-7218266D01*
X14110140Y-7368266D01*
X14260140Y-7518266D01*
X14260140Y-9425526D02*
X14410140Y-9275526D01*
X14260140Y-9125526D01*
X14110140Y-9275526D01*
X14260140Y-9425526D01*
X14260140Y-11332786D02*
X14410140Y-11182786D01*
X14260140Y-11032786D01*
X14110140Y-11182786D01*
X14260140Y-11332786D01*
X14387140Y-7264266D02*
X14537140Y-7114266D01*
X14387140Y-6964266D01*
X14237140Y-7114266D01*
X14387140Y-7264266D01*
X14387140Y-9171526D02*
X14537140Y-9021526D01*
X14387140Y-8871526D01*
X14237140Y-9021526D01*
X14387140Y-9171526D01*
X14387140Y-11078786D02*
X14537140Y-10928786D01*
X14387140Y-10778786D01*
X14237140Y-10928786D01*
X14387140Y-11078786D01*
X14555140Y-13527786D02*
X14705140Y-13377786D01*
X14555140Y-13227786D01*
X14405140Y-13377786D01*
X14555140Y-13527786D01*
X14682140Y-13273786D02*
X14832140Y-13123786D01*
X14682140Y-12973786D01*
X14532140Y-13123786D01*
X14682140Y-13273786D01*
X15530140Y-6364266D02*
X15680140Y-6214266D01*
X15530140Y-6064266D01*
X15380140Y-6214266D01*
X15530140Y-6364266D01*
X15530140Y-8271526D02*
X15680140Y-8121526D01*
X15530140Y-7971526D01*
X15380140Y-8121526D01*
X15530140Y-8271526D01*
X15530140Y-10178786D02*
X15680140Y-10028786D01*
X15530140Y-9878786D01*
X15380140Y-10028786D01*
X15530140Y-10178786D01*
X15657140Y-6618266D02*
X15807140Y-6468266D01*
X15657140Y-6318266D01*
X15507140Y-6468266D01*
X15657140Y-6618266D01*
X15657140Y-8525526D02*
X15807140Y-8375526D01*
X15657140Y-8225526D01*
X15507140Y-8375526D01*
X15657140Y-8525526D01*
X15657140Y-10432786D02*
X15807140Y-10282786D01*
X15657140Y-10132786D01*
X15507140Y-10282786D01*
X15657140Y-10432786D01*
X16165140Y-6618266D02*
X16315140Y-6468266D01*
X16165140Y-6318266D01*
X16015140Y-6468266D01*
X16165140Y-6618266D01*
X16165140Y-8525526D02*
X16315140Y-8375526D01*
X16165140Y-8225526D01*
X16015140Y-8375526D01*
X16165140Y-8525526D01*
X16165140Y-10432786D02*
X16315140Y-10282786D01*
X16165140Y-10132786D01*
X16015140Y-10282786D01*
X16165140Y-10432786D01*
X16292140Y-6364266D02*
X16442140Y-6214266D01*
X16292140Y-6064266D01*
X16142140Y-6214266D01*
X16292140Y-6364266D01*
X16292140Y-8271526D02*
X16442140Y-8121526D01*
X16292140Y-7971526D01*
X16142140Y-8121526D01*
X16292140Y-8271526D01*
X16292140Y-10178786D02*
X16442140Y-10028786D01*
X16292140Y-9878786D01*
X16142140Y-10028786D01*
X16292140Y-10178786D01*
X17424425Y-11184720D02*
X17574425Y-11034720D01*
X17424425Y-10884720D01*
X17274425Y-11034720D01*
X17424425Y-11184720D01*
X17533398Y-11446960D02*
X17683398Y-11296960D01*
X17533398Y-11146960D01*
X17383398Y-11296960D01*
X17533398Y-11446960D01*
X17557469Y-9282106D02*
X17707469Y-9132106D01*
X17557469Y-8982106D01*
X17407469Y-9132106D01*
X17557469Y-9282106D01*
X17666442Y-9544346D02*
X17816442Y-9394346D01*
X17666442Y-9244346D01*
X17516442Y-9394346D01*
X17666442Y-9544346D01*
X17690513Y-7379492D02*
X17840513Y-7229492D01*
X17690513Y-7079492D01*
X17540513Y-7229492D01*
X17690513Y-7379492D01*
X17799485Y-7641733D02*
X17949485Y-7491733D01*
X17799485Y-7341733D01*
X17649485Y-7491733D01*
X17799485Y-7641733D01*
X18040160Y-11482396D02*
X18190160Y-11332396D01*
X18040160Y-11182396D01*
X17890160Y-11332396D01*
X18040160Y-11482396D01*
X18173204Y-9579782D02*
X18323204Y-9429782D01*
X18173204Y-9279782D01*
X18023204Y-9429782D01*
X18173204Y-9579782D01*
X18184569Y-11237874D02*
X18334569Y-11087874D01*
X18184569Y-10937874D01*
X18034569Y-11087874D01*
X18184569Y-11237874D01*
X18306248Y-7677169D02*
X18456248Y-7527169D01*
X18306248Y-7377169D01*
X18156248Y-7527169D01*
X18306248Y-7677169D01*
X18317613Y-9335260D02*
X18467613Y-9185260D01*
X18317613Y-9035260D01*
X18167613Y-9185260D01*
X18317613Y-9335260D01*
X18450657Y-7432647D02*
X18600657Y-7282647D01*
X18450657Y-7132647D01*
X18300657Y-7282647D01*
X18450657Y-7432647D01*
X19188696Y-12543021D02*
X19338696Y-12393021D01*
X19188696Y-12243021D01*
X19038696Y-12393021D01*
X19188696Y-12543021D01*
X19269660Y-12815215D02*
X19419660Y-12665215D01*
X19269660Y-12515215D01*
X19119660Y-12665215D01*
X19269660Y-12815215D01*
X19519888Y-10664737D02*
X19669888Y-10514737D01*
X19519888Y-10364737D01*
X19369888Y-10514737D01*
X19519888Y-10664737D01*
X19600852Y-10936931D02*
X19750852Y-10786931D01*
X19600852Y-10636931D01*
X19450852Y-10786931D01*
X19600852Y-10936931D01*
X19769942Y-12903429D02*
X19919942Y-12753429D01*
X19769942Y-12603429D01*
X19619942Y-12753429D01*
X19769942Y-12903429D01*
X19851080Y-8786453D02*
X20001080Y-8636453D01*
X19851080Y-8486453D01*
X19701080Y-8636453D01*
X19851080Y-8786453D01*
X19932044Y-9058647D02*
X20082044Y-8908647D01*
X19932044Y-8758647D01*
X19782044Y-8908647D01*
X19932044Y-9058647D01*
X19939119Y-12675341D02*
X20089119Y-12525341D01*
X19939119Y-12375341D01*
X19789119Y-12525341D01*
X19939119Y-12675341D01*
X20101134Y-11025144D02*
X20251134Y-10875144D01*
X20101134Y-10725144D01*
X19951134Y-10875144D01*
X20101134Y-11025144D01*
X20270312Y-10797057D02*
X20420312Y-10647057D01*
X20270312Y-10497057D01*
X20120312Y-10647057D01*
X20270312Y-10797057D01*
X20432327Y-9146861D02*
X20582327Y-8996861D01*
X20432327Y-8846861D01*
X20282327Y-8996861D01*
X20432327Y-9146861D01*
X20601504Y-8918773D02*
X20751504Y-8768773D01*
X20601504Y-8618773D01*
X20451504Y-8768773D01*
X20601504Y-8918773D01*
X21148920Y-12380948D02*
X21298920Y-12230948D01*
X21148920Y-12080948D01*
X20998920Y-12230948D01*
X21148920Y-12380948D01*
X21229884Y-12653142D02*
X21379884Y-12503142D01*
X21229884Y-12353142D01*
X21079884Y-12503142D01*
X21229884Y-12653142D01*
X21480112Y-10502664D02*
X21630112Y-10352664D01*
X21480112Y-10202664D01*
X21330112Y-10352664D01*
X21480112Y-10502664D01*
X21561076Y-10774858D02*
X21711076Y-10624858D01*
X21561076Y-10474858D01*
X21411076Y-10624858D01*
X21561076Y-10774858D01*
X21730166Y-12741356D02*
X21880166Y-12591356D01*
X21730166Y-12441356D01*
X21580166Y-12591356D01*
X21730166Y-12741356D01*
X21899343Y-12513268D02*
X22049343Y-12363268D01*
X21899343Y-12213268D01*
X21749343Y-12363268D01*
X21899343Y-12513268D01*
X22061358Y-10863072D02*
X22211358Y-10713072D01*
X22061358Y-10563072D01*
X21911358Y-10713072D01*
X22061358Y-10863072D01*
X22230535Y-10634984D02*
X22380535Y-10484984D01*
X22230535Y-10334984D01*
X22080535Y-10484984D01*
X22230535Y-10634984D01*
D17*
X8172000Y-5412000D02*
X8492000Y-5732000D01*
X8492000Y-5412000D02*
X8172000Y-5732000D01*
X8492000Y-5572000D02*
G75*
G03*
X8492000Y-5572000I-160000J0D01*
G01*
X8172000Y-13355000D02*
X8492000Y-13675000D01*
X8492000Y-13355000D02*
X8172000Y-13675000D01*
X8492000Y-13515000D02*
G75*
G03*
X8492000Y-13515000I-160000J0D01*
G01*
X14380000Y-5412000D02*
X14700000Y-5732000D01*
X14700000Y-5412000D02*
X14380000Y-5732000D01*
X14700000Y-5572000D02*
G75*
G03*
X14700000Y-5572000I-160000J0D01*
G01*
X16570000Y-8645000D02*
X16890000Y-8965000D01*
X16890000Y-8645000D02*
X16570000Y-8965000D01*
X16890000Y-8805000D02*
G75*
G03*
X16890000Y-8805000I-160000J0D01*
G01*
X16835000Y-12011000D02*
X17155000Y-12331000D01*
X17155000Y-12011000D02*
X16835000Y-12331000D01*
X17155000Y-12171000D02*
G75*
G03*
X17155000Y-12171000I-160000J0D01*
G01*
X17255000Y-5412000D02*
X17575000Y-5732000D01*
X17575000Y-5412000D02*
X17255000Y-5732000D01*
X17575000Y-5572000D02*
G75*
G03*
X17575000Y-5572000I-160000J0D01*
G01*
X17996000Y-12087000D02*
X18316000Y-12407000D01*
X18316000Y-12087000D02*
X17996000Y-12407000D01*
X18316000Y-12247000D02*
G75*
G03*
X18316000Y-12247000I-160000J0D01*
G01*
X18739000Y-5513000D02*
X19059000Y-5833000D01*
X19059000Y-5513000D02*
X18739000Y-5833000D01*
X19059000Y-5673000D02*
G75*
G03*
X19059000Y-5673000I-160000J0D01*
G01*
D18*
X8337825Y-15089993D02*
X8736605Y-15488773D01*
X8736605Y-15089993D02*
X8337825Y-15488773D01*
X8537215Y-15089993D02*
X8537215Y-15488773D01*
X8337825Y-15289383D02*
X8736605Y-15289383D01*
X10025325Y-13783784D02*
X10424105Y-14182564D01*
X10424105Y-13783784D02*
X10025325Y-14182564D01*
X10224715Y-13783784D02*
X10224715Y-14182564D01*
X10025325Y-13983174D02*
X10424105Y-13983174D01*
X11907407Y-6960876D02*
X12306187Y-7359656D01*
X12306187Y-6960876D02*
X11907407Y-7359656D01*
X12106797Y-6960876D02*
X12106797Y-7359656D01*
X11907407Y-7160266D02*
X12306187Y-7160266D01*
X11907407Y-8868136D02*
X12306187Y-9266916D01*
X12306187Y-8868136D02*
X11907407Y-9266916D01*
X12106797Y-8868136D02*
X12106797Y-9266916D01*
X11907407Y-9067526D02*
X12306187Y-9067526D01*
X11907407Y-10775396D02*
X12306187Y-11174176D01*
X12306187Y-10775396D02*
X11907407Y-11174176D01*
X12106797Y-10775396D02*
X12106797Y-11174176D01*
X11907407Y-10974786D02*
X12306187Y-10974786D01*
X11990325Y-12958504D02*
X12389105Y-13357284D01*
X12389105Y-12958504D02*
X11990325Y-13357284D01*
X12189715Y-12958504D02*
X12189715Y-13357284D01*
X11990325Y-13157894D02*
X12389105Y-13157894D01*
X13806750Y-6660876D02*
X14205530Y-7059656D01*
X14205530Y-6660876D02*
X13806750Y-7059656D01*
X14006140Y-6660876D02*
X14006140Y-7059656D01*
X13806750Y-6860266D02*
X14205530Y-6860266D01*
X13806750Y-8568136D02*
X14205530Y-8966916D01*
X14205530Y-8568136D02*
X13806750Y-8966916D01*
X14006140Y-8568136D02*
X14006140Y-8966916D01*
X13806750Y-8767526D02*
X14205530Y-8767526D01*
X13806750Y-10475396D02*
X14205530Y-10874176D01*
X14205530Y-10475396D02*
X13806750Y-10874176D01*
X14006140Y-10475396D02*
X14006140Y-10874176D01*
X13806750Y-10674786D02*
X14205530Y-10674786D01*
X14101750Y-12670396D02*
X14500530Y-13069176D01*
X14500530Y-12670396D02*
X14101750Y-13069176D01*
X14301140Y-12670396D02*
X14301140Y-13069176D01*
X14101750Y-12869786D02*
X14500530Y-12869786D01*
X15711750Y-5760876D02*
X16110530Y-6159656D01*
X16110530Y-5760876D02*
X15711750Y-6159656D01*
X15911140Y-5760876D02*
X15911140Y-6159656D01*
X15711750Y-5960266D02*
X16110530Y-5960266D01*
X15711750Y-7668136D02*
X16110530Y-8066916D01*
X16110530Y-7668136D02*
X15711750Y-8066916D01*
X15911140Y-7668136D02*
X15911140Y-8066916D01*
X15711750Y-7867526D02*
X16110530Y-7867526D01*
X15711750Y-9575396D02*
X16110530Y-9974176D01*
X16110530Y-9575396D02*
X15711750Y-9974176D01*
X15911140Y-9575396D02*
X15911140Y-9974176D01*
X15711750Y-9774786D02*
X16110530Y-9774786D01*
X17622825Y-10608525D02*
X18021605Y-11007305D01*
X18021605Y-10608525D02*
X17622825Y-11007305D01*
X17822215Y-10608525D02*
X17822215Y-11007305D01*
X17622825Y-10807915D02*
X18021605Y-10807915D01*
X17755869Y-8705912D02*
X18154649Y-9104692D01*
X18154649Y-8705912D02*
X17755869Y-9104692D01*
X17955259Y-8705912D02*
X17955259Y-9104692D01*
X17755869Y-8905302D02*
X18154649Y-8905302D01*
X17888913Y-6803298D02*
X18287693Y-7202078D01*
X18287693Y-6803298D02*
X17888913Y-7202078D01*
X18088303Y-6803298D02*
X18088303Y-7202078D01*
X17888913Y-7002688D02*
X18287693Y-7002688D01*
X19408624Y-12009650D02*
X19807404Y-12408430D01*
X19807404Y-12009650D02*
X19408624Y-12408430D01*
X19608014Y-12009650D02*
X19608014Y-12408430D01*
X19408624Y-12209040D02*
X19807404Y-12209040D01*
X19739817Y-10131365D02*
X20138597Y-10530145D01*
X20138597Y-10131365D02*
X19739817Y-10530145D01*
X19939207Y-10131365D02*
X19939207Y-10530145D01*
X19739817Y-10330755D02*
X20138597Y-10330755D01*
X20071009Y-8253081D02*
X20469789Y-8651862D01*
X20469789Y-8253081D02*
X20071009Y-8651862D01*
X20270399Y-8253081D02*
X20270399Y-8651862D01*
X20071009Y-8452472D02*
X20469789Y-8452472D01*
X21368848Y-11847577D02*
X21767628Y-12246357D01*
X21767628Y-11847577D02*
X21368848Y-12246357D01*
X21568238Y-11847577D02*
X21568238Y-12246357D01*
X21368848Y-12046967D02*
X21767628Y-12046967D01*
X21700040Y-9969293D02*
X22098820Y-10368073D01*
X22098820Y-9969293D02*
X21700040Y-10368073D01*
X21899430Y-9969293D02*
X21899430Y-10368073D01*
X21700040Y-10168683D02*
X22098820Y-10168683D01*
D11*
X7338638Y-17061821D02*
X7338638Y-16861821D01*
X7338638Y-16861821D02*
X7386257Y-16861821D01*
X7386257Y-16861821D02*
X7414829Y-16871344D01*
X7414829Y-16871344D02*
X7433876Y-16890392D01*
X7433876Y-16890392D02*
X7443400Y-16909440D01*
X7443400Y-16909440D02*
X7452924Y-16947535D01*
X7452924Y-16947535D02*
X7452924Y-16976106D01*
X7452924Y-16976106D02*
X7443400Y-17014201D01*
X7443400Y-17014201D02*
X7433876Y-17033249D01*
X7433876Y-17033249D02*
X7414829Y-17052297D01*
X7414829Y-17052297D02*
X7386257Y-17061821D01*
X7386257Y-17061821D02*
X7338638Y-17061821D01*
X7538638Y-17061821D02*
X7538638Y-16928487D01*
X7538638Y-16966582D02*
X7548162Y-16947535D01*
X7548162Y-16947535D02*
X7557686Y-16938011D01*
X7557686Y-16938011D02*
X7576733Y-16928487D01*
X7576733Y-16928487D02*
X7595781Y-16928487D01*
X7662448Y-17061821D02*
X7662448Y-16928487D01*
X7662448Y-16861821D02*
X7652924Y-16871344D01*
X7652924Y-16871344D02*
X7662448Y-16880868D01*
X7662448Y-16880868D02*
X7671972Y-16871344D01*
X7671972Y-16871344D02*
X7662448Y-16861821D01*
X7662448Y-16861821D02*
X7662448Y-16880868D01*
X7786257Y-17061821D02*
X7767210Y-17052297D01*
X7767210Y-17052297D02*
X7757686Y-17033249D01*
X7757686Y-17033249D02*
X7757686Y-16861821D01*
X7891019Y-17061821D02*
X7871972Y-17052297D01*
X7871972Y-17052297D02*
X7862448Y-17033249D01*
X7862448Y-17033249D02*
X7862448Y-16861821D01*
X8119591Y-17061821D02*
X8119591Y-16861821D01*
X8119591Y-16861821D02*
X8186257Y-17004678D01*
X8186257Y-17004678D02*
X8252924Y-16861821D01*
X8252924Y-16861821D02*
X8252924Y-17061821D01*
X8433876Y-17061821D02*
X8433876Y-16957059D01*
X8433876Y-16957059D02*
X8424353Y-16938011D01*
X8424353Y-16938011D02*
X8405305Y-16928487D01*
X8405305Y-16928487D02*
X8367210Y-16928487D01*
X8367210Y-16928487D02*
X8348162Y-16938011D01*
X8433876Y-17052297D02*
X8414829Y-17061821D01*
X8414829Y-17061821D02*
X8367210Y-17061821D01*
X8367210Y-17061821D02*
X8348162Y-17052297D01*
X8348162Y-17052297D02*
X8338638Y-17033249D01*
X8338638Y-17033249D02*
X8338638Y-17014201D01*
X8338638Y-17014201D02*
X8348162Y-16995154D01*
X8348162Y-16995154D02*
X8367210Y-16985630D01*
X8367210Y-16985630D02*
X8414829Y-16985630D01*
X8414829Y-16985630D02*
X8433876Y-16976106D01*
X8529115Y-16928487D02*
X8529115Y-17128487D01*
X8529115Y-16938011D02*
X8548162Y-16928487D01*
X8548162Y-16928487D02*
X8586257Y-16928487D01*
X8586257Y-16928487D02*
X8605305Y-16938011D01*
X8605305Y-16938011D02*
X8614829Y-16947535D01*
X8614829Y-16947535D02*
X8624353Y-16966582D01*
X8624353Y-16966582D02*
X8624353Y-17023725D01*
X8624353Y-17023725D02*
X8614829Y-17042773D01*
X8614829Y-17042773D02*
X8605305Y-17052297D01*
X8605305Y-17052297D02*
X8586257Y-17061821D01*
X8586257Y-17061821D02*
X8548162Y-17061821D01*
X8548162Y-17061821D02*
X8529115Y-17052297D01*
X8710067Y-17042773D02*
X8719591Y-17052297D01*
X8719591Y-17052297D02*
X8710067Y-17061821D01*
X8710067Y-17061821D02*
X8700543Y-17052297D01*
X8700543Y-17052297D02*
X8710067Y-17042773D01*
X8710067Y-17042773D02*
X8710067Y-17061821D01*
X8710067Y-16938011D02*
X8719591Y-16947535D01*
X8719591Y-16947535D02*
X8710067Y-16957059D01*
X8710067Y-16957059D02*
X8700543Y-16947535D01*
X8700543Y-16947535D02*
X8710067Y-16938011D01*
X8710067Y-16938011D02*
X8710067Y-16957059D01*
D12*
X7017861Y-17360337D02*
X7077861Y-17420337D01*
X7077861Y-17360337D02*
X7017861Y-17420337D01*
D11*
X7376733Y-17281821D02*
X7395781Y-17281821D01*
X7395781Y-17281821D02*
X7414829Y-17291344D01*
X7414829Y-17291344D02*
X7424353Y-17300868D01*
X7424353Y-17300868D02*
X7433876Y-17319916D01*
X7433876Y-17319916D02*
X7443400Y-17358011D01*
X7443400Y-17358011D02*
X7443400Y-17405630D01*
X7443400Y-17405630D02*
X7433876Y-17443725D01*
X7433876Y-17443725D02*
X7424353Y-17462773D01*
X7424353Y-17462773D02*
X7414829Y-17472297D01*
X7414829Y-17472297D02*
X7395781Y-17481821D01*
X7395781Y-17481821D02*
X7376733Y-17481821D01*
X7376733Y-17481821D02*
X7357686Y-17472297D01*
X7357686Y-17472297D02*
X7348162Y-17462773D01*
X7348162Y-17462773D02*
X7338638Y-17443725D01*
X7338638Y-17443725D02*
X7329114Y-17405630D01*
X7329114Y-17405630D02*
X7329114Y-17358011D01*
X7329114Y-17358011D02*
X7338638Y-17319916D01*
X7338638Y-17319916D02*
X7348162Y-17300868D01*
X7348162Y-17300868D02*
X7357686Y-17291344D01*
X7357686Y-17291344D02*
X7376733Y-17281821D01*
X7529114Y-17462773D02*
X7538638Y-17472297D01*
X7538638Y-17472297D02*
X7529114Y-17481821D01*
X7529114Y-17481821D02*
X7519591Y-17472297D01*
X7519591Y-17472297D02*
X7529114Y-17462773D01*
X7529114Y-17462773D02*
X7529114Y-17481821D01*
X7710067Y-17281821D02*
X7671972Y-17281821D01*
X7671972Y-17281821D02*
X7652924Y-17291344D01*
X7652924Y-17291344D02*
X7643400Y-17300868D01*
X7643400Y-17300868D02*
X7624353Y-17329440D01*
X7624353Y-17329440D02*
X7614829Y-17367535D01*
X7614829Y-17367535D02*
X7614829Y-17443725D01*
X7614829Y-17443725D02*
X7624353Y-17462773D01*
X7624353Y-17462773D02*
X7633876Y-17472297D01*
X7633876Y-17472297D02*
X7652924Y-17481821D01*
X7652924Y-17481821D02*
X7691019Y-17481821D01*
X7691019Y-17481821D02*
X7710067Y-17472297D01*
X7710067Y-17472297D02*
X7719591Y-17462773D01*
X7719591Y-17462773D02*
X7729114Y-17443725D01*
X7729114Y-17443725D02*
X7729114Y-17396106D01*
X7729114Y-17396106D02*
X7719591Y-17377059D01*
X7719591Y-17377059D02*
X7710067Y-17367535D01*
X7710067Y-17367535D02*
X7691019Y-17358011D01*
X7691019Y-17358011D02*
X7652924Y-17358011D01*
X7652924Y-17358011D02*
X7633876Y-17367535D01*
X7633876Y-17367535D02*
X7624353Y-17377059D01*
X7624353Y-17377059D02*
X7614829Y-17396106D01*
X7852924Y-17281821D02*
X7871972Y-17281821D01*
X7871972Y-17281821D02*
X7891019Y-17291344D01*
X7891019Y-17291344D02*
X7900543Y-17300868D01*
X7900543Y-17300868D02*
X7910067Y-17319916D01*
X7910067Y-17319916D02*
X7919591Y-17358011D01*
X7919591Y-17358011D02*
X7919591Y-17405630D01*
X7919591Y-17405630D02*
X7910067Y-17443725D01*
X7910067Y-17443725D02*
X7900543Y-17462773D01*
X7900543Y-17462773D02*
X7891019Y-17472297D01*
X7891019Y-17472297D02*
X7871972Y-17481821D01*
X7871972Y-17481821D02*
X7852924Y-17481821D01*
X7852924Y-17481821D02*
X7833876Y-17472297D01*
X7833876Y-17472297D02*
X7824353Y-17462773D01*
X7824353Y-17462773D02*
X7814829Y-17443725D01*
X7814829Y-17443725D02*
X7805305Y-17405630D01*
X7805305Y-17405630D02*
X7805305Y-17358011D01*
X7805305Y-17358011D02*
X7814829Y-17319916D01*
X7814829Y-17319916D02*
X7824353Y-17300868D01*
X7824353Y-17300868D02*
X7833876Y-17291344D01*
X7833876Y-17291344D02*
X7852924Y-17281821D01*
X8043400Y-17281821D02*
X8062448Y-17281821D01*
X8062448Y-17281821D02*
X8081495Y-17291344D01*
X8081495Y-17291344D02*
X8091019Y-17300868D01*
X8091019Y-17300868D02*
X8100543Y-17319916D01*
X8100543Y-17319916D02*
X8110067Y-17358011D01*
X8110067Y-17358011D02*
X8110067Y-17405630D01*
X8110067Y-17405630D02*
X8100543Y-17443725D01*
X8100543Y-17443725D02*
X8091019Y-17462773D01*
X8091019Y-17462773D02*
X8081495Y-17472297D01*
X8081495Y-17472297D02*
X8062448Y-17481821D01*
X8062448Y-17481821D02*
X8043400Y-17481821D01*
X8043400Y-17481821D02*
X8024353Y-17472297D01*
X8024353Y-17472297D02*
X8014829Y-17462773D01*
X8014829Y-17462773D02*
X8005305Y-17443725D01*
X8005305Y-17443725D02*
X7995781Y-17405630D01*
X7995781Y-17405630D02*
X7995781Y-17358011D01*
X7995781Y-17358011D02*
X8005305Y-17319916D01*
X8005305Y-17319916D02*
X8014829Y-17300868D01*
X8014829Y-17300868D02*
X8024353Y-17291344D01*
X8024353Y-17291344D02*
X8043400Y-17281821D01*
X8195781Y-17481821D02*
X8195781Y-17348487D01*
X8195781Y-17367535D02*
X8205305Y-17358011D01*
X8205305Y-17358011D02*
X8224353Y-17348487D01*
X8224353Y-17348487D02*
X8252924Y-17348487D01*
X8252924Y-17348487D02*
X8271972Y-17358011D01*
X8271972Y-17358011D02*
X8281495Y-17377059D01*
X8281495Y-17377059D02*
X8281495Y-17481821D01*
X8281495Y-17377059D02*
X8291019Y-17358011D01*
X8291019Y-17358011D02*
X8310067Y-17348487D01*
X8310067Y-17348487D02*
X8338638Y-17348487D01*
X8338638Y-17348487D02*
X8357686Y-17358011D01*
X8357686Y-17358011D02*
X8367210Y-17377059D01*
X8367210Y-17377059D02*
X8367210Y-17481821D01*
X8462448Y-17481821D02*
X8462448Y-17348487D01*
X8462448Y-17367535D02*
X8471972Y-17358011D01*
X8471972Y-17358011D02*
X8491019Y-17348487D01*
X8491019Y-17348487D02*
X8519591Y-17348487D01*
X8519591Y-17348487D02*
X8538638Y-17358011D01*
X8538638Y-17358011D02*
X8548162Y-17377059D01*
X8548162Y-17377059D02*
X8548162Y-17481821D01*
X8548162Y-17377059D02*
X8557686Y-17358011D01*
X8557686Y-17358011D02*
X8576734Y-17348487D01*
X8576734Y-17348487D02*
X8605305Y-17348487D01*
X8605305Y-17348487D02*
X8624353Y-17358011D01*
X8624353Y-17358011D02*
X8633877Y-17377059D01*
X8633877Y-17377059D02*
X8633877Y-17481821D01*
X9024353Y-17272297D02*
X8852924Y-17529440D01*
X9281496Y-17281821D02*
X9300543Y-17281821D01*
X9300543Y-17281821D02*
X9319591Y-17291344D01*
X9319591Y-17291344D02*
X9329115Y-17300868D01*
X9329115Y-17300868D02*
X9338639Y-17319916D01*
X9338639Y-17319916D02*
X9348162Y-17358011D01*
X9348162Y-17358011D02*
X9348162Y-17405630D01*
X9348162Y-17405630D02*
X9338639Y-17443725D01*
X9338639Y-17443725D02*
X9329115Y-17462773D01*
X9329115Y-17462773D02*
X9319591Y-17472297D01*
X9319591Y-17472297D02*
X9300543Y-17481821D01*
X9300543Y-17481821D02*
X9281496Y-17481821D01*
X9281496Y-17481821D02*
X9262448Y-17472297D01*
X9262448Y-17472297D02*
X9252924Y-17462773D01*
X9252924Y-17462773D02*
X9243400Y-17443725D01*
X9243400Y-17443725D02*
X9233877Y-17405630D01*
X9233877Y-17405630D02*
X9233877Y-17358011D01*
X9233877Y-17358011D02*
X9243400Y-17319916D01*
X9243400Y-17319916D02*
X9252924Y-17300868D01*
X9252924Y-17300868D02*
X9262448Y-17291344D01*
X9262448Y-17291344D02*
X9281496Y-17281821D01*
X9433877Y-17462773D02*
X9443400Y-17472297D01*
X9443400Y-17472297D02*
X9433877Y-17481821D01*
X9433877Y-17481821D02*
X9424353Y-17472297D01*
X9424353Y-17472297D02*
X9433877Y-17462773D01*
X9433877Y-17462773D02*
X9433877Y-17481821D01*
X9567210Y-17281821D02*
X9586258Y-17281821D01*
X9586258Y-17281821D02*
X9605305Y-17291344D01*
X9605305Y-17291344D02*
X9614829Y-17300868D01*
X9614829Y-17300868D02*
X9624353Y-17319916D01*
X9624353Y-17319916D02*
X9633877Y-17358011D01*
X9633877Y-17358011D02*
X9633877Y-17405630D01*
X9633877Y-17405630D02*
X9624353Y-17443725D01*
X9624353Y-17443725D02*
X9614829Y-17462773D01*
X9614829Y-17462773D02*
X9605305Y-17472297D01*
X9605305Y-17472297D02*
X9586258Y-17481821D01*
X9586258Y-17481821D02*
X9567210Y-17481821D01*
X9567210Y-17481821D02*
X9548162Y-17472297D01*
X9548162Y-17472297D02*
X9538639Y-17462773D01*
X9538639Y-17462773D02*
X9529115Y-17443725D01*
X9529115Y-17443725D02*
X9519591Y-17405630D01*
X9519591Y-17405630D02*
X9519591Y-17358011D01*
X9519591Y-17358011D02*
X9529115Y-17319916D01*
X9529115Y-17319916D02*
X9538639Y-17300868D01*
X9538639Y-17300868D02*
X9548162Y-17291344D01*
X9548162Y-17291344D02*
X9567210Y-17281821D01*
X9710067Y-17300868D02*
X9719591Y-17291344D01*
X9719591Y-17291344D02*
X9738639Y-17281821D01*
X9738639Y-17281821D02*
X9786258Y-17281821D01*
X9786258Y-17281821D02*
X9805305Y-17291344D01*
X9805305Y-17291344D02*
X9814829Y-17300868D01*
X9814829Y-17300868D02*
X9824353Y-17319916D01*
X9824353Y-17319916D02*
X9824353Y-17338963D01*
X9824353Y-17338963D02*
X9814829Y-17367535D01*
X9814829Y-17367535D02*
X9700543Y-17481821D01*
X9700543Y-17481821D02*
X9824353Y-17481821D01*
X9891020Y-17281821D02*
X10014829Y-17281821D01*
X10014829Y-17281821D02*
X9948162Y-17358011D01*
X9948162Y-17358011D02*
X9976734Y-17358011D01*
X9976734Y-17358011D02*
X9995781Y-17367535D01*
X9995781Y-17367535D02*
X10005305Y-17377059D01*
X10005305Y-17377059D02*
X10014829Y-17396106D01*
X10014829Y-17396106D02*
X10014829Y-17443725D01*
X10014829Y-17443725D02*
X10005305Y-17462773D01*
X10005305Y-17462773D02*
X9995781Y-17472297D01*
X9995781Y-17472297D02*
X9976734Y-17481821D01*
X9976734Y-17481821D02*
X9919591Y-17481821D01*
X9919591Y-17481821D02*
X9900543Y-17472297D01*
X9900543Y-17472297D02*
X9891020Y-17462773D01*
X10186258Y-17281821D02*
X10148162Y-17281821D01*
X10148162Y-17281821D02*
X10129115Y-17291344D01*
X10129115Y-17291344D02*
X10119591Y-17300868D01*
X10119591Y-17300868D02*
X10100543Y-17329440D01*
X10100543Y-17329440D02*
X10091020Y-17367535D01*
X10091020Y-17367535D02*
X10091020Y-17443725D01*
X10091020Y-17443725D02*
X10100543Y-17462773D01*
X10100543Y-17462773D02*
X10110067Y-17472297D01*
X10110067Y-17472297D02*
X10129115Y-17481821D01*
X10129115Y-17481821D02*
X10167210Y-17481821D01*
X10167210Y-17481821D02*
X10186258Y-17472297D01*
X10186258Y-17472297D02*
X10195781Y-17462773D01*
X10195781Y-17462773D02*
X10205305Y-17443725D01*
X10205305Y-17443725D02*
X10205305Y-17396106D01*
X10205305Y-17396106D02*
X10195781Y-17377059D01*
X10195781Y-17377059D02*
X10186258Y-17367535D01*
X10186258Y-17367535D02*
X10167210Y-17358011D01*
X10167210Y-17358011D02*
X10129115Y-17358011D01*
X10129115Y-17358011D02*
X10110067Y-17367535D01*
X10110067Y-17367535D02*
X10100543Y-17377059D01*
X10100543Y-17377059D02*
X10091020Y-17396106D01*
X10281496Y-17281821D02*
X10281496Y-17319916D01*
X10357686Y-17281821D02*
X10357686Y-17319916D01*
X10652924Y-17558011D02*
X10643401Y-17548487D01*
X10643401Y-17548487D02*
X10624353Y-17519916D01*
X10624353Y-17519916D02*
X10614829Y-17500868D01*
X10614829Y-17500868D02*
X10605305Y-17472297D01*
X10605305Y-17472297D02*
X10595782Y-17424678D01*
X10595782Y-17424678D02*
X10595782Y-17386582D01*
X10595782Y-17386582D02*
X10605305Y-17338963D01*
X10605305Y-17338963D02*
X10614829Y-17310392D01*
X10614829Y-17310392D02*
X10624353Y-17291344D01*
X10624353Y-17291344D02*
X10643401Y-17262773D01*
X10643401Y-17262773D02*
X10652924Y-17253249D01*
X10719591Y-17300868D02*
X10729115Y-17291344D01*
X10729115Y-17291344D02*
X10748162Y-17281821D01*
X10748162Y-17281821D02*
X10795782Y-17281821D01*
X10795782Y-17281821D02*
X10814829Y-17291344D01*
X10814829Y-17291344D02*
X10824353Y-17300868D01*
X10824353Y-17300868D02*
X10833877Y-17319916D01*
X10833877Y-17319916D02*
X10833877Y-17338963D01*
X10833877Y-17338963D02*
X10824353Y-17367535D01*
X10824353Y-17367535D02*
X10710067Y-17481821D01*
X10710067Y-17481821D02*
X10833877Y-17481821D01*
X11071972Y-17481821D02*
X11071972Y-17281821D01*
X11157686Y-17481821D02*
X11157686Y-17377059D01*
X11157686Y-17377059D02*
X11148163Y-17358011D01*
X11148163Y-17358011D02*
X11129115Y-17348487D01*
X11129115Y-17348487D02*
X11100543Y-17348487D01*
X11100543Y-17348487D02*
X11081496Y-17358011D01*
X11081496Y-17358011D02*
X11071972Y-17367535D01*
X11281496Y-17481821D02*
X11262448Y-17472297D01*
X11262448Y-17472297D02*
X11252924Y-17462773D01*
X11252924Y-17462773D02*
X11243401Y-17443725D01*
X11243401Y-17443725D02*
X11243401Y-17386582D01*
X11243401Y-17386582D02*
X11252924Y-17367535D01*
X11252924Y-17367535D02*
X11262448Y-17358011D01*
X11262448Y-17358011D02*
X11281496Y-17348487D01*
X11281496Y-17348487D02*
X11310067Y-17348487D01*
X11310067Y-17348487D02*
X11329115Y-17358011D01*
X11329115Y-17358011D02*
X11338639Y-17367535D01*
X11338639Y-17367535D02*
X11348162Y-17386582D01*
X11348162Y-17386582D02*
X11348162Y-17443725D01*
X11348162Y-17443725D02*
X11338639Y-17462773D01*
X11338639Y-17462773D02*
X11329115Y-17472297D01*
X11329115Y-17472297D02*
X11310067Y-17481821D01*
X11310067Y-17481821D02*
X11281496Y-17481821D01*
X11462448Y-17481821D02*
X11443401Y-17472297D01*
X11443401Y-17472297D02*
X11433877Y-17453249D01*
X11433877Y-17453249D02*
X11433877Y-17281821D01*
X11614829Y-17472297D02*
X11595782Y-17481821D01*
X11595782Y-17481821D02*
X11557686Y-17481821D01*
X11557686Y-17481821D02*
X11538639Y-17472297D01*
X11538639Y-17472297D02*
X11529115Y-17453249D01*
X11529115Y-17453249D02*
X11529115Y-17377059D01*
X11529115Y-17377059D02*
X11538639Y-17358011D01*
X11538639Y-17358011D02*
X11557686Y-17348487D01*
X11557686Y-17348487D02*
X11595782Y-17348487D01*
X11595782Y-17348487D02*
X11614829Y-17358011D01*
X11614829Y-17358011D02*
X11624353Y-17377059D01*
X11624353Y-17377059D02*
X11624353Y-17396106D01*
X11624353Y-17396106D02*
X11529115Y-17415154D01*
X11700543Y-17472297D02*
X11719591Y-17481821D01*
X11719591Y-17481821D02*
X11757686Y-17481821D01*
X11757686Y-17481821D02*
X11776734Y-17472297D01*
X11776734Y-17472297D02*
X11786258Y-17453249D01*
X11786258Y-17453249D02*
X11786258Y-17443725D01*
X11786258Y-17443725D02*
X11776734Y-17424678D01*
X11776734Y-17424678D02*
X11757686Y-17415154D01*
X11757686Y-17415154D02*
X11729115Y-17415154D01*
X11729115Y-17415154D02*
X11710067Y-17405630D01*
X11710067Y-17405630D02*
X11700543Y-17386582D01*
X11700543Y-17386582D02*
X11700543Y-17377059D01*
X11700543Y-17377059D02*
X11710067Y-17358011D01*
X11710067Y-17358011D02*
X11729115Y-17348487D01*
X11729115Y-17348487D02*
X11757686Y-17348487D01*
X11757686Y-17348487D02*
X11776734Y-17358011D01*
X11852924Y-17558011D02*
X11862448Y-17548487D01*
X11862448Y-17548487D02*
X11881496Y-17519916D01*
X11881496Y-17519916D02*
X11891020Y-17500868D01*
X11891020Y-17500868D02*
X11900543Y-17472297D01*
X11900543Y-17472297D02*
X11910067Y-17424678D01*
X11910067Y-17424678D02*
X11910067Y-17386582D01*
X11910067Y-17386582D02*
X11900543Y-17338963D01*
X11900543Y-17338963D02*
X11891020Y-17310392D01*
X11891020Y-17310392D02*
X11881496Y-17291344D01*
X11881496Y-17291344D02*
X11862448Y-17262773D01*
X11862448Y-17262773D02*
X11852924Y-17253249D01*
X12214829Y-17558011D02*
X12205305Y-17548487D01*
X12205305Y-17548487D02*
X12186258Y-17519916D01*
X12186258Y-17519916D02*
X12176734Y-17500868D01*
X12176734Y-17500868D02*
X12167210Y-17472297D01*
X12167210Y-17472297D02*
X12157686Y-17424678D01*
X12157686Y-17424678D02*
X12157686Y-17386582D01*
X12157686Y-17386582D02*
X12167210Y-17338963D01*
X12167210Y-17338963D02*
X12176734Y-17310392D01*
X12176734Y-17310392D02*
X12186258Y-17291344D01*
X12186258Y-17291344D02*
X12205305Y-17262773D01*
X12205305Y-17262773D02*
X12214829Y-17253249D01*
X12291020Y-17348487D02*
X12291020Y-17481821D01*
X12291020Y-17367535D02*
X12300543Y-17358011D01*
X12300543Y-17358011D02*
X12319591Y-17348487D01*
X12319591Y-17348487D02*
X12348163Y-17348487D01*
X12348163Y-17348487D02*
X12367210Y-17358011D01*
X12367210Y-17358011D02*
X12376734Y-17377059D01*
X12376734Y-17377059D02*
X12376734Y-17481821D01*
X12500543Y-17481821D02*
X12481496Y-17472297D01*
X12481496Y-17472297D02*
X12471972Y-17462773D01*
X12471972Y-17462773D02*
X12462448Y-17443725D01*
X12462448Y-17443725D02*
X12462448Y-17386582D01*
X12462448Y-17386582D02*
X12471972Y-17367535D01*
X12471972Y-17367535D02*
X12481496Y-17358011D01*
X12481496Y-17358011D02*
X12500543Y-17348487D01*
X12500543Y-17348487D02*
X12529115Y-17348487D01*
X12529115Y-17348487D02*
X12548163Y-17358011D01*
X12548163Y-17358011D02*
X12557686Y-17367535D01*
X12557686Y-17367535D02*
X12567210Y-17386582D01*
X12567210Y-17386582D02*
X12567210Y-17443725D01*
X12567210Y-17443725D02*
X12557686Y-17462773D01*
X12557686Y-17462773D02*
X12548163Y-17472297D01*
X12548163Y-17472297D02*
X12529115Y-17481821D01*
X12529115Y-17481821D02*
X12500543Y-17481821D01*
X12624353Y-17348487D02*
X12700543Y-17348487D01*
X12652924Y-17281821D02*
X12652924Y-17453249D01*
X12652924Y-17453249D02*
X12662448Y-17472297D01*
X12662448Y-17472297D02*
X12681496Y-17481821D01*
X12681496Y-17481821D02*
X12700543Y-17481821D01*
X12919591Y-17348487D02*
X12919591Y-17548487D01*
X12919591Y-17358011D02*
X12938639Y-17348487D01*
X12938639Y-17348487D02*
X12976734Y-17348487D01*
X12976734Y-17348487D02*
X12995782Y-17358011D01*
X12995782Y-17358011D02*
X13005305Y-17367535D01*
X13005305Y-17367535D02*
X13014829Y-17386582D01*
X13014829Y-17386582D02*
X13014829Y-17443725D01*
X13014829Y-17443725D02*
X13005305Y-17462773D01*
X13005305Y-17462773D02*
X12995782Y-17472297D01*
X12995782Y-17472297D02*
X12976734Y-17481821D01*
X12976734Y-17481821D02*
X12938639Y-17481821D01*
X12938639Y-17481821D02*
X12919591Y-17472297D01*
X13129115Y-17481821D02*
X13110067Y-17472297D01*
X13110067Y-17472297D02*
X13100544Y-17453249D01*
X13100544Y-17453249D02*
X13100544Y-17281821D01*
X13291020Y-17481821D02*
X13291020Y-17377059D01*
X13291020Y-17377059D02*
X13281496Y-17358011D01*
X13281496Y-17358011D02*
X13262448Y-17348487D01*
X13262448Y-17348487D02*
X13224353Y-17348487D01*
X13224353Y-17348487D02*
X13205305Y-17358011D01*
X13291020Y-17472297D02*
X13271972Y-17481821D01*
X13271972Y-17481821D02*
X13224353Y-17481821D01*
X13224353Y-17481821D02*
X13205305Y-17472297D01*
X13205305Y-17472297D02*
X13195782Y-17453249D01*
X13195782Y-17453249D02*
X13195782Y-17434201D01*
X13195782Y-17434201D02*
X13205305Y-17415154D01*
X13205305Y-17415154D02*
X13224353Y-17405630D01*
X13224353Y-17405630D02*
X13271972Y-17405630D01*
X13271972Y-17405630D02*
X13291020Y-17396106D01*
X13357686Y-17348487D02*
X13433877Y-17348487D01*
X13386258Y-17281821D02*
X13386258Y-17453249D01*
X13386258Y-17453249D02*
X13395782Y-17472297D01*
X13395782Y-17472297D02*
X13414829Y-17481821D01*
X13414829Y-17481821D02*
X13433877Y-17481821D01*
X13576734Y-17472297D02*
X13557686Y-17481821D01*
X13557686Y-17481821D02*
X13519591Y-17481821D01*
X13519591Y-17481821D02*
X13500544Y-17472297D01*
X13500544Y-17472297D02*
X13491020Y-17453249D01*
X13491020Y-17453249D02*
X13491020Y-17377059D01*
X13491020Y-17377059D02*
X13500544Y-17358011D01*
X13500544Y-17358011D02*
X13519591Y-17348487D01*
X13519591Y-17348487D02*
X13557686Y-17348487D01*
X13557686Y-17348487D02*
X13576734Y-17358011D01*
X13576734Y-17358011D02*
X13586258Y-17377059D01*
X13586258Y-17377059D02*
X13586258Y-17396106D01*
X13586258Y-17396106D02*
X13491020Y-17415154D01*
X13757686Y-17481821D02*
X13757686Y-17281821D01*
X13757686Y-17472297D02*
X13738639Y-17481821D01*
X13738639Y-17481821D02*
X13700544Y-17481821D01*
X13700544Y-17481821D02*
X13681496Y-17472297D01*
X13681496Y-17472297D02*
X13671972Y-17462773D01*
X13671972Y-17462773D02*
X13662448Y-17443725D01*
X13662448Y-17443725D02*
X13662448Y-17386582D01*
X13662448Y-17386582D02*
X13671972Y-17367535D01*
X13671972Y-17367535D02*
X13681496Y-17358011D01*
X13681496Y-17358011D02*
X13700544Y-17348487D01*
X13700544Y-17348487D02*
X13738639Y-17348487D01*
X13738639Y-17348487D02*
X13757686Y-17358011D01*
X13833877Y-17558011D02*
X13843401Y-17548487D01*
X13843401Y-17548487D02*
X13862448Y-17519916D01*
X13862448Y-17519916D02*
X13871972Y-17500868D01*
X13871972Y-17500868D02*
X13881496Y-17472297D01*
X13881496Y-17472297D02*
X13891020Y-17424678D01*
X13891020Y-17424678D02*
X13891020Y-17386582D01*
X13891020Y-17386582D02*
X13881496Y-17338963D01*
X13881496Y-17338963D02*
X13871972Y-17310392D01*
X13871972Y-17310392D02*
X13862448Y-17291344D01*
X13862448Y-17291344D02*
X13843401Y-17262773D01*
X13843401Y-17262773D02*
X13833877Y-17253249D01*
D13*
X7077861Y-17654337D02*
G75*
G03*
X7077861Y-17654337I-85000J0D01*
G01*
D11*
X7443400Y-17745821D02*
X7329114Y-17745821D01*
X7386257Y-17745821D02*
X7386257Y-17545821D01*
X7386257Y-17545821D02*
X7367210Y-17574392D01*
X7367210Y-17574392D02*
X7348162Y-17593440D01*
X7348162Y-17593440D02*
X7329114Y-17602963D01*
X7529114Y-17726773D02*
X7538638Y-17736297D01*
X7538638Y-17736297D02*
X7529114Y-17745821D01*
X7529114Y-17745821D02*
X7519591Y-17736297D01*
X7519591Y-17736297D02*
X7529114Y-17726773D01*
X7529114Y-17726773D02*
X7529114Y-17745821D01*
X7605305Y-17545821D02*
X7738638Y-17545821D01*
X7738638Y-17545821D02*
X7652924Y-17745821D01*
X7852924Y-17545821D02*
X7871972Y-17545821D01*
X7871972Y-17545821D02*
X7891019Y-17555344D01*
X7891019Y-17555344D02*
X7900543Y-17564868D01*
X7900543Y-17564868D02*
X7910067Y-17583916D01*
X7910067Y-17583916D02*
X7919591Y-17622011D01*
X7919591Y-17622011D02*
X7919591Y-17669630D01*
X7919591Y-17669630D02*
X7910067Y-17707725D01*
X7910067Y-17707725D02*
X7900543Y-17726773D01*
X7900543Y-17726773D02*
X7891019Y-17736297D01*
X7891019Y-17736297D02*
X7871972Y-17745821D01*
X7871972Y-17745821D02*
X7852924Y-17745821D01*
X7852924Y-17745821D02*
X7833876Y-17736297D01*
X7833876Y-17736297D02*
X7824353Y-17726773D01*
X7824353Y-17726773D02*
X7814829Y-17707725D01*
X7814829Y-17707725D02*
X7805305Y-17669630D01*
X7805305Y-17669630D02*
X7805305Y-17622011D01*
X7805305Y-17622011D02*
X7814829Y-17583916D01*
X7814829Y-17583916D02*
X7824353Y-17564868D01*
X7824353Y-17564868D02*
X7833876Y-17555344D01*
X7833876Y-17555344D02*
X7852924Y-17545821D01*
X8043400Y-17545821D02*
X8062448Y-17545821D01*
X8062448Y-17545821D02*
X8081495Y-17555344D01*
X8081495Y-17555344D02*
X8091019Y-17564868D01*
X8091019Y-17564868D02*
X8100543Y-17583916D01*
X8100543Y-17583916D02*
X8110067Y-17622011D01*
X8110067Y-17622011D02*
X8110067Y-17669630D01*
X8110067Y-17669630D02*
X8100543Y-17707725D01*
X8100543Y-17707725D02*
X8091019Y-17726773D01*
X8091019Y-17726773D02*
X8081495Y-17736297D01*
X8081495Y-17736297D02*
X8062448Y-17745821D01*
X8062448Y-17745821D02*
X8043400Y-17745821D01*
X8043400Y-17745821D02*
X8024353Y-17736297D01*
X8024353Y-17736297D02*
X8014829Y-17726773D01*
X8014829Y-17726773D02*
X8005305Y-17707725D01*
X8005305Y-17707725D02*
X7995781Y-17669630D01*
X7995781Y-17669630D02*
X7995781Y-17622011D01*
X7995781Y-17622011D02*
X8005305Y-17583916D01*
X8005305Y-17583916D02*
X8014829Y-17564868D01*
X8014829Y-17564868D02*
X8024353Y-17555344D01*
X8024353Y-17555344D02*
X8043400Y-17545821D01*
X8195781Y-17745821D02*
X8195781Y-17612487D01*
X8195781Y-17631535D02*
X8205305Y-17622011D01*
X8205305Y-17622011D02*
X8224353Y-17612487D01*
X8224353Y-17612487D02*
X8252924Y-17612487D01*
X8252924Y-17612487D02*
X8271972Y-17622011D01*
X8271972Y-17622011D02*
X8281495Y-17641059D01*
X8281495Y-17641059D02*
X8281495Y-17745821D01*
X8281495Y-17641059D02*
X8291019Y-17622011D01*
X8291019Y-17622011D02*
X8310067Y-17612487D01*
X8310067Y-17612487D02*
X8338638Y-17612487D01*
X8338638Y-17612487D02*
X8357686Y-17622011D01*
X8357686Y-17622011D02*
X8367210Y-17641059D01*
X8367210Y-17641059D02*
X8367210Y-17745821D01*
X8462448Y-17745821D02*
X8462448Y-17612487D01*
X8462448Y-17631535D02*
X8471972Y-17622011D01*
X8471972Y-17622011D02*
X8491019Y-17612487D01*
X8491019Y-17612487D02*
X8519591Y-17612487D01*
X8519591Y-17612487D02*
X8538638Y-17622011D01*
X8538638Y-17622011D02*
X8548162Y-17641059D01*
X8548162Y-17641059D02*
X8548162Y-17745821D01*
X8548162Y-17641059D02*
X8557686Y-17622011D01*
X8557686Y-17622011D02*
X8576734Y-17612487D01*
X8576734Y-17612487D02*
X8605305Y-17612487D01*
X8605305Y-17612487D02*
X8624353Y-17622011D01*
X8624353Y-17622011D02*
X8633877Y-17641059D01*
X8633877Y-17641059D02*
X8633877Y-17745821D01*
X9024353Y-17536297D02*
X8852924Y-17793440D01*
X9281496Y-17545821D02*
X9300543Y-17545821D01*
X9300543Y-17545821D02*
X9319591Y-17555344D01*
X9319591Y-17555344D02*
X9329115Y-17564868D01*
X9329115Y-17564868D02*
X9338639Y-17583916D01*
X9338639Y-17583916D02*
X9348162Y-17622011D01*
X9348162Y-17622011D02*
X9348162Y-17669630D01*
X9348162Y-17669630D02*
X9338639Y-17707725D01*
X9338639Y-17707725D02*
X9329115Y-17726773D01*
X9329115Y-17726773D02*
X9319591Y-17736297D01*
X9319591Y-17736297D02*
X9300543Y-17745821D01*
X9300543Y-17745821D02*
X9281496Y-17745821D01*
X9281496Y-17745821D02*
X9262448Y-17736297D01*
X9262448Y-17736297D02*
X9252924Y-17726773D01*
X9252924Y-17726773D02*
X9243400Y-17707725D01*
X9243400Y-17707725D02*
X9233877Y-17669630D01*
X9233877Y-17669630D02*
X9233877Y-17622011D01*
X9233877Y-17622011D02*
X9243400Y-17583916D01*
X9243400Y-17583916D02*
X9252924Y-17564868D01*
X9252924Y-17564868D02*
X9262448Y-17555344D01*
X9262448Y-17555344D02*
X9281496Y-17545821D01*
X9433877Y-17726773D02*
X9443400Y-17736297D01*
X9443400Y-17736297D02*
X9433877Y-17745821D01*
X9433877Y-17745821D02*
X9424353Y-17736297D01*
X9424353Y-17736297D02*
X9433877Y-17726773D01*
X9433877Y-17726773D02*
X9433877Y-17745821D01*
X9567210Y-17545821D02*
X9586258Y-17545821D01*
X9586258Y-17545821D02*
X9605305Y-17555344D01*
X9605305Y-17555344D02*
X9614829Y-17564868D01*
X9614829Y-17564868D02*
X9624353Y-17583916D01*
X9624353Y-17583916D02*
X9633877Y-17622011D01*
X9633877Y-17622011D02*
X9633877Y-17669630D01*
X9633877Y-17669630D02*
X9624353Y-17707725D01*
X9624353Y-17707725D02*
X9614829Y-17726773D01*
X9614829Y-17726773D02*
X9605305Y-17736297D01*
X9605305Y-17736297D02*
X9586258Y-17745821D01*
X9586258Y-17745821D02*
X9567210Y-17745821D01*
X9567210Y-17745821D02*
X9548162Y-17736297D01*
X9548162Y-17736297D02*
X9538639Y-17726773D01*
X9538639Y-17726773D02*
X9529115Y-17707725D01*
X9529115Y-17707725D02*
X9519591Y-17669630D01*
X9519591Y-17669630D02*
X9519591Y-17622011D01*
X9519591Y-17622011D02*
X9529115Y-17583916D01*
X9529115Y-17583916D02*
X9538639Y-17564868D01*
X9538639Y-17564868D02*
X9548162Y-17555344D01*
X9548162Y-17555344D02*
X9567210Y-17545821D01*
X9805305Y-17545821D02*
X9767210Y-17545821D01*
X9767210Y-17545821D02*
X9748162Y-17555344D01*
X9748162Y-17555344D02*
X9738639Y-17564868D01*
X9738639Y-17564868D02*
X9719591Y-17593440D01*
X9719591Y-17593440D02*
X9710067Y-17631535D01*
X9710067Y-17631535D02*
X9710067Y-17707725D01*
X9710067Y-17707725D02*
X9719591Y-17726773D01*
X9719591Y-17726773D02*
X9729115Y-17736297D01*
X9729115Y-17736297D02*
X9748162Y-17745821D01*
X9748162Y-17745821D02*
X9786258Y-17745821D01*
X9786258Y-17745821D02*
X9805305Y-17736297D01*
X9805305Y-17736297D02*
X9814829Y-17726773D01*
X9814829Y-17726773D02*
X9824353Y-17707725D01*
X9824353Y-17707725D02*
X9824353Y-17660106D01*
X9824353Y-17660106D02*
X9814829Y-17641059D01*
X9814829Y-17641059D02*
X9805305Y-17631535D01*
X9805305Y-17631535D02*
X9786258Y-17622011D01*
X9786258Y-17622011D02*
X9748162Y-17622011D01*
X9748162Y-17622011D02*
X9729115Y-17631535D01*
X9729115Y-17631535D02*
X9719591Y-17641059D01*
X9719591Y-17641059D02*
X9710067Y-17660106D01*
X9995781Y-17545821D02*
X9957686Y-17545821D01*
X9957686Y-17545821D02*
X9938639Y-17555344D01*
X9938639Y-17555344D02*
X9929115Y-17564868D01*
X9929115Y-17564868D02*
X9910067Y-17593440D01*
X9910067Y-17593440D02*
X9900543Y-17631535D01*
X9900543Y-17631535D02*
X9900543Y-17707725D01*
X9900543Y-17707725D02*
X9910067Y-17726773D01*
X9910067Y-17726773D02*
X9919591Y-17736297D01*
X9919591Y-17736297D02*
X9938639Y-17745821D01*
X9938639Y-17745821D02*
X9976734Y-17745821D01*
X9976734Y-17745821D02*
X9995781Y-17736297D01*
X9995781Y-17736297D02*
X10005305Y-17726773D01*
X10005305Y-17726773D02*
X10014829Y-17707725D01*
X10014829Y-17707725D02*
X10014829Y-17660106D01*
X10014829Y-17660106D02*
X10005305Y-17641059D01*
X10005305Y-17641059D02*
X9995781Y-17631535D01*
X9995781Y-17631535D02*
X9976734Y-17622011D01*
X9976734Y-17622011D02*
X9938639Y-17622011D01*
X9938639Y-17622011D02*
X9919591Y-17631535D01*
X9919591Y-17631535D02*
X9910067Y-17641059D01*
X9910067Y-17641059D02*
X9900543Y-17660106D01*
X10110067Y-17745821D02*
X10148162Y-17745821D01*
X10148162Y-17745821D02*
X10167210Y-17736297D01*
X10167210Y-17736297D02*
X10176734Y-17726773D01*
X10176734Y-17726773D02*
X10195781Y-17698201D01*
X10195781Y-17698201D02*
X10205305Y-17660106D01*
X10205305Y-17660106D02*
X10205305Y-17583916D01*
X10205305Y-17583916D02*
X10195781Y-17564868D01*
X10195781Y-17564868D02*
X10186258Y-17555344D01*
X10186258Y-17555344D02*
X10167210Y-17545821D01*
X10167210Y-17545821D02*
X10129115Y-17545821D01*
X10129115Y-17545821D02*
X10110067Y-17555344D01*
X10110067Y-17555344D02*
X10100543Y-17564868D01*
X10100543Y-17564868D02*
X10091020Y-17583916D01*
X10091020Y-17583916D02*
X10091020Y-17631535D01*
X10091020Y-17631535D02*
X10100543Y-17650582D01*
X10100543Y-17650582D02*
X10110067Y-17660106D01*
X10110067Y-17660106D02*
X10129115Y-17669630D01*
X10129115Y-17669630D02*
X10167210Y-17669630D01*
X10167210Y-17669630D02*
X10186258Y-17660106D01*
X10186258Y-17660106D02*
X10195781Y-17650582D01*
X10195781Y-17650582D02*
X10205305Y-17631535D01*
X10281496Y-17545821D02*
X10281496Y-17583916D01*
X10357686Y-17545821D02*
X10357686Y-17583916D01*
X10652924Y-17822011D02*
X10643401Y-17812487D01*
X10643401Y-17812487D02*
X10624353Y-17783916D01*
X10624353Y-17783916D02*
X10614829Y-17764868D01*
X10614829Y-17764868D02*
X10605305Y-17736297D01*
X10605305Y-17736297D02*
X10595782Y-17688678D01*
X10595782Y-17688678D02*
X10595782Y-17650582D01*
X10595782Y-17650582D02*
X10605305Y-17602963D01*
X10605305Y-17602963D02*
X10614829Y-17574392D01*
X10614829Y-17574392D02*
X10624353Y-17555344D01*
X10624353Y-17555344D02*
X10643401Y-17526773D01*
X10643401Y-17526773D02*
X10652924Y-17517249D01*
X10719591Y-17564868D02*
X10729115Y-17555344D01*
X10729115Y-17555344D02*
X10748162Y-17545821D01*
X10748162Y-17545821D02*
X10795782Y-17545821D01*
X10795782Y-17545821D02*
X10814829Y-17555344D01*
X10814829Y-17555344D02*
X10824353Y-17564868D01*
X10824353Y-17564868D02*
X10833877Y-17583916D01*
X10833877Y-17583916D02*
X10833877Y-17602963D01*
X10833877Y-17602963D02*
X10824353Y-17631535D01*
X10824353Y-17631535D02*
X10710067Y-17745821D01*
X10710067Y-17745821D02*
X10833877Y-17745821D01*
X11024353Y-17745821D02*
X10910067Y-17745821D01*
X10967210Y-17745821D02*
X10967210Y-17545821D01*
X10967210Y-17545821D02*
X10948162Y-17574392D01*
X10948162Y-17574392D02*
X10929115Y-17593440D01*
X10929115Y-17593440D02*
X10910067Y-17602963D01*
X11262448Y-17745821D02*
X11262448Y-17545821D01*
X11348162Y-17745821D02*
X11348162Y-17641059D01*
X11348162Y-17641059D02*
X11338639Y-17622011D01*
X11338639Y-17622011D02*
X11319591Y-17612487D01*
X11319591Y-17612487D02*
X11291020Y-17612487D01*
X11291020Y-17612487D02*
X11271972Y-17622011D01*
X11271972Y-17622011D02*
X11262448Y-17631535D01*
X11471972Y-17745821D02*
X11452924Y-17736297D01*
X11452924Y-17736297D02*
X11443401Y-17726773D01*
X11443401Y-17726773D02*
X11433877Y-17707725D01*
X11433877Y-17707725D02*
X11433877Y-17650582D01*
X11433877Y-17650582D02*
X11443401Y-17631535D01*
X11443401Y-17631535D02*
X11452924Y-17622011D01*
X11452924Y-17622011D02*
X11471972Y-17612487D01*
X11471972Y-17612487D02*
X11500543Y-17612487D01*
X11500543Y-17612487D02*
X11519591Y-17622011D01*
X11519591Y-17622011D02*
X11529115Y-17631535D01*
X11529115Y-17631535D02*
X11538639Y-17650582D01*
X11538639Y-17650582D02*
X11538639Y-17707725D01*
X11538639Y-17707725D02*
X11529115Y-17726773D01*
X11529115Y-17726773D02*
X11519591Y-17736297D01*
X11519591Y-17736297D02*
X11500543Y-17745821D01*
X11500543Y-17745821D02*
X11471972Y-17745821D01*
X11652924Y-17745821D02*
X11633877Y-17736297D01*
X11633877Y-17736297D02*
X11624353Y-17717249D01*
X11624353Y-17717249D02*
X11624353Y-17545821D01*
X11805305Y-17736297D02*
X11786258Y-17745821D01*
X11786258Y-17745821D02*
X11748162Y-17745821D01*
X11748162Y-17745821D02*
X11729115Y-17736297D01*
X11729115Y-17736297D02*
X11719591Y-17717249D01*
X11719591Y-17717249D02*
X11719591Y-17641059D01*
X11719591Y-17641059D02*
X11729115Y-17622011D01*
X11729115Y-17622011D02*
X11748162Y-17612487D01*
X11748162Y-17612487D02*
X11786258Y-17612487D01*
X11786258Y-17612487D02*
X11805305Y-17622011D01*
X11805305Y-17622011D02*
X11814829Y-17641059D01*
X11814829Y-17641059D02*
X11814829Y-17660106D01*
X11814829Y-17660106D02*
X11719591Y-17679154D01*
X11891020Y-17736297D02*
X11910067Y-17745821D01*
X11910067Y-17745821D02*
X11948162Y-17745821D01*
X11948162Y-17745821D02*
X11967210Y-17736297D01*
X11967210Y-17736297D02*
X11976734Y-17717249D01*
X11976734Y-17717249D02*
X11976734Y-17707725D01*
X11976734Y-17707725D02*
X11967210Y-17688678D01*
X11967210Y-17688678D02*
X11948162Y-17679154D01*
X11948162Y-17679154D02*
X11919591Y-17679154D01*
X11919591Y-17679154D02*
X11900543Y-17669630D01*
X11900543Y-17669630D02*
X11891020Y-17650582D01*
X11891020Y-17650582D02*
X11891020Y-17641059D01*
X11891020Y-17641059D02*
X11900543Y-17622011D01*
X11900543Y-17622011D02*
X11919591Y-17612487D01*
X11919591Y-17612487D02*
X11948162Y-17612487D01*
X11948162Y-17612487D02*
X11967210Y-17622011D01*
X12043401Y-17822011D02*
X12052924Y-17812487D01*
X12052924Y-17812487D02*
X12071972Y-17783916D01*
X12071972Y-17783916D02*
X12081496Y-17764868D01*
X12081496Y-17764868D02*
X12091020Y-17736297D01*
X12091020Y-17736297D02*
X12100543Y-17688678D01*
X12100543Y-17688678D02*
X12100543Y-17650582D01*
X12100543Y-17650582D02*
X12091020Y-17602963D01*
X12091020Y-17602963D02*
X12081496Y-17574392D01*
X12081496Y-17574392D02*
X12071972Y-17555344D01*
X12071972Y-17555344D02*
X12052924Y-17526773D01*
X12052924Y-17526773D02*
X12043401Y-17517249D01*
X12405305Y-17822011D02*
X12395782Y-17812487D01*
X12395782Y-17812487D02*
X12376734Y-17783916D01*
X12376734Y-17783916D02*
X12367210Y-17764868D01*
X12367210Y-17764868D02*
X12357686Y-17736297D01*
X12357686Y-17736297D02*
X12348163Y-17688678D01*
X12348163Y-17688678D02*
X12348163Y-17650582D01*
X12348163Y-17650582D02*
X12357686Y-17602963D01*
X12357686Y-17602963D02*
X12367210Y-17574392D01*
X12367210Y-17574392D02*
X12376734Y-17555344D01*
X12376734Y-17555344D02*
X12395782Y-17526773D01*
X12395782Y-17526773D02*
X12405305Y-17517249D01*
X12481496Y-17612487D02*
X12481496Y-17745821D01*
X12481496Y-17631535D02*
X12491020Y-17622011D01*
X12491020Y-17622011D02*
X12510067Y-17612487D01*
X12510067Y-17612487D02*
X12538639Y-17612487D01*
X12538639Y-17612487D02*
X12557686Y-17622011D01*
X12557686Y-17622011D02*
X12567210Y-17641059D01*
X12567210Y-17641059D02*
X12567210Y-17745821D01*
X12691020Y-17745821D02*
X12671972Y-17736297D01*
X12671972Y-17736297D02*
X12662448Y-17726773D01*
X12662448Y-17726773D02*
X12652924Y-17707725D01*
X12652924Y-17707725D02*
X12652924Y-17650582D01*
X12652924Y-17650582D02*
X12662448Y-17631535D01*
X12662448Y-17631535D02*
X12671972Y-17622011D01*
X12671972Y-17622011D02*
X12691020Y-17612487D01*
X12691020Y-17612487D02*
X12719591Y-17612487D01*
X12719591Y-17612487D02*
X12738639Y-17622011D01*
X12738639Y-17622011D02*
X12748163Y-17631535D01*
X12748163Y-17631535D02*
X12757686Y-17650582D01*
X12757686Y-17650582D02*
X12757686Y-17707725D01*
X12757686Y-17707725D02*
X12748163Y-17726773D01*
X12748163Y-17726773D02*
X12738639Y-17736297D01*
X12738639Y-17736297D02*
X12719591Y-17745821D01*
X12719591Y-17745821D02*
X12691020Y-17745821D01*
X12814829Y-17612487D02*
X12891020Y-17612487D01*
X12843401Y-17545821D02*
X12843401Y-17717249D01*
X12843401Y-17717249D02*
X12852924Y-17736297D01*
X12852924Y-17736297D02*
X12871972Y-17745821D01*
X12871972Y-17745821D02*
X12891020Y-17745821D01*
X13110067Y-17612487D02*
X13110067Y-17812487D01*
X13110067Y-17622011D02*
X13129115Y-17612487D01*
X13129115Y-17612487D02*
X13167210Y-17612487D01*
X13167210Y-17612487D02*
X13186258Y-17622011D01*
X13186258Y-17622011D02*
X13195782Y-17631535D01*
X13195782Y-17631535D02*
X13205305Y-17650582D01*
X13205305Y-17650582D02*
X13205305Y-17707725D01*
X13205305Y-17707725D02*
X13195782Y-17726773D01*
X13195782Y-17726773D02*
X13186258Y-17736297D01*
X13186258Y-17736297D02*
X13167210Y-17745821D01*
X13167210Y-17745821D02*
X13129115Y-17745821D01*
X13129115Y-17745821D02*
X13110067Y-17736297D01*
X13319591Y-17745821D02*
X13300544Y-17736297D01*
X13300544Y-17736297D02*
X13291020Y-17717249D01*
X13291020Y-17717249D02*
X13291020Y-17545821D01*
X13481496Y-17745821D02*
X13481496Y-17641059D01*
X13481496Y-17641059D02*
X13471972Y-17622011D01*
X13471972Y-17622011D02*
X13452925Y-17612487D01*
X13452925Y-17612487D02*
X13414829Y-17612487D01*
X13414829Y-17612487D02*
X13395782Y-17622011D01*
X13481496Y-17736297D02*
X13462448Y-17745821D01*
X13462448Y-17745821D02*
X13414829Y-17745821D01*
X13414829Y-17745821D02*
X13395782Y-17736297D01*
X13395782Y-17736297D02*
X13386258Y-17717249D01*
X13386258Y-17717249D02*
X13386258Y-17698201D01*
X13386258Y-17698201D02*
X13395782Y-17679154D01*
X13395782Y-17679154D02*
X13414829Y-17669630D01*
X13414829Y-17669630D02*
X13462448Y-17669630D01*
X13462448Y-17669630D02*
X13481496Y-17660106D01*
X13548163Y-17612487D02*
X13624353Y-17612487D01*
X13576734Y-17545821D02*
X13576734Y-17717249D01*
X13576734Y-17717249D02*
X13586258Y-17736297D01*
X13586258Y-17736297D02*
X13605305Y-17745821D01*
X13605305Y-17745821D02*
X13624353Y-17745821D01*
X13767210Y-17736297D02*
X13748163Y-17745821D01*
X13748163Y-17745821D02*
X13710067Y-17745821D01*
X13710067Y-17745821D02*
X13691020Y-17736297D01*
X13691020Y-17736297D02*
X13681496Y-17717249D01*
X13681496Y-17717249D02*
X13681496Y-17641059D01*
X13681496Y-17641059D02*
X13691020Y-17622011D01*
X13691020Y-17622011D02*
X13710067Y-17612487D01*
X13710067Y-17612487D02*
X13748163Y-17612487D01*
X13748163Y-17612487D02*
X13767210Y-17622011D01*
X13767210Y-17622011D02*
X13776734Y-17641059D01*
X13776734Y-17641059D02*
X13776734Y-17660106D01*
X13776734Y-17660106D02*
X13681496Y-17679154D01*
X13948163Y-17745821D02*
X13948163Y-17545821D01*
X13948163Y-17736297D02*
X13929115Y-17745821D01*
X13929115Y-17745821D02*
X13891020Y-17745821D01*
X13891020Y-17745821D02*
X13871972Y-17736297D01*
X13871972Y-17736297D02*
X13862448Y-17726773D01*
X13862448Y-17726773D02*
X13852925Y-17707725D01*
X13852925Y-17707725D02*
X13852925Y-17650582D01*
X13852925Y-17650582D02*
X13862448Y-17631535D01*
X13862448Y-17631535D02*
X13871972Y-17622011D01*
X13871972Y-17622011D02*
X13891020Y-17612487D01*
X13891020Y-17612487D02*
X13929115Y-17612487D01*
X13929115Y-17612487D02*
X13948163Y-17622011D01*
X14024353Y-17822011D02*
X14033877Y-17812487D01*
X14033877Y-17812487D02*
X14052925Y-17783916D01*
X14052925Y-17783916D02*
X14062448Y-17764868D01*
X14062448Y-17764868D02*
X14071972Y-17736297D01*
X14071972Y-17736297D02*
X14081496Y-17688678D01*
X14081496Y-17688678D02*
X14081496Y-17650582D01*
X14081496Y-17650582D02*
X14071972Y-17602963D01*
X14071972Y-17602963D02*
X14062448Y-17574392D01*
X14062448Y-17574392D02*
X14052925Y-17555344D01*
X14052925Y-17555344D02*
X14033877Y-17526773D01*
X14033877Y-17526773D02*
X14024353Y-17517249D01*
D14*
X6992771Y-17859247D02*
X6992771Y-18029427D01*
X6907681Y-17944337D02*
X7077861Y-17944337D01*
D11*
X7443400Y-18035821D02*
X7329114Y-18035821D01*
X7386257Y-18035821D02*
X7386257Y-17835821D01*
X7386257Y-17835821D02*
X7367210Y-17864392D01*
X7367210Y-17864392D02*
X7348162Y-17883440D01*
X7348162Y-17883440D02*
X7329114Y-17892963D01*
X7529114Y-18016773D02*
X7538638Y-18026297D01*
X7538638Y-18026297D02*
X7529114Y-18035821D01*
X7529114Y-18035821D02*
X7519591Y-18026297D01*
X7519591Y-18026297D02*
X7529114Y-18016773D01*
X7529114Y-18016773D02*
X7529114Y-18035821D01*
X7605305Y-17835821D02*
X7738638Y-17835821D01*
X7738638Y-17835821D02*
X7652924Y-18035821D01*
X7852924Y-17835821D02*
X7871972Y-17835821D01*
X7871972Y-17835821D02*
X7891019Y-17845344D01*
X7891019Y-17845344D02*
X7900543Y-17854868D01*
X7900543Y-17854868D02*
X7910067Y-17873916D01*
X7910067Y-17873916D02*
X7919591Y-17912011D01*
X7919591Y-17912011D02*
X7919591Y-17959630D01*
X7919591Y-17959630D02*
X7910067Y-17997725D01*
X7910067Y-17997725D02*
X7900543Y-18016773D01*
X7900543Y-18016773D02*
X7891019Y-18026297D01*
X7891019Y-18026297D02*
X7871972Y-18035821D01*
X7871972Y-18035821D02*
X7852924Y-18035821D01*
X7852924Y-18035821D02*
X7833876Y-18026297D01*
X7833876Y-18026297D02*
X7824353Y-18016773D01*
X7824353Y-18016773D02*
X7814829Y-17997725D01*
X7814829Y-17997725D02*
X7805305Y-17959630D01*
X7805305Y-17959630D02*
X7805305Y-17912011D01*
X7805305Y-17912011D02*
X7814829Y-17873916D01*
X7814829Y-17873916D02*
X7824353Y-17854868D01*
X7824353Y-17854868D02*
X7833876Y-17845344D01*
X7833876Y-17845344D02*
X7852924Y-17835821D01*
X7995781Y-17854868D02*
X8005305Y-17845344D01*
X8005305Y-17845344D02*
X8024353Y-17835821D01*
X8024353Y-17835821D02*
X8071972Y-17835821D01*
X8071972Y-17835821D02*
X8091019Y-17845344D01*
X8091019Y-17845344D02*
X8100543Y-17854868D01*
X8100543Y-17854868D02*
X8110067Y-17873916D01*
X8110067Y-17873916D02*
X8110067Y-17892963D01*
X8110067Y-17892963D02*
X8100543Y-17921535D01*
X8100543Y-17921535D02*
X7986257Y-18035821D01*
X7986257Y-18035821D02*
X8110067Y-18035821D01*
X8195781Y-18035821D02*
X8195781Y-17902487D01*
X8195781Y-17921535D02*
X8205305Y-17912011D01*
X8205305Y-17912011D02*
X8224353Y-17902487D01*
X8224353Y-17902487D02*
X8252924Y-17902487D01*
X8252924Y-17902487D02*
X8271972Y-17912011D01*
X8271972Y-17912011D02*
X8281495Y-17931059D01*
X8281495Y-17931059D02*
X8281495Y-18035821D01*
X8281495Y-17931059D02*
X8291019Y-17912011D01*
X8291019Y-17912011D02*
X8310067Y-17902487D01*
X8310067Y-17902487D02*
X8338638Y-17902487D01*
X8338638Y-17902487D02*
X8357686Y-17912011D01*
X8357686Y-17912011D02*
X8367210Y-17931059D01*
X8367210Y-17931059D02*
X8367210Y-18035821D01*
X8462448Y-18035821D02*
X8462448Y-17902487D01*
X8462448Y-17921535D02*
X8471972Y-17912011D01*
X8471972Y-17912011D02*
X8491019Y-17902487D01*
X8491019Y-17902487D02*
X8519591Y-17902487D01*
X8519591Y-17902487D02*
X8538638Y-17912011D01*
X8538638Y-17912011D02*
X8548162Y-17931059D01*
X8548162Y-17931059D02*
X8548162Y-18035821D01*
X8548162Y-17931059D02*
X8557686Y-17912011D01*
X8557686Y-17912011D02*
X8576734Y-17902487D01*
X8576734Y-17902487D02*
X8605305Y-17902487D01*
X8605305Y-17902487D02*
X8624353Y-17912011D01*
X8624353Y-17912011D02*
X8633877Y-17931059D01*
X8633877Y-17931059D02*
X8633877Y-18035821D01*
X9024353Y-17826297D02*
X8852924Y-18083440D01*
X9281496Y-17835821D02*
X9300543Y-17835821D01*
X9300543Y-17835821D02*
X9319591Y-17845344D01*
X9319591Y-17845344D02*
X9329115Y-17854868D01*
X9329115Y-17854868D02*
X9338639Y-17873916D01*
X9338639Y-17873916D02*
X9348162Y-17912011D01*
X9348162Y-17912011D02*
X9348162Y-17959630D01*
X9348162Y-17959630D02*
X9338639Y-17997725D01*
X9338639Y-17997725D02*
X9329115Y-18016773D01*
X9329115Y-18016773D02*
X9319591Y-18026297D01*
X9319591Y-18026297D02*
X9300543Y-18035821D01*
X9300543Y-18035821D02*
X9281496Y-18035821D01*
X9281496Y-18035821D02*
X9262448Y-18026297D01*
X9262448Y-18026297D02*
X9252924Y-18016773D01*
X9252924Y-18016773D02*
X9243400Y-17997725D01*
X9243400Y-17997725D02*
X9233877Y-17959630D01*
X9233877Y-17959630D02*
X9233877Y-17912011D01*
X9233877Y-17912011D02*
X9243400Y-17873916D01*
X9243400Y-17873916D02*
X9252924Y-17854868D01*
X9252924Y-17854868D02*
X9262448Y-17845344D01*
X9262448Y-17845344D02*
X9281496Y-17835821D01*
X9433877Y-18016773D02*
X9443400Y-18026297D01*
X9443400Y-18026297D02*
X9433877Y-18035821D01*
X9433877Y-18035821D02*
X9424353Y-18026297D01*
X9424353Y-18026297D02*
X9433877Y-18016773D01*
X9433877Y-18016773D02*
X9433877Y-18035821D01*
X9567210Y-17835821D02*
X9586258Y-17835821D01*
X9586258Y-17835821D02*
X9605305Y-17845344D01*
X9605305Y-17845344D02*
X9614829Y-17854868D01*
X9614829Y-17854868D02*
X9624353Y-17873916D01*
X9624353Y-17873916D02*
X9633877Y-17912011D01*
X9633877Y-17912011D02*
X9633877Y-17959630D01*
X9633877Y-17959630D02*
X9624353Y-17997725D01*
X9624353Y-17997725D02*
X9614829Y-18016773D01*
X9614829Y-18016773D02*
X9605305Y-18026297D01*
X9605305Y-18026297D02*
X9586258Y-18035821D01*
X9586258Y-18035821D02*
X9567210Y-18035821D01*
X9567210Y-18035821D02*
X9548162Y-18026297D01*
X9548162Y-18026297D02*
X9538639Y-18016773D01*
X9538639Y-18016773D02*
X9529115Y-17997725D01*
X9529115Y-17997725D02*
X9519591Y-17959630D01*
X9519591Y-17959630D02*
X9519591Y-17912011D01*
X9519591Y-17912011D02*
X9529115Y-17873916D01*
X9529115Y-17873916D02*
X9538639Y-17854868D01*
X9538639Y-17854868D02*
X9548162Y-17845344D01*
X9548162Y-17845344D02*
X9567210Y-17835821D01*
X9805305Y-17835821D02*
X9767210Y-17835821D01*
X9767210Y-17835821D02*
X9748162Y-17845344D01*
X9748162Y-17845344D02*
X9738639Y-17854868D01*
X9738639Y-17854868D02*
X9719591Y-17883440D01*
X9719591Y-17883440D02*
X9710067Y-17921535D01*
X9710067Y-17921535D02*
X9710067Y-17997725D01*
X9710067Y-17997725D02*
X9719591Y-18016773D01*
X9719591Y-18016773D02*
X9729115Y-18026297D01*
X9729115Y-18026297D02*
X9748162Y-18035821D01*
X9748162Y-18035821D02*
X9786258Y-18035821D01*
X9786258Y-18035821D02*
X9805305Y-18026297D01*
X9805305Y-18026297D02*
X9814829Y-18016773D01*
X9814829Y-18016773D02*
X9824353Y-17997725D01*
X9824353Y-17997725D02*
X9824353Y-17950106D01*
X9824353Y-17950106D02*
X9814829Y-17931059D01*
X9814829Y-17931059D02*
X9805305Y-17921535D01*
X9805305Y-17921535D02*
X9786258Y-17912011D01*
X9786258Y-17912011D02*
X9748162Y-17912011D01*
X9748162Y-17912011D02*
X9729115Y-17921535D01*
X9729115Y-17921535D02*
X9719591Y-17931059D01*
X9719591Y-17931059D02*
X9710067Y-17950106D01*
X9891020Y-17835821D02*
X10024353Y-17835821D01*
X10024353Y-17835821D02*
X9938639Y-18035821D01*
X10138639Y-17835821D02*
X10157686Y-17835821D01*
X10157686Y-17835821D02*
X10176734Y-17845344D01*
X10176734Y-17845344D02*
X10186258Y-17854868D01*
X10186258Y-17854868D02*
X10195781Y-17873916D01*
X10195781Y-17873916D02*
X10205305Y-17912011D01*
X10205305Y-17912011D02*
X10205305Y-17959630D01*
X10205305Y-17959630D02*
X10195781Y-17997725D01*
X10195781Y-17997725D02*
X10186258Y-18016773D01*
X10186258Y-18016773D02*
X10176734Y-18026297D01*
X10176734Y-18026297D02*
X10157686Y-18035821D01*
X10157686Y-18035821D02*
X10138639Y-18035821D01*
X10138639Y-18035821D02*
X10119591Y-18026297D01*
X10119591Y-18026297D02*
X10110067Y-18016773D01*
X10110067Y-18016773D02*
X10100543Y-17997725D01*
X10100543Y-17997725D02*
X10091020Y-17959630D01*
X10091020Y-17959630D02*
X10091020Y-17912011D01*
X10091020Y-17912011D02*
X10100543Y-17873916D01*
X10100543Y-17873916D02*
X10110067Y-17854868D01*
X10110067Y-17854868D02*
X10119591Y-17845344D01*
X10119591Y-17845344D02*
X10138639Y-17835821D01*
X10281496Y-17835821D02*
X10281496Y-17873916D01*
X10357686Y-17835821D02*
X10357686Y-17873916D01*
X10652924Y-18112011D02*
X10643401Y-18102487D01*
X10643401Y-18102487D02*
X10624353Y-18073916D01*
X10624353Y-18073916D02*
X10614829Y-18054868D01*
X10614829Y-18054868D02*
X10605305Y-18026297D01*
X10605305Y-18026297D02*
X10595782Y-17978678D01*
X10595782Y-17978678D02*
X10595782Y-17940582D01*
X10595782Y-17940582D02*
X10605305Y-17892963D01*
X10605305Y-17892963D02*
X10614829Y-17864392D01*
X10614829Y-17864392D02*
X10624353Y-17845344D01*
X10624353Y-17845344D02*
X10643401Y-17816773D01*
X10643401Y-17816773D02*
X10652924Y-17807249D01*
X10719591Y-17854868D02*
X10729115Y-17845344D01*
X10729115Y-17845344D02*
X10748162Y-17835821D01*
X10748162Y-17835821D02*
X10795782Y-17835821D01*
X10795782Y-17835821D02*
X10814829Y-17845344D01*
X10814829Y-17845344D02*
X10824353Y-17854868D01*
X10824353Y-17854868D02*
X10833877Y-17873916D01*
X10833877Y-17873916D02*
X10833877Y-17892963D01*
X10833877Y-17892963D02*
X10824353Y-17921535D01*
X10824353Y-17921535D02*
X10710067Y-18035821D01*
X10710067Y-18035821D02*
X10833877Y-18035821D01*
X11024353Y-18035821D02*
X10910067Y-18035821D01*
X10967210Y-18035821D02*
X10967210Y-17835821D01*
X10967210Y-17835821D02*
X10948162Y-17864392D01*
X10948162Y-17864392D02*
X10929115Y-17883440D01*
X10929115Y-17883440D02*
X10910067Y-17892963D01*
X11262448Y-18035821D02*
X11262448Y-17835821D01*
X11348162Y-18035821D02*
X11348162Y-17931059D01*
X11348162Y-17931059D02*
X11338639Y-17912011D01*
X11338639Y-17912011D02*
X11319591Y-17902487D01*
X11319591Y-17902487D02*
X11291020Y-17902487D01*
X11291020Y-17902487D02*
X11271972Y-17912011D01*
X11271972Y-17912011D02*
X11262448Y-17921535D01*
X11471972Y-18035821D02*
X11452924Y-18026297D01*
X11452924Y-18026297D02*
X11443401Y-18016773D01*
X11443401Y-18016773D02*
X11433877Y-17997725D01*
X11433877Y-17997725D02*
X11433877Y-17940582D01*
X11433877Y-17940582D02*
X11443401Y-17921535D01*
X11443401Y-17921535D02*
X11452924Y-17912011D01*
X11452924Y-17912011D02*
X11471972Y-17902487D01*
X11471972Y-17902487D02*
X11500543Y-17902487D01*
X11500543Y-17902487D02*
X11519591Y-17912011D01*
X11519591Y-17912011D02*
X11529115Y-17921535D01*
X11529115Y-17921535D02*
X11538639Y-17940582D01*
X11538639Y-17940582D02*
X11538639Y-17997725D01*
X11538639Y-17997725D02*
X11529115Y-18016773D01*
X11529115Y-18016773D02*
X11519591Y-18026297D01*
X11519591Y-18026297D02*
X11500543Y-18035821D01*
X11500543Y-18035821D02*
X11471972Y-18035821D01*
X11652924Y-18035821D02*
X11633877Y-18026297D01*
X11633877Y-18026297D02*
X11624353Y-18007249D01*
X11624353Y-18007249D02*
X11624353Y-17835821D01*
X11805305Y-18026297D02*
X11786258Y-18035821D01*
X11786258Y-18035821D02*
X11748162Y-18035821D01*
X11748162Y-18035821D02*
X11729115Y-18026297D01*
X11729115Y-18026297D02*
X11719591Y-18007249D01*
X11719591Y-18007249D02*
X11719591Y-17931059D01*
X11719591Y-17931059D02*
X11729115Y-17912011D01*
X11729115Y-17912011D02*
X11748162Y-17902487D01*
X11748162Y-17902487D02*
X11786258Y-17902487D01*
X11786258Y-17902487D02*
X11805305Y-17912011D01*
X11805305Y-17912011D02*
X11814829Y-17931059D01*
X11814829Y-17931059D02*
X11814829Y-17950106D01*
X11814829Y-17950106D02*
X11719591Y-17969154D01*
X11891020Y-18026297D02*
X11910067Y-18035821D01*
X11910067Y-18035821D02*
X11948162Y-18035821D01*
X11948162Y-18035821D02*
X11967210Y-18026297D01*
X11967210Y-18026297D02*
X11976734Y-18007249D01*
X11976734Y-18007249D02*
X11976734Y-17997725D01*
X11976734Y-17997725D02*
X11967210Y-17978678D01*
X11967210Y-17978678D02*
X11948162Y-17969154D01*
X11948162Y-17969154D02*
X11919591Y-17969154D01*
X11919591Y-17969154D02*
X11900543Y-17959630D01*
X11900543Y-17959630D02*
X11891020Y-17940582D01*
X11891020Y-17940582D02*
X11891020Y-17931059D01*
X11891020Y-17931059D02*
X11900543Y-17912011D01*
X11900543Y-17912011D02*
X11919591Y-17902487D01*
X11919591Y-17902487D02*
X11948162Y-17902487D01*
X11948162Y-17902487D02*
X11967210Y-17912011D01*
X12043401Y-18112011D02*
X12052924Y-18102487D01*
X12052924Y-18102487D02*
X12071972Y-18073916D01*
X12071972Y-18073916D02*
X12081496Y-18054868D01*
X12081496Y-18054868D02*
X12091020Y-18026297D01*
X12091020Y-18026297D02*
X12100543Y-17978678D01*
X12100543Y-17978678D02*
X12100543Y-17940582D01*
X12100543Y-17940582D02*
X12091020Y-17892963D01*
X12091020Y-17892963D02*
X12081496Y-17864392D01*
X12081496Y-17864392D02*
X12071972Y-17845344D01*
X12071972Y-17845344D02*
X12052924Y-17816773D01*
X12052924Y-17816773D02*
X12043401Y-17807249D01*
X12405305Y-18112011D02*
X12395782Y-18102487D01*
X12395782Y-18102487D02*
X12376734Y-18073916D01*
X12376734Y-18073916D02*
X12367210Y-18054868D01*
X12367210Y-18054868D02*
X12357686Y-18026297D01*
X12357686Y-18026297D02*
X12348163Y-17978678D01*
X12348163Y-17978678D02*
X12348163Y-17940582D01*
X12348163Y-17940582D02*
X12357686Y-17892963D01*
X12357686Y-17892963D02*
X12367210Y-17864392D01*
X12367210Y-17864392D02*
X12376734Y-17845344D01*
X12376734Y-17845344D02*
X12395782Y-17816773D01*
X12395782Y-17816773D02*
X12405305Y-17807249D01*
X12481496Y-17902487D02*
X12481496Y-18035821D01*
X12481496Y-17921535D02*
X12491020Y-17912011D01*
X12491020Y-17912011D02*
X12510067Y-17902487D01*
X12510067Y-17902487D02*
X12538639Y-17902487D01*
X12538639Y-17902487D02*
X12557686Y-17912011D01*
X12557686Y-17912011D02*
X12567210Y-17931059D01*
X12567210Y-17931059D02*
X12567210Y-18035821D01*
X12691020Y-18035821D02*
X12671972Y-18026297D01*
X12671972Y-18026297D02*
X12662448Y-18016773D01*
X12662448Y-18016773D02*
X12652924Y-17997725D01*
X12652924Y-17997725D02*
X12652924Y-17940582D01*
X12652924Y-17940582D02*
X12662448Y-17921535D01*
X12662448Y-17921535D02*
X12671972Y-17912011D01*
X12671972Y-17912011D02*
X12691020Y-17902487D01*
X12691020Y-17902487D02*
X12719591Y-17902487D01*
X12719591Y-17902487D02*
X12738639Y-17912011D01*
X12738639Y-17912011D02*
X12748163Y-17921535D01*
X12748163Y-17921535D02*
X12757686Y-17940582D01*
X12757686Y-17940582D02*
X12757686Y-17997725D01*
X12757686Y-17997725D02*
X12748163Y-18016773D01*
X12748163Y-18016773D02*
X12738639Y-18026297D01*
X12738639Y-18026297D02*
X12719591Y-18035821D01*
X12719591Y-18035821D02*
X12691020Y-18035821D01*
X12814829Y-17902487D02*
X12891020Y-17902487D01*
X12843401Y-17835821D02*
X12843401Y-18007249D01*
X12843401Y-18007249D02*
X12852924Y-18026297D01*
X12852924Y-18026297D02*
X12871972Y-18035821D01*
X12871972Y-18035821D02*
X12891020Y-18035821D01*
X13110067Y-17902487D02*
X13110067Y-18102487D01*
X13110067Y-17912011D02*
X13129115Y-17902487D01*
X13129115Y-17902487D02*
X13167210Y-17902487D01*
X13167210Y-17902487D02*
X13186258Y-17912011D01*
X13186258Y-17912011D02*
X13195782Y-17921535D01*
X13195782Y-17921535D02*
X13205305Y-17940582D01*
X13205305Y-17940582D02*
X13205305Y-17997725D01*
X13205305Y-17997725D02*
X13195782Y-18016773D01*
X13195782Y-18016773D02*
X13186258Y-18026297D01*
X13186258Y-18026297D02*
X13167210Y-18035821D01*
X13167210Y-18035821D02*
X13129115Y-18035821D01*
X13129115Y-18035821D02*
X13110067Y-18026297D01*
X13319591Y-18035821D02*
X13300544Y-18026297D01*
X13300544Y-18026297D02*
X13291020Y-18007249D01*
X13291020Y-18007249D02*
X13291020Y-17835821D01*
X13481496Y-18035821D02*
X13481496Y-17931059D01*
X13481496Y-17931059D02*
X13471972Y-17912011D01*
X13471972Y-17912011D02*
X13452925Y-17902487D01*
X13452925Y-17902487D02*
X13414829Y-17902487D01*
X13414829Y-17902487D02*
X13395782Y-17912011D01*
X13481496Y-18026297D02*
X13462448Y-18035821D01*
X13462448Y-18035821D02*
X13414829Y-18035821D01*
X13414829Y-18035821D02*
X13395782Y-18026297D01*
X13395782Y-18026297D02*
X13386258Y-18007249D01*
X13386258Y-18007249D02*
X13386258Y-17988201D01*
X13386258Y-17988201D02*
X13395782Y-17969154D01*
X13395782Y-17969154D02*
X13414829Y-17959630D01*
X13414829Y-17959630D02*
X13462448Y-17959630D01*
X13462448Y-17959630D02*
X13481496Y-17950106D01*
X13548163Y-17902487D02*
X13624353Y-17902487D01*
X13576734Y-17835821D02*
X13576734Y-18007249D01*
X13576734Y-18007249D02*
X13586258Y-18026297D01*
X13586258Y-18026297D02*
X13605305Y-18035821D01*
X13605305Y-18035821D02*
X13624353Y-18035821D01*
X13767210Y-18026297D02*
X13748163Y-18035821D01*
X13748163Y-18035821D02*
X13710067Y-18035821D01*
X13710067Y-18035821D02*
X13691020Y-18026297D01*
X13691020Y-18026297D02*
X13681496Y-18007249D01*
X13681496Y-18007249D02*
X13681496Y-17931059D01*
X13681496Y-17931059D02*
X13691020Y-17912011D01*
X13691020Y-17912011D02*
X13710067Y-17902487D01*
X13710067Y-17902487D02*
X13748163Y-17902487D01*
X13748163Y-17902487D02*
X13767210Y-17912011D01*
X13767210Y-17912011D02*
X13776734Y-17931059D01*
X13776734Y-17931059D02*
X13776734Y-17950106D01*
X13776734Y-17950106D02*
X13681496Y-17969154D01*
X13948163Y-18035821D02*
X13948163Y-17835821D01*
X13948163Y-18026297D02*
X13929115Y-18035821D01*
X13929115Y-18035821D02*
X13891020Y-18035821D01*
X13891020Y-18035821D02*
X13871972Y-18026297D01*
X13871972Y-18026297D02*
X13862448Y-18016773D01*
X13862448Y-18016773D02*
X13852925Y-17997725D01*
X13852925Y-17997725D02*
X13852925Y-17940582D01*
X13852925Y-17940582D02*
X13862448Y-17921535D01*
X13862448Y-17921535D02*
X13871972Y-17912011D01*
X13871972Y-17912011D02*
X13891020Y-17902487D01*
X13891020Y-17902487D02*
X13929115Y-17902487D01*
X13929115Y-17902487D02*
X13948163Y-17912011D01*
X14024353Y-18112011D02*
X14033877Y-18102487D01*
X14033877Y-18102487D02*
X14052925Y-18073916D01*
X14052925Y-18073916D02*
X14062448Y-18054868D01*
X14062448Y-18054868D02*
X14071972Y-18026297D01*
X14071972Y-18026297D02*
X14081496Y-17978678D01*
X14081496Y-17978678D02*
X14081496Y-17940582D01*
X14081496Y-17940582D02*
X14071972Y-17892963D01*
X14071972Y-17892963D02*
X14062448Y-17864392D01*
X14062448Y-17864392D02*
X14052925Y-17845344D01*
X14052925Y-17845344D02*
X14033877Y-17816773D01*
X14033877Y-17816773D02*
X14024353Y-17807249D01*
X7048573Y-18305228D02*
X7048573Y-18163805D01*
X6907150Y-18163805D01*
X6907150Y-18305228D01*
X7048573Y-18305228D01*
X7329114Y-18145048D02*
X7338638Y-18135524D01*
X7338638Y-18135524D02*
X7357686Y-18126001D01*
X7357686Y-18126001D02*
X7405305Y-18126001D01*
X7405305Y-18126001D02*
X7424353Y-18135524D01*
X7424353Y-18135524D02*
X7433876Y-18145048D01*
X7433876Y-18145048D02*
X7443400Y-18164096D01*
X7443400Y-18164096D02*
X7443400Y-18183143D01*
X7443400Y-18183143D02*
X7433876Y-18211715D01*
X7433876Y-18211715D02*
X7319591Y-18326001D01*
X7319591Y-18326001D02*
X7443400Y-18326001D01*
X7529114Y-18306953D02*
X7538638Y-18316477D01*
X7538638Y-18316477D02*
X7529114Y-18326001D01*
X7529114Y-18326001D02*
X7519591Y-18316477D01*
X7519591Y-18316477D02*
X7529114Y-18306953D01*
X7529114Y-18306953D02*
X7529114Y-18326001D01*
X7614829Y-18145048D02*
X7624353Y-18135524D01*
X7624353Y-18135524D02*
X7643400Y-18126001D01*
X7643400Y-18126001D02*
X7691019Y-18126001D01*
X7691019Y-18126001D02*
X7710067Y-18135524D01*
X7710067Y-18135524D02*
X7719591Y-18145048D01*
X7719591Y-18145048D02*
X7729114Y-18164096D01*
X7729114Y-18164096D02*
X7729114Y-18183143D01*
X7729114Y-18183143D02*
X7719591Y-18211715D01*
X7719591Y-18211715D02*
X7605305Y-18326001D01*
X7605305Y-18326001D02*
X7729114Y-18326001D01*
X7852924Y-18126001D02*
X7871972Y-18126001D01*
X7871972Y-18126001D02*
X7891019Y-18135524D01*
X7891019Y-18135524D02*
X7900543Y-18145048D01*
X7900543Y-18145048D02*
X7910067Y-18164096D01*
X7910067Y-18164096D02*
X7919591Y-18202191D01*
X7919591Y-18202191D02*
X7919591Y-18249810D01*
X7919591Y-18249810D02*
X7910067Y-18287905D01*
X7910067Y-18287905D02*
X7900543Y-18306953D01*
X7900543Y-18306953D02*
X7891019Y-18316477D01*
X7891019Y-18316477D02*
X7871972Y-18326001D01*
X7871972Y-18326001D02*
X7852924Y-18326001D01*
X7852924Y-18326001D02*
X7833876Y-18316477D01*
X7833876Y-18316477D02*
X7824353Y-18306953D01*
X7824353Y-18306953D02*
X7814829Y-18287905D01*
X7814829Y-18287905D02*
X7805305Y-18249810D01*
X7805305Y-18249810D02*
X7805305Y-18202191D01*
X7805305Y-18202191D02*
X7814829Y-18164096D01*
X7814829Y-18164096D02*
X7824353Y-18145048D01*
X7824353Y-18145048D02*
X7833876Y-18135524D01*
X7833876Y-18135524D02*
X7852924Y-18126001D01*
X8043400Y-18126001D02*
X8062448Y-18126001D01*
X8062448Y-18126001D02*
X8081495Y-18135524D01*
X8081495Y-18135524D02*
X8091019Y-18145048D01*
X8091019Y-18145048D02*
X8100543Y-18164096D01*
X8100543Y-18164096D02*
X8110067Y-18202191D01*
X8110067Y-18202191D02*
X8110067Y-18249810D01*
X8110067Y-18249810D02*
X8100543Y-18287905D01*
X8100543Y-18287905D02*
X8091019Y-18306953D01*
X8091019Y-18306953D02*
X8081495Y-18316477D01*
X8081495Y-18316477D02*
X8062448Y-18326001D01*
X8062448Y-18326001D02*
X8043400Y-18326001D01*
X8043400Y-18326001D02*
X8024353Y-18316477D01*
X8024353Y-18316477D02*
X8014829Y-18306953D01*
X8014829Y-18306953D02*
X8005305Y-18287905D01*
X8005305Y-18287905D02*
X7995781Y-18249810D01*
X7995781Y-18249810D02*
X7995781Y-18202191D01*
X7995781Y-18202191D02*
X8005305Y-18164096D01*
X8005305Y-18164096D02*
X8014829Y-18145048D01*
X8014829Y-18145048D02*
X8024353Y-18135524D01*
X8024353Y-18135524D02*
X8043400Y-18126001D01*
X8195781Y-18326001D02*
X8195781Y-18192667D01*
X8195781Y-18211715D02*
X8205305Y-18202191D01*
X8205305Y-18202191D02*
X8224353Y-18192667D01*
X8224353Y-18192667D02*
X8252924Y-18192667D01*
X8252924Y-18192667D02*
X8271972Y-18202191D01*
X8271972Y-18202191D02*
X8281495Y-18221239D01*
X8281495Y-18221239D02*
X8281495Y-18326001D01*
X8281495Y-18221239D02*
X8291019Y-18202191D01*
X8291019Y-18202191D02*
X8310067Y-18192667D01*
X8310067Y-18192667D02*
X8338638Y-18192667D01*
X8338638Y-18192667D02*
X8357686Y-18202191D01*
X8357686Y-18202191D02*
X8367210Y-18221239D01*
X8367210Y-18221239D02*
X8367210Y-18326001D01*
X8462448Y-18326001D02*
X8462448Y-18192667D01*
X8462448Y-18211715D02*
X8471972Y-18202191D01*
X8471972Y-18202191D02*
X8491019Y-18192667D01*
X8491019Y-18192667D02*
X8519591Y-18192667D01*
X8519591Y-18192667D02*
X8538638Y-18202191D01*
X8538638Y-18202191D02*
X8548162Y-18221239D01*
X8548162Y-18221239D02*
X8548162Y-18326001D01*
X8548162Y-18221239D02*
X8557686Y-18202191D01*
X8557686Y-18202191D02*
X8576734Y-18192667D01*
X8576734Y-18192667D02*
X8605305Y-18192667D01*
X8605305Y-18192667D02*
X8624353Y-18202191D01*
X8624353Y-18202191D02*
X8633877Y-18221239D01*
X8633877Y-18221239D02*
X8633877Y-18326001D01*
X9024353Y-18116477D02*
X8852924Y-18373620D01*
X9281496Y-18126001D02*
X9300543Y-18126001D01*
X9300543Y-18126001D02*
X9319591Y-18135524D01*
X9319591Y-18135524D02*
X9329115Y-18145048D01*
X9329115Y-18145048D02*
X9338639Y-18164096D01*
X9338639Y-18164096D02*
X9348162Y-18202191D01*
X9348162Y-18202191D02*
X9348162Y-18249810D01*
X9348162Y-18249810D02*
X9338639Y-18287905D01*
X9338639Y-18287905D02*
X9329115Y-18306953D01*
X9329115Y-18306953D02*
X9319591Y-18316477D01*
X9319591Y-18316477D02*
X9300543Y-18326001D01*
X9300543Y-18326001D02*
X9281496Y-18326001D01*
X9281496Y-18326001D02*
X9262448Y-18316477D01*
X9262448Y-18316477D02*
X9252924Y-18306953D01*
X9252924Y-18306953D02*
X9243400Y-18287905D01*
X9243400Y-18287905D02*
X9233877Y-18249810D01*
X9233877Y-18249810D02*
X9233877Y-18202191D01*
X9233877Y-18202191D02*
X9243400Y-18164096D01*
X9243400Y-18164096D02*
X9252924Y-18145048D01*
X9252924Y-18145048D02*
X9262448Y-18135524D01*
X9262448Y-18135524D02*
X9281496Y-18126001D01*
X9433877Y-18306953D02*
X9443400Y-18316477D01*
X9443400Y-18316477D02*
X9433877Y-18326001D01*
X9433877Y-18326001D02*
X9424353Y-18316477D01*
X9424353Y-18316477D02*
X9433877Y-18306953D01*
X9433877Y-18306953D02*
X9433877Y-18326001D01*
X9567210Y-18126001D02*
X9586258Y-18126001D01*
X9586258Y-18126001D02*
X9605305Y-18135524D01*
X9605305Y-18135524D02*
X9614829Y-18145048D01*
X9614829Y-18145048D02*
X9624353Y-18164096D01*
X9624353Y-18164096D02*
X9633877Y-18202191D01*
X9633877Y-18202191D02*
X9633877Y-18249810D01*
X9633877Y-18249810D02*
X9624353Y-18287905D01*
X9624353Y-18287905D02*
X9614829Y-18306953D01*
X9614829Y-18306953D02*
X9605305Y-18316477D01*
X9605305Y-18316477D02*
X9586258Y-18326001D01*
X9586258Y-18326001D02*
X9567210Y-18326001D01*
X9567210Y-18326001D02*
X9548162Y-18316477D01*
X9548162Y-18316477D02*
X9538639Y-18306953D01*
X9538639Y-18306953D02*
X9529115Y-18287905D01*
X9529115Y-18287905D02*
X9519591Y-18249810D01*
X9519591Y-18249810D02*
X9519591Y-18202191D01*
X9519591Y-18202191D02*
X9529115Y-18164096D01*
X9529115Y-18164096D02*
X9538639Y-18145048D01*
X9538639Y-18145048D02*
X9548162Y-18135524D01*
X9548162Y-18135524D02*
X9567210Y-18126001D01*
X9748162Y-18211715D02*
X9729115Y-18202191D01*
X9729115Y-18202191D02*
X9719591Y-18192667D01*
X9719591Y-18192667D02*
X9710067Y-18173620D01*
X9710067Y-18173620D02*
X9710067Y-18164096D01*
X9710067Y-18164096D02*
X9719591Y-18145048D01*
X9719591Y-18145048D02*
X9729115Y-18135524D01*
X9729115Y-18135524D02*
X9748162Y-18126001D01*
X9748162Y-18126001D02*
X9786258Y-18126001D01*
X9786258Y-18126001D02*
X9805305Y-18135524D01*
X9805305Y-18135524D02*
X9814829Y-18145048D01*
X9814829Y-18145048D02*
X9824353Y-18164096D01*
X9824353Y-18164096D02*
X9824353Y-18173620D01*
X9824353Y-18173620D02*
X9814829Y-18192667D01*
X9814829Y-18192667D02*
X9805305Y-18202191D01*
X9805305Y-18202191D02*
X9786258Y-18211715D01*
X9786258Y-18211715D02*
X9748162Y-18211715D01*
X9748162Y-18211715D02*
X9729115Y-18221239D01*
X9729115Y-18221239D02*
X9719591Y-18230762D01*
X9719591Y-18230762D02*
X9710067Y-18249810D01*
X9710067Y-18249810D02*
X9710067Y-18287905D01*
X9710067Y-18287905D02*
X9719591Y-18306953D01*
X9719591Y-18306953D02*
X9729115Y-18316477D01*
X9729115Y-18316477D02*
X9748162Y-18326001D01*
X9748162Y-18326001D02*
X9786258Y-18326001D01*
X9786258Y-18326001D02*
X9805305Y-18316477D01*
X9805305Y-18316477D02*
X9814829Y-18306953D01*
X9814829Y-18306953D02*
X9824353Y-18287905D01*
X9824353Y-18287905D02*
X9824353Y-18249810D01*
X9824353Y-18249810D02*
X9814829Y-18230762D01*
X9814829Y-18230762D02*
X9805305Y-18221239D01*
X9805305Y-18221239D02*
X9786258Y-18211715D01*
X9995781Y-18126001D02*
X9957686Y-18126001D01*
X9957686Y-18126001D02*
X9938639Y-18135524D01*
X9938639Y-18135524D02*
X9929115Y-18145048D01*
X9929115Y-18145048D02*
X9910067Y-18173620D01*
X9910067Y-18173620D02*
X9900543Y-18211715D01*
X9900543Y-18211715D02*
X9900543Y-18287905D01*
X9900543Y-18287905D02*
X9910067Y-18306953D01*
X9910067Y-18306953D02*
X9919591Y-18316477D01*
X9919591Y-18316477D02*
X9938639Y-18326001D01*
X9938639Y-18326001D02*
X9976734Y-18326001D01*
X9976734Y-18326001D02*
X9995781Y-18316477D01*
X9995781Y-18316477D02*
X10005305Y-18306953D01*
X10005305Y-18306953D02*
X10014829Y-18287905D01*
X10014829Y-18287905D02*
X10014829Y-18240286D01*
X10014829Y-18240286D02*
X10005305Y-18221239D01*
X10005305Y-18221239D02*
X9995781Y-18211715D01*
X9995781Y-18211715D02*
X9976734Y-18202191D01*
X9976734Y-18202191D02*
X9938639Y-18202191D01*
X9938639Y-18202191D02*
X9919591Y-18211715D01*
X9919591Y-18211715D02*
X9910067Y-18221239D01*
X9910067Y-18221239D02*
X9900543Y-18240286D01*
X10186258Y-18126001D02*
X10148162Y-18126001D01*
X10148162Y-18126001D02*
X10129115Y-18135524D01*
X10129115Y-18135524D02*
X10119591Y-18145048D01*
X10119591Y-18145048D02*
X10100543Y-18173620D01*
X10100543Y-18173620D02*
X10091020Y-18211715D01*
X10091020Y-18211715D02*
X10091020Y-18287905D01*
X10091020Y-18287905D02*
X10100543Y-18306953D01*
X10100543Y-18306953D02*
X10110067Y-18316477D01*
X10110067Y-18316477D02*
X10129115Y-18326001D01*
X10129115Y-18326001D02*
X10167210Y-18326001D01*
X10167210Y-18326001D02*
X10186258Y-18316477D01*
X10186258Y-18316477D02*
X10195781Y-18306953D01*
X10195781Y-18306953D02*
X10205305Y-18287905D01*
X10205305Y-18287905D02*
X10205305Y-18240286D01*
X10205305Y-18240286D02*
X10195781Y-18221239D01*
X10195781Y-18221239D02*
X10186258Y-18211715D01*
X10186258Y-18211715D02*
X10167210Y-18202191D01*
X10167210Y-18202191D02*
X10129115Y-18202191D01*
X10129115Y-18202191D02*
X10110067Y-18211715D01*
X10110067Y-18211715D02*
X10100543Y-18221239D01*
X10100543Y-18221239D02*
X10091020Y-18240286D01*
X10281496Y-18126001D02*
X10281496Y-18164096D01*
X10357686Y-18126001D02*
X10357686Y-18164096D01*
X10652924Y-18402191D02*
X10643401Y-18392667D01*
X10643401Y-18392667D02*
X10624353Y-18364096D01*
X10624353Y-18364096D02*
X10614829Y-18345048D01*
X10614829Y-18345048D02*
X10605305Y-18316477D01*
X10605305Y-18316477D02*
X10595782Y-18268858D01*
X10595782Y-18268858D02*
X10595782Y-18230762D01*
X10595782Y-18230762D02*
X10605305Y-18183143D01*
X10605305Y-18183143D02*
X10614829Y-18154572D01*
X10614829Y-18154572D02*
X10624353Y-18135524D01*
X10624353Y-18135524D02*
X10643401Y-18106953D01*
X10643401Y-18106953D02*
X10652924Y-18097429D01*
X10814829Y-18192667D02*
X10814829Y-18326001D01*
X10767210Y-18116477D02*
X10719591Y-18259334D01*
X10719591Y-18259334D02*
X10843401Y-18259334D01*
X11071972Y-18326001D02*
X11071972Y-18126001D01*
X11157686Y-18326001D02*
X11157686Y-18221239D01*
X11157686Y-18221239D02*
X11148163Y-18202191D01*
X11148163Y-18202191D02*
X11129115Y-18192667D01*
X11129115Y-18192667D02*
X11100543Y-18192667D01*
X11100543Y-18192667D02*
X11081496Y-18202191D01*
X11081496Y-18202191D02*
X11071972Y-18211715D01*
X11281496Y-18326001D02*
X11262448Y-18316477D01*
X11262448Y-18316477D02*
X11252924Y-18306953D01*
X11252924Y-18306953D02*
X11243401Y-18287905D01*
X11243401Y-18287905D02*
X11243401Y-18230762D01*
X11243401Y-18230762D02*
X11252924Y-18211715D01*
X11252924Y-18211715D02*
X11262448Y-18202191D01*
X11262448Y-18202191D02*
X11281496Y-18192667D01*
X11281496Y-18192667D02*
X11310067Y-18192667D01*
X11310067Y-18192667D02*
X11329115Y-18202191D01*
X11329115Y-18202191D02*
X11338639Y-18211715D01*
X11338639Y-18211715D02*
X11348162Y-18230762D01*
X11348162Y-18230762D02*
X11348162Y-18287905D01*
X11348162Y-18287905D02*
X11338639Y-18306953D01*
X11338639Y-18306953D02*
X11329115Y-18316477D01*
X11329115Y-18316477D02*
X11310067Y-18326001D01*
X11310067Y-18326001D02*
X11281496Y-18326001D01*
X11462448Y-18326001D02*
X11443401Y-18316477D01*
X11443401Y-18316477D02*
X11433877Y-18297429D01*
X11433877Y-18297429D02*
X11433877Y-18126001D01*
X11614829Y-18316477D02*
X11595782Y-18326001D01*
X11595782Y-18326001D02*
X11557686Y-18326001D01*
X11557686Y-18326001D02*
X11538639Y-18316477D01*
X11538639Y-18316477D02*
X11529115Y-18297429D01*
X11529115Y-18297429D02*
X11529115Y-18221239D01*
X11529115Y-18221239D02*
X11538639Y-18202191D01*
X11538639Y-18202191D02*
X11557686Y-18192667D01*
X11557686Y-18192667D02*
X11595782Y-18192667D01*
X11595782Y-18192667D02*
X11614829Y-18202191D01*
X11614829Y-18202191D02*
X11624353Y-18221239D01*
X11624353Y-18221239D02*
X11624353Y-18240286D01*
X11624353Y-18240286D02*
X11529115Y-18259334D01*
X11700543Y-18316477D02*
X11719591Y-18326001D01*
X11719591Y-18326001D02*
X11757686Y-18326001D01*
X11757686Y-18326001D02*
X11776734Y-18316477D01*
X11776734Y-18316477D02*
X11786258Y-18297429D01*
X11786258Y-18297429D02*
X11786258Y-18287905D01*
X11786258Y-18287905D02*
X11776734Y-18268858D01*
X11776734Y-18268858D02*
X11757686Y-18259334D01*
X11757686Y-18259334D02*
X11729115Y-18259334D01*
X11729115Y-18259334D02*
X11710067Y-18249810D01*
X11710067Y-18249810D02*
X11700543Y-18230762D01*
X11700543Y-18230762D02*
X11700543Y-18221239D01*
X11700543Y-18221239D02*
X11710067Y-18202191D01*
X11710067Y-18202191D02*
X11729115Y-18192667D01*
X11729115Y-18192667D02*
X11757686Y-18192667D01*
X11757686Y-18192667D02*
X11776734Y-18202191D01*
X11852924Y-18402191D02*
X11862448Y-18392667D01*
X11862448Y-18392667D02*
X11881496Y-18364096D01*
X11881496Y-18364096D02*
X11891020Y-18345048D01*
X11891020Y-18345048D02*
X11900543Y-18316477D01*
X11900543Y-18316477D02*
X11910067Y-18268858D01*
X11910067Y-18268858D02*
X11910067Y-18230762D01*
X11910067Y-18230762D02*
X11900543Y-18183143D01*
X11900543Y-18183143D02*
X11891020Y-18154572D01*
X11891020Y-18154572D02*
X11881496Y-18135524D01*
X11881496Y-18135524D02*
X11862448Y-18106953D01*
X11862448Y-18106953D02*
X11852924Y-18097429D01*
X12214829Y-18402191D02*
X12205305Y-18392667D01*
X12205305Y-18392667D02*
X12186258Y-18364096D01*
X12186258Y-18364096D02*
X12176734Y-18345048D01*
X12176734Y-18345048D02*
X12167210Y-18316477D01*
X12167210Y-18316477D02*
X12157686Y-18268858D01*
X12157686Y-18268858D02*
X12157686Y-18230762D01*
X12157686Y-18230762D02*
X12167210Y-18183143D01*
X12167210Y-18183143D02*
X12176734Y-18154572D01*
X12176734Y-18154572D02*
X12186258Y-18135524D01*
X12186258Y-18135524D02*
X12205305Y-18106953D01*
X12205305Y-18106953D02*
X12214829Y-18097429D01*
X12291020Y-18192667D02*
X12291020Y-18326001D01*
X12291020Y-18211715D02*
X12300543Y-18202191D01*
X12300543Y-18202191D02*
X12319591Y-18192667D01*
X12319591Y-18192667D02*
X12348163Y-18192667D01*
X12348163Y-18192667D02*
X12367210Y-18202191D01*
X12367210Y-18202191D02*
X12376734Y-18221239D01*
X12376734Y-18221239D02*
X12376734Y-18326001D01*
X12500543Y-18326001D02*
X12481496Y-18316477D01*
X12481496Y-18316477D02*
X12471972Y-18306953D01*
X12471972Y-18306953D02*
X12462448Y-18287905D01*
X12462448Y-18287905D02*
X12462448Y-18230762D01*
X12462448Y-18230762D02*
X12471972Y-18211715D01*
X12471972Y-18211715D02*
X12481496Y-18202191D01*
X12481496Y-18202191D02*
X12500543Y-18192667D01*
X12500543Y-18192667D02*
X12529115Y-18192667D01*
X12529115Y-18192667D02*
X12548163Y-18202191D01*
X12548163Y-18202191D02*
X12557686Y-18211715D01*
X12557686Y-18211715D02*
X12567210Y-18230762D01*
X12567210Y-18230762D02*
X12567210Y-18287905D01*
X12567210Y-18287905D02*
X12557686Y-18306953D01*
X12557686Y-18306953D02*
X12548163Y-18316477D01*
X12548163Y-18316477D02*
X12529115Y-18326001D01*
X12529115Y-18326001D02*
X12500543Y-18326001D01*
X12624353Y-18192667D02*
X12700543Y-18192667D01*
X12652924Y-18126001D02*
X12652924Y-18297429D01*
X12652924Y-18297429D02*
X12662448Y-18316477D01*
X12662448Y-18316477D02*
X12681496Y-18326001D01*
X12681496Y-18326001D02*
X12700543Y-18326001D01*
X12919591Y-18192667D02*
X12919591Y-18392667D01*
X12919591Y-18202191D02*
X12938639Y-18192667D01*
X12938639Y-18192667D02*
X12976734Y-18192667D01*
X12976734Y-18192667D02*
X12995782Y-18202191D01*
X12995782Y-18202191D02*
X13005305Y-18211715D01*
X13005305Y-18211715D02*
X13014829Y-18230762D01*
X13014829Y-18230762D02*
X13014829Y-18287905D01*
X13014829Y-18287905D02*
X13005305Y-18306953D01*
X13005305Y-18306953D02*
X12995782Y-18316477D01*
X12995782Y-18316477D02*
X12976734Y-18326001D01*
X12976734Y-18326001D02*
X12938639Y-18326001D01*
X12938639Y-18326001D02*
X12919591Y-18316477D01*
X13129115Y-18326001D02*
X13110067Y-18316477D01*
X13110067Y-18316477D02*
X13100544Y-18297429D01*
X13100544Y-18297429D02*
X13100544Y-18126001D01*
X13291020Y-18326001D02*
X13291020Y-18221239D01*
X13291020Y-18221239D02*
X13281496Y-18202191D01*
X13281496Y-18202191D02*
X13262448Y-18192667D01*
X13262448Y-18192667D02*
X13224353Y-18192667D01*
X13224353Y-18192667D02*
X13205305Y-18202191D01*
X13291020Y-18316477D02*
X13271972Y-18326001D01*
X13271972Y-18326001D02*
X13224353Y-18326001D01*
X13224353Y-18326001D02*
X13205305Y-18316477D01*
X13205305Y-18316477D02*
X13195782Y-18297429D01*
X13195782Y-18297429D02*
X13195782Y-18278381D01*
X13195782Y-18278381D02*
X13205305Y-18259334D01*
X13205305Y-18259334D02*
X13224353Y-18249810D01*
X13224353Y-18249810D02*
X13271972Y-18249810D01*
X13271972Y-18249810D02*
X13291020Y-18240286D01*
X13357686Y-18192667D02*
X13433877Y-18192667D01*
X13386258Y-18126001D02*
X13386258Y-18297429D01*
X13386258Y-18297429D02*
X13395782Y-18316477D01*
X13395782Y-18316477D02*
X13414829Y-18326001D01*
X13414829Y-18326001D02*
X13433877Y-18326001D01*
X13576734Y-18316477D02*
X13557686Y-18326001D01*
X13557686Y-18326001D02*
X13519591Y-18326001D01*
X13519591Y-18326001D02*
X13500544Y-18316477D01*
X13500544Y-18316477D02*
X13491020Y-18297429D01*
X13491020Y-18297429D02*
X13491020Y-18221239D01*
X13491020Y-18221239D02*
X13500544Y-18202191D01*
X13500544Y-18202191D02*
X13519591Y-18192667D01*
X13519591Y-18192667D02*
X13557686Y-18192667D01*
X13557686Y-18192667D02*
X13576734Y-18202191D01*
X13576734Y-18202191D02*
X13586258Y-18221239D01*
X13586258Y-18221239D02*
X13586258Y-18240286D01*
X13586258Y-18240286D02*
X13491020Y-18259334D01*
X13757686Y-18326001D02*
X13757686Y-18126001D01*
X13757686Y-18316477D02*
X13738639Y-18326001D01*
X13738639Y-18326001D02*
X13700544Y-18326001D01*
X13700544Y-18326001D02*
X13681496Y-18316477D01*
X13681496Y-18316477D02*
X13671972Y-18306953D01*
X13671972Y-18306953D02*
X13662448Y-18287905D01*
X13662448Y-18287905D02*
X13662448Y-18230762D01*
X13662448Y-18230762D02*
X13671972Y-18211715D01*
X13671972Y-18211715D02*
X13681496Y-18202191D01*
X13681496Y-18202191D02*
X13700544Y-18192667D01*
X13700544Y-18192667D02*
X13738639Y-18192667D01*
X13738639Y-18192667D02*
X13757686Y-18202191D01*
X13833877Y-18402191D02*
X13843401Y-18392667D01*
X13843401Y-18392667D02*
X13862448Y-18364096D01*
X13862448Y-18364096D02*
X13871972Y-18345048D01*
X13871972Y-18345048D02*
X13881496Y-18316477D01*
X13881496Y-18316477D02*
X13891020Y-18268858D01*
X13891020Y-18268858D02*
X13891020Y-18230762D01*
X13891020Y-18230762D02*
X13881496Y-18183143D01*
X13881496Y-18183143D02*
X13871972Y-18154572D01*
X13871972Y-18154572D02*
X13862448Y-18135524D01*
X13862448Y-18135524D02*
X13843401Y-18106953D01*
X13843401Y-18106953D02*
X13833877Y-18097429D01*
X6977861Y-18654517D02*
X7077861Y-18554517D01*
X6977861Y-18454517D01*
X6877861Y-18554517D01*
X6977861Y-18654517D01*
X7319591Y-18446001D02*
X7443400Y-18446001D01*
X7443400Y-18446001D02*
X7376733Y-18522191D01*
X7376733Y-18522191D02*
X7405305Y-18522191D01*
X7405305Y-18522191D02*
X7424353Y-18531715D01*
X7424353Y-18531715D02*
X7433876Y-18541239D01*
X7433876Y-18541239D02*
X7443400Y-18560286D01*
X7443400Y-18560286D02*
X7443400Y-18607905D01*
X7443400Y-18607905D02*
X7433876Y-18626953D01*
X7433876Y-18626953D02*
X7424353Y-18636477D01*
X7424353Y-18636477D02*
X7405305Y-18646001D01*
X7405305Y-18646001D02*
X7348162Y-18646001D01*
X7348162Y-18646001D02*
X7329114Y-18636477D01*
X7329114Y-18636477D02*
X7319591Y-18626953D01*
X7529114Y-18626953D02*
X7538638Y-18636477D01*
X7538638Y-18636477D02*
X7529114Y-18646001D01*
X7529114Y-18646001D02*
X7519591Y-18636477D01*
X7519591Y-18636477D02*
X7529114Y-18626953D01*
X7529114Y-18626953D02*
X7529114Y-18646001D01*
X7662448Y-18446001D02*
X7681495Y-18446001D01*
X7681495Y-18446001D02*
X7700543Y-18455524D01*
X7700543Y-18455524D02*
X7710067Y-18465048D01*
X7710067Y-18465048D02*
X7719591Y-18484096D01*
X7719591Y-18484096D02*
X7729114Y-18522191D01*
X7729114Y-18522191D02*
X7729114Y-18569810D01*
X7729114Y-18569810D02*
X7719591Y-18607905D01*
X7719591Y-18607905D02*
X7710067Y-18626953D01*
X7710067Y-18626953D02*
X7700543Y-18636477D01*
X7700543Y-18636477D02*
X7681495Y-18646001D01*
X7681495Y-18646001D02*
X7662448Y-18646001D01*
X7662448Y-18646001D02*
X7643400Y-18636477D01*
X7643400Y-18636477D02*
X7633876Y-18626953D01*
X7633876Y-18626953D02*
X7624353Y-18607905D01*
X7624353Y-18607905D02*
X7614829Y-18569810D01*
X7614829Y-18569810D02*
X7614829Y-18522191D01*
X7614829Y-18522191D02*
X7624353Y-18484096D01*
X7624353Y-18484096D02*
X7633876Y-18465048D01*
X7633876Y-18465048D02*
X7643400Y-18455524D01*
X7643400Y-18455524D02*
X7662448Y-18446001D01*
X7852924Y-18446001D02*
X7871972Y-18446001D01*
X7871972Y-18446001D02*
X7891019Y-18455524D01*
X7891019Y-18455524D02*
X7900543Y-18465048D01*
X7900543Y-18465048D02*
X7910067Y-18484096D01*
X7910067Y-18484096D02*
X7919591Y-18522191D01*
X7919591Y-18522191D02*
X7919591Y-18569810D01*
X7919591Y-18569810D02*
X7910067Y-18607905D01*
X7910067Y-18607905D02*
X7900543Y-18626953D01*
X7900543Y-18626953D02*
X7891019Y-18636477D01*
X7891019Y-18636477D02*
X7871972Y-18646001D01*
X7871972Y-18646001D02*
X7852924Y-18646001D01*
X7852924Y-18646001D02*
X7833876Y-18636477D01*
X7833876Y-18636477D02*
X7824353Y-18626953D01*
X7824353Y-18626953D02*
X7814829Y-18607905D01*
X7814829Y-18607905D02*
X7805305Y-18569810D01*
X7805305Y-18569810D02*
X7805305Y-18522191D01*
X7805305Y-18522191D02*
X7814829Y-18484096D01*
X7814829Y-18484096D02*
X7824353Y-18465048D01*
X7824353Y-18465048D02*
X7833876Y-18455524D01*
X7833876Y-18455524D02*
X7852924Y-18446001D01*
X8043400Y-18446001D02*
X8062448Y-18446001D01*
X8062448Y-18446001D02*
X8081495Y-18455524D01*
X8081495Y-18455524D02*
X8091019Y-18465048D01*
X8091019Y-18465048D02*
X8100543Y-18484096D01*
X8100543Y-18484096D02*
X8110067Y-18522191D01*
X8110067Y-18522191D02*
X8110067Y-18569810D01*
X8110067Y-18569810D02*
X8100543Y-18607905D01*
X8100543Y-18607905D02*
X8091019Y-18626953D01*
X8091019Y-18626953D02*
X8081495Y-18636477D01*
X8081495Y-18636477D02*
X8062448Y-18646001D01*
X8062448Y-18646001D02*
X8043400Y-18646001D01*
X8043400Y-18646001D02*
X8024353Y-18636477D01*
X8024353Y-18636477D02*
X8014829Y-18626953D01*
X8014829Y-18626953D02*
X8005305Y-18607905D01*
X8005305Y-18607905D02*
X7995781Y-18569810D01*
X7995781Y-18569810D02*
X7995781Y-18522191D01*
X7995781Y-18522191D02*
X8005305Y-18484096D01*
X8005305Y-18484096D02*
X8014829Y-18465048D01*
X8014829Y-18465048D02*
X8024353Y-18455524D01*
X8024353Y-18455524D02*
X8043400Y-18446001D01*
X8195781Y-18646001D02*
X8195781Y-18512667D01*
X8195781Y-18531715D02*
X8205305Y-18522191D01*
X8205305Y-18522191D02*
X8224353Y-18512667D01*
X8224353Y-18512667D02*
X8252924Y-18512667D01*
X8252924Y-18512667D02*
X8271972Y-18522191D01*
X8271972Y-18522191D02*
X8281495Y-18541239D01*
X8281495Y-18541239D02*
X8281495Y-18646001D01*
X8281495Y-18541239D02*
X8291019Y-18522191D01*
X8291019Y-18522191D02*
X8310067Y-18512667D01*
X8310067Y-18512667D02*
X8338638Y-18512667D01*
X8338638Y-18512667D02*
X8357686Y-18522191D01*
X8357686Y-18522191D02*
X8367210Y-18541239D01*
X8367210Y-18541239D02*
X8367210Y-18646001D01*
X8462448Y-18646001D02*
X8462448Y-18512667D01*
X8462448Y-18531715D02*
X8471972Y-18522191D01*
X8471972Y-18522191D02*
X8491019Y-18512667D01*
X8491019Y-18512667D02*
X8519591Y-18512667D01*
X8519591Y-18512667D02*
X8538638Y-18522191D01*
X8538638Y-18522191D02*
X8548162Y-18541239D01*
X8548162Y-18541239D02*
X8548162Y-18646001D01*
X8548162Y-18541239D02*
X8557686Y-18522191D01*
X8557686Y-18522191D02*
X8576734Y-18512667D01*
X8576734Y-18512667D02*
X8605305Y-18512667D01*
X8605305Y-18512667D02*
X8624353Y-18522191D01*
X8624353Y-18522191D02*
X8633877Y-18541239D01*
X8633877Y-18541239D02*
X8633877Y-18646001D01*
X9024353Y-18436477D02*
X8852924Y-18693620D01*
X9281496Y-18446001D02*
X9300543Y-18446001D01*
X9300543Y-18446001D02*
X9319591Y-18455524D01*
X9319591Y-18455524D02*
X9329115Y-18465048D01*
X9329115Y-18465048D02*
X9338639Y-18484096D01*
X9338639Y-18484096D02*
X9348162Y-18522191D01*
X9348162Y-18522191D02*
X9348162Y-18569810D01*
X9348162Y-18569810D02*
X9338639Y-18607905D01*
X9338639Y-18607905D02*
X9329115Y-18626953D01*
X9329115Y-18626953D02*
X9319591Y-18636477D01*
X9319591Y-18636477D02*
X9300543Y-18646001D01*
X9300543Y-18646001D02*
X9281496Y-18646001D01*
X9281496Y-18646001D02*
X9262448Y-18636477D01*
X9262448Y-18636477D02*
X9252924Y-18626953D01*
X9252924Y-18626953D02*
X9243400Y-18607905D01*
X9243400Y-18607905D02*
X9233877Y-18569810D01*
X9233877Y-18569810D02*
X9233877Y-18522191D01*
X9233877Y-18522191D02*
X9243400Y-18484096D01*
X9243400Y-18484096D02*
X9252924Y-18465048D01*
X9252924Y-18465048D02*
X9262448Y-18455524D01*
X9262448Y-18455524D02*
X9281496Y-18446001D01*
X9433877Y-18626953D02*
X9443400Y-18636477D01*
X9443400Y-18636477D02*
X9433877Y-18646001D01*
X9433877Y-18646001D02*
X9424353Y-18636477D01*
X9424353Y-18636477D02*
X9433877Y-18626953D01*
X9433877Y-18626953D02*
X9433877Y-18646001D01*
X9633877Y-18646001D02*
X9519591Y-18646001D01*
X9576734Y-18646001D02*
X9576734Y-18446001D01*
X9576734Y-18446001D02*
X9557686Y-18474572D01*
X9557686Y-18474572D02*
X9538639Y-18493620D01*
X9538639Y-18493620D02*
X9519591Y-18503143D01*
X9824353Y-18646001D02*
X9710067Y-18646001D01*
X9767210Y-18646001D02*
X9767210Y-18446001D01*
X9767210Y-18446001D02*
X9748162Y-18474572D01*
X9748162Y-18474572D02*
X9729115Y-18493620D01*
X9729115Y-18493620D02*
X9710067Y-18503143D01*
X9938639Y-18531715D02*
X9919591Y-18522191D01*
X9919591Y-18522191D02*
X9910067Y-18512667D01*
X9910067Y-18512667D02*
X9900543Y-18493620D01*
X9900543Y-18493620D02*
X9900543Y-18484096D01*
X9900543Y-18484096D02*
X9910067Y-18465048D01*
X9910067Y-18465048D02*
X9919591Y-18455524D01*
X9919591Y-18455524D02*
X9938639Y-18446001D01*
X9938639Y-18446001D02*
X9976734Y-18446001D01*
X9976734Y-18446001D02*
X9995781Y-18455524D01*
X9995781Y-18455524D02*
X10005305Y-18465048D01*
X10005305Y-18465048D02*
X10014829Y-18484096D01*
X10014829Y-18484096D02*
X10014829Y-18493620D01*
X10014829Y-18493620D02*
X10005305Y-18512667D01*
X10005305Y-18512667D02*
X9995781Y-18522191D01*
X9995781Y-18522191D02*
X9976734Y-18531715D01*
X9976734Y-18531715D02*
X9938639Y-18531715D01*
X9938639Y-18531715D02*
X9919591Y-18541239D01*
X9919591Y-18541239D02*
X9910067Y-18550762D01*
X9910067Y-18550762D02*
X9900543Y-18569810D01*
X9900543Y-18569810D02*
X9900543Y-18607905D01*
X9900543Y-18607905D02*
X9910067Y-18626953D01*
X9910067Y-18626953D02*
X9919591Y-18636477D01*
X9919591Y-18636477D02*
X9938639Y-18646001D01*
X9938639Y-18646001D02*
X9976734Y-18646001D01*
X9976734Y-18646001D02*
X9995781Y-18636477D01*
X9995781Y-18636477D02*
X10005305Y-18626953D01*
X10005305Y-18626953D02*
X10014829Y-18607905D01*
X10014829Y-18607905D02*
X10014829Y-18569810D01*
X10014829Y-18569810D02*
X10005305Y-18550762D01*
X10005305Y-18550762D02*
X9995781Y-18541239D01*
X9995781Y-18541239D02*
X9976734Y-18531715D01*
X10205305Y-18646001D02*
X10091020Y-18646001D01*
X10148162Y-18646001D02*
X10148162Y-18446001D01*
X10148162Y-18446001D02*
X10129115Y-18474572D01*
X10129115Y-18474572D02*
X10110067Y-18493620D01*
X10110067Y-18493620D02*
X10091020Y-18503143D01*
X10281496Y-18446001D02*
X10281496Y-18484096D01*
X10357686Y-18446001D02*
X10357686Y-18484096D01*
X10652924Y-18722191D02*
X10643401Y-18712667D01*
X10643401Y-18712667D02*
X10624353Y-18684096D01*
X10624353Y-18684096D02*
X10614829Y-18665048D01*
X10614829Y-18665048D02*
X10605305Y-18636477D01*
X10605305Y-18636477D02*
X10595782Y-18588858D01*
X10595782Y-18588858D02*
X10595782Y-18550762D01*
X10595782Y-18550762D02*
X10605305Y-18503143D01*
X10605305Y-18503143D02*
X10614829Y-18474572D01*
X10614829Y-18474572D02*
X10624353Y-18455524D01*
X10624353Y-18455524D02*
X10643401Y-18426953D01*
X10643401Y-18426953D02*
X10652924Y-18417429D01*
X10757686Y-18531715D02*
X10738639Y-18522191D01*
X10738639Y-18522191D02*
X10729115Y-18512667D01*
X10729115Y-18512667D02*
X10719591Y-18493620D01*
X10719591Y-18493620D02*
X10719591Y-18484096D01*
X10719591Y-18484096D02*
X10729115Y-18465048D01*
X10729115Y-18465048D02*
X10738639Y-18455524D01*
X10738639Y-18455524D02*
X10757686Y-18446001D01*
X10757686Y-18446001D02*
X10795782Y-18446001D01*
X10795782Y-18446001D02*
X10814829Y-18455524D01*
X10814829Y-18455524D02*
X10824353Y-18465048D01*
X10824353Y-18465048D02*
X10833877Y-18484096D01*
X10833877Y-18484096D02*
X10833877Y-18493620D01*
X10833877Y-18493620D02*
X10824353Y-18512667D01*
X10824353Y-18512667D02*
X10814829Y-18522191D01*
X10814829Y-18522191D02*
X10795782Y-18531715D01*
X10795782Y-18531715D02*
X10757686Y-18531715D01*
X10757686Y-18531715D02*
X10738639Y-18541239D01*
X10738639Y-18541239D02*
X10729115Y-18550762D01*
X10729115Y-18550762D02*
X10719591Y-18569810D01*
X10719591Y-18569810D02*
X10719591Y-18607905D01*
X10719591Y-18607905D02*
X10729115Y-18626953D01*
X10729115Y-18626953D02*
X10738639Y-18636477D01*
X10738639Y-18636477D02*
X10757686Y-18646001D01*
X10757686Y-18646001D02*
X10795782Y-18646001D01*
X10795782Y-18646001D02*
X10814829Y-18636477D01*
X10814829Y-18636477D02*
X10824353Y-18626953D01*
X10824353Y-18626953D02*
X10833877Y-18607905D01*
X10833877Y-18607905D02*
X10833877Y-18569810D01*
X10833877Y-18569810D02*
X10824353Y-18550762D01*
X10824353Y-18550762D02*
X10814829Y-18541239D01*
X10814829Y-18541239D02*
X10795782Y-18531715D01*
X11005305Y-18512667D02*
X11005305Y-18646001D01*
X10957686Y-18436477D02*
X10910067Y-18579334D01*
X10910067Y-18579334D02*
X11033877Y-18579334D01*
X11262448Y-18646001D02*
X11262448Y-18446001D01*
X11348162Y-18646001D02*
X11348162Y-18541239D01*
X11348162Y-18541239D02*
X11338639Y-18522191D01*
X11338639Y-18522191D02*
X11319591Y-18512667D01*
X11319591Y-18512667D02*
X11291020Y-18512667D01*
X11291020Y-18512667D02*
X11271972Y-18522191D01*
X11271972Y-18522191D02*
X11262448Y-18531715D01*
X11471972Y-18646001D02*
X11452924Y-18636477D01*
X11452924Y-18636477D02*
X11443401Y-18626953D01*
X11443401Y-18626953D02*
X11433877Y-18607905D01*
X11433877Y-18607905D02*
X11433877Y-18550762D01*
X11433877Y-18550762D02*
X11443401Y-18531715D01*
X11443401Y-18531715D02*
X11452924Y-18522191D01*
X11452924Y-18522191D02*
X11471972Y-18512667D01*
X11471972Y-18512667D02*
X11500543Y-18512667D01*
X11500543Y-18512667D02*
X11519591Y-18522191D01*
X11519591Y-18522191D02*
X11529115Y-18531715D01*
X11529115Y-18531715D02*
X11538639Y-18550762D01*
X11538639Y-18550762D02*
X11538639Y-18607905D01*
X11538639Y-18607905D02*
X11529115Y-18626953D01*
X11529115Y-18626953D02*
X11519591Y-18636477D01*
X11519591Y-18636477D02*
X11500543Y-18646001D01*
X11500543Y-18646001D02*
X11471972Y-18646001D01*
X11652924Y-18646001D02*
X11633877Y-18636477D01*
X11633877Y-18636477D02*
X11624353Y-18617429D01*
X11624353Y-18617429D02*
X11624353Y-18446001D01*
X11805305Y-18636477D02*
X11786258Y-18646001D01*
X11786258Y-18646001D02*
X11748162Y-18646001D01*
X11748162Y-18646001D02*
X11729115Y-18636477D01*
X11729115Y-18636477D02*
X11719591Y-18617429D01*
X11719591Y-18617429D02*
X11719591Y-18541239D01*
X11719591Y-18541239D02*
X11729115Y-18522191D01*
X11729115Y-18522191D02*
X11748162Y-18512667D01*
X11748162Y-18512667D02*
X11786258Y-18512667D01*
X11786258Y-18512667D02*
X11805305Y-18522191D01*
X11805305Y-18522191D02*
X11814829Y-18541239D01*
X11814829Y-18541239D02*
X11814829Y-18560286D01*
X11814829Y-18560286D02*
X11719591Y-18579334D01*
X11891020Y-18636477D02*
X11910067Y-18646001D01*
X11910067Y-18646001D02*
X11948162Y-18646001D01*
X11948162Y-18646001D02*
X11967210Y-18636477D01*
X11967210Y-18636477D02*
X11976734Y-18617429D01*
X11976734Y-18617429D02*
X11976734Y-18607905D01*
X11976734Y-18607905D02*
X11967210Y-18588858D01*
X11967210Y-18588858D02*
X11948162Y-18579334D01*
X11948162Y-18579334D02*
X11919591Y-18579334D01*
X11919591Y-18579334D02*
X11900543Y-18569810D01*
X11900543Y-18569810D02*
X11891020Y-18550762D01*
X11891020Y-18550762D02*
X11891020Y-18541239D01*
X11891020Y-18541239D02*
X11900543Y-18522191D01*
X11900543Y-18522191D02*
X11919591Y-18512667D01*
X11919591Y-18512667D02*
X11948162Y-18512667D01*
X11948162Y-18512667D02*
X11967210Y-18522191D01*
X12043401Y-18722191D02*
X12052924Y-18712667D01*
X12052924Y-18712667D02*
X12071972Y-18684096D01*
X12071972Y-18684096D02*
X12081496Y-18665048D01*
X12081496Y-18665048D02*
X12091020Y-18636477D01*
X12091020Y-18636477D02*
X12100543Y-18588858D01*
X12100543Y-18588858D02*
X12100543Y-18550762D01*
X12100543Y-18550762D02*
X12091020Y-18503143D01*
X12091020Y-18503143D02*
X12081496Y-18474572D01*
X12081496Y-18474572D02*
X12071972Y-18455524D01*
X12071972Y-18455524D02*
X12052924Y-18426953D01*
X12052924Y-18426953D02*
X12043401Y-18417429D01*
X12405305Y-18722191D02*
X12395782Y-18712667D01*
X12395782Y-18712667D02*
X12376734Y-18684096D01*
X12376734Y-18684096D02*
X12367210Y-18665048D01*
X12367210Y-18665048D02*
X12357686Y-18636477D01*
X12357686Y-18636477D02*
X12348163Y-18588858D01*
X12348163Y-18588858D02*
X12348163Y-18550762D01*
X12348163Y-18550762D02*
X12357686Y-18503143D01*
X12357686Y-18503143D02*
X12367210Y-18474572D01*
X12367210Y-18474572D02*
X12376734Y-18455524D01*
X12376734Y-18455524D02*
X12395782Y-18426953D01*
X12395782Y-18426953D02*
X12405305Y-18417429D01*
X12481496Y-18512667D02*
X12481496Y-18646001D01*
X12481496Y-18531715D02*
X12491020Y-18522191D01*
X12491020Y-18522191D02*
X12510067Y-18512667D01*
X12510067Y-18512667D02*
X12538639Y-18512667D01*
X12538639Y-18512667D02*
X12557686Y-18522191D01*
X12557686Y-18522191D02*
X12567210Y-18541239D01*
X12567210Y-18541239D02*
X12567210Y-18646001D01*
X12691020Y-18646001D02*
X12671972Y-18636477D01*
X12671972Y-18636477D02*
X12662448Y-18626953D01*
X12662448Y-18626953D02*
X12652924Y-18607905D01*
X12652924Y-18607905D02*
X12652924Y-18550762D01*
X12652924Y-18550762D02*
X12662448Y-18531715D01*
X12662448Y-18531715D02*
X12671972Y-18522191D01*
X12671972Y-18522191D02*
X12691020Y-18512667D01*
X12691020Y-18512667D02*
X12719591Y-18512667D01*
X12719591Y-18512667D02*
X12738639Y-18522191D01*
X12738639Y-18522191D02*
X12748163Y-18531715D01*
X12748163Y-18531715D02*
X12757686Y-18550762D01*
X12757686Y-18550762D02*
X12757686Y-18607905D01*
X12757686Y-18607905D02*
X12748163Y-18626953D01*
X12748163Y-18626953D02*
X12738639Y-18636477D01*
X12738639Y-18636477D02*
X12719591Y-18646001D01*
X12719591Y-18646001D02*
X12691020Y-18646001D01*
X12814829Y-18512667D02*
X12891020Y-18512667D01*
X12843401Y-18446001D02*
X12843401Y-18617429D01*
X12843401Y-18617429D02*
X12852924Y-18636477D01*
X12852924Y-18636477D02*
X12871972Y-18646001D01*
X12871972Y-18646001D02*
X12891020Y-18646001D01*
X13110067Y-18512667D02*
X13110067Y-18712667D01*
X13110067Y-18522191D02*
X13129115Y-18512667D01*
X13129115Y-18512667D02*
X13167210Y-18512667D01*
X13167210Y-18512667D02*
X13186258Y-18522191D01*
X13186258Y-18522191D02*
X13195782Y-18531715D01*
X13195782Y-18531715D02*
X13205305Y-18550762D01*
X13205305Y-18550762D02*
X13205305Y-18607905D01*
X13205305Y-18607905D02*
X13195782Y-18626953D01*
X13195782Y-18626953D02*
X13186258Y-18636477D01*
X13186258Y-18636477D02*
X13167210Y-18646001D01*
X13167210Y-18646001D02*
X13129115Y-18646001D01*
X13129115Y-18646001D02*
X13110067Y-18636477D01*
X13319591Y-18646001D02*
X13300544Y-18636477D01*
X13300544Y-18636477D02*
X13291020Y-18617429D01*
X13291020Y-18617429D02*
X13291020Y-18446001D01*
X13481496Y-18646001D02*
X13481496Y-18541239D01*
X13481496Y-18541239D02*
X13471972Y-18522191D01*
X13471972Y-18522191D02*
X13452925Y-18512667D01*
X13452925Y-18512667D02*
X13414829Y-18512667D01*
X13414829Y-18512667D02*
X13395782Y-18522191D01*
X13481496Y-18636477D02*
X13462448Y-18646001D01*
X13462448Y-18646001D02*
X13414829Y-18646001D01*
X13414829Y-18646001D02*
X13395782Y-18636477D01*
X13395782Y-18636477D02*
X13386258Y-18617429D01*
X13386258Y-18617429D02*
X13386258Y-18598381D01*
X13386258Y-18598381D02*
X13395782Y-18579334D01*
X13395782Y-18579334D02*
X13414829Y-18569810D01*
X13414829Y-18569810D02*
X13462448Y-18569810D01*
X13462448Y-18569810D02*
X13481496Y-18560286D01*
X13548163Y-18512667D02*
X13624353Y-18512667D01*
X13576734Y-18446001D02*
X13576734Y-18617429D01*
X13576734Y-18617429D02*
X13586258Y-18636477D01*
X13586258Y-18636477D02*
X13605305Y-18646001D01*
X13605305Y-18646001D02*
X13624353Y-18646001D01*
X13767210Y-18636477D02*
X13748163Y-18646001D01*
X13748163Y-18646001D02*
X13710067Y-18646001D01*
X13710067Y-18646001D02*
X13691020Y-18636477D01*
X13691020Y-18636477D02*
X13681496Y-18617429D01*
X13681496Y-18617429D02*
X13681496Y-18541239D01*
X13681496Y-18541239D02*
X13691020Y-18522191D01*
X13691020Y-18522191D02*
X13710067Y-18512667D01*
X13710067Y-18512667D02*
X13748163Y-18512667D01*
X13748163Y-18512667D02*
X13767210Y-18522191D01*
X13767210Y-18522191D02*
X13776734Y-18541239D01*
X13776734Y-18541239D02*
X13776734Y-18560286D01*
X13776734Y-18560286D02*
X13681496Y-18579334D01*
X13948163Y-18646001D02*
X13948163Y-18446001D01*
X13948163Y-18636477D02*
X13929115Y-18646001D01*
X13929115Y-18646001D02*
X13891020Y-18646001D01*
X13891020Y-18646001D02*
X13871972Y-18636477D01*
X13871972Y-18636477D02*
X13862448Y-18626953D01*
X13862448Y-18626953D02*
X13852925Y-18607905D01*
X13852925Y-18607905D02*
X13852925Y-18550762D01*
X13852925Y-18550762D02*
X13862448Y-18531715D01*
X13862448Y-18531715D02*
X13871972Y-18522191D01*
X13871972Y-18522191D02*
X13891020Y-18512667D01*
X13891020Y-18512667D02*
X13929115Y-18512667D01*
X13929115Y-18512667D02*
X13948163Y-18522191D01*
X14024353Y-18722191D02*
X14033877Y-18712667D01*
X14033877Y-18712667D02*
X14052925Y-18684096D01*
X14052925Y-18684096D02*
X14062448Y-18665048D01*
X14062448Y-18665048D02*
X14071972Y-18636477D01*
X14071972Y-18636477D02*
X14081496Y-18588858D01*
X14081496Y-18588858D02*
X14081496Y-18550762D01*
X14081496Y-18550762D02*
X14071972Y-18503143D01*
X14071972Y-18503143D02*
X14062448Y-18474572D01*
X14062448Y-18474572D02*
X14052925Y-18455524D01*
X14052925Y-18455524D02*
X14033877Y-18426953D01*
X14033877Y-18426953D02*
X14024353Y-18417429D01*
X6877861Y-18774517D02*
X7077861Y-18974517D01*
X7077861Y-18774517D02*
X6877861Y-18974517D01*
X7077861Y-18874517D02*
G75*
G03*
X7077861Y-18874517I-100000J0D01*
G01*
X7319591Y-18766001D02*
X7443400Y-18766001D01*
X7443400Y-18766001D02*
X7376733Y-18842191D01*
X7376733Y-18842191D02*
X7405305Y-18842191D01*
X7405305Y-18842191D02*
X7424353Y-18851715D01*
X7424353Y-18851715D02*
X7433876Y-18861239D01*
X7433876Y-18861239D02*
X7443400Y-18880286D01*
X7443400Y-18880286D02*
X7443400Y-18927905D01*
X7443400Y-18927905D02*
X7433876Y-18946953D01*
X7433876Y-18946953D02*
X7424353Y-18956477D01*
X7424353Y-18956477D02*
X7405305Y-18966001D01*
X7405305Y-18966001D02*
X7348162Y-18966001D01*
X7348162Y-18966001D02*
X7329114Y-18956477D01*
X7329114Y-18956477D02*
X7319591Y-18946953D01*
X7529114Y-18946953D02*
X7538638Y-18956477D01*
X7538638Y-18956477D02*
X7529114Y-18966001D01*
X7529114Y-18966001D02*
X7519591Y-18956477D01*
X7519591Y-18956477D02*
X7529114Y-18946953D01*
X7529114Y-18946953D02*
X7529114Y-18966001D01*
X7614829Y-18785048D02*
X7624353Y-18775524D01*
X7624353Y-18775524D02*
X7643400Y-18766001D01*
X7643400Y-18766001D02*
X7691019Y-18766001D01*
X7691019Y-18766001D02*
X7710067Y-18775524D01*
X7710067Y-18775524D02*
X7719591Y-18785048D01*
X7719591Y-18785048D02*
X7729114Y-18804096D01*
X7729114Y-18804096D02*
X7729114Y-18823143D01*
X7729114Y-18823143D02*
X7719591Y-18851715D01*
X7719591Y-18851715D02*
X7605305Y-18966001D01*
X7605305Y-18966001D02*
X7729114Y-18966001D01*
X7852924Y-18766001D02*
X7871972Y-18766001D01*
X7871972Y-18766001D02*
X7891019Y-18775524D01*
X7891019Y-18775524D02*
X7900543Y-18785048D01*
X7900543Y-18785048D02*
X7910067Y-18804096D01*
X7910067Y-18804096D02*
X7919591Y-18842191D01*
X7919591Y-18842191D02*
X7919591Y-18889810D01*
X7919591Y-18889810D02*
X7910067Y-18927905D01*
X7910067Y-18927905D02*
X7900543Y-18946953D01*
X7900543Y-18946953D02*
X7891019Y-18956477D01*
X7891019Y-18956477D02*
X7871972Y-18966001D01*
X7871972Y-18966001D02*
X7852924Y-18966001D01*
X7852924Y-18966001D02*
X7833876Y-18956477D01*
X7833876Y-18956477D02*
X7824353Y-18946953D01*
X7824353Y-18946953D02*
X7814829Y-18927905D01*
X7814829Y-18927905D02*
X7805305Y-18889810D01*
X7805305Y-18889810D02*
X7805305Y-18842191D01*
X7805305Y-18842191D02*
X7814829Y-18804096D01*
X7814829Y-18804096D02*
X7824353Y-18785048D01*
X7824353Y-18785048D02*
X7833876Y-18775524D01*
X7833876Y-18775524D02*
X7852924Y-18766001D01*
X8043400Y-18766001D02*
X8062448Y-18766001D01*
X8062448Y-18766001D02*
X8081495Y-18775524D01*
X8081495Y-18775524D02*
X8091019Y-18785048D01*
X8091019Y-18785048D02*
X8100543Y-18804096D01*
X8100543Y-18804096D02*
X8110067Y-18842191D01*
X8110067Y-18842191D02*
X8110067Y-18889810D01*
X8110067Y-18889810D02*
X8100543Y-18927905D01*
X8100543Y-18927905D02*
X8091019Y-18946953D01*
X8091019Y-18946953D02*
X8081495Y-18956477D01*
X8081495Y-18956477D02*
X8062448Y-18966001D01*
X8062448Y-18966001D02*
X8043400Y-18966001D01*
X8043400Y-18966001D02*
X8024353Y-18956477D01*
X8024353Y-18956477D02*
X8014829Y-18946953D01*
X8014829Y-18946953D02*
X8005305Y-18927905D01*
X8005305Y-18927905D02*
X7995781Y-18889810D01*
X7995781Y-18889810D02*
X7995781Y-18842191D01*
X7995781Y-18842191D02*
X8005305Y-18804096D01*
X8005305Y-18804096D02*
X8014829Y-18785048D01*
X8014829Y-18785048D02*
X8024353Y-18775524D01*
X8024353Y-18775524D02*
X8043400Y-18766001D01*
X8195781Y-18966001D02*
X8195781Y-18832667D01*
X8195781Y-18851715D02*
X8205305Y-18842191D01*
X8205305Y-18842191D02*
X8224353Y-18832667D01*
X8224353Y-18832667D02*
X8252924Y-18832667D01*
X8252924Y-18832667D02*
X8271972Y-18842191D01*
X8271972Y-18842191D02*
X8281495Y-18861239D01*
X8281495Y-18861239D02*
X8281495Y-18966001D01*
X8281495Y-18861239D02*
X8291019Y-18842191D01*
X8291019Y-18842191D02*
X8310067Y-18832667D01*
X8310067Y-18832667D02*
X8338638Y-18832667D01*
X8338638Y-18832667D02*
X8357686Y-18842191D01*
X8357686Y-18842191D02*
X8367210Y-18861239D01*
X8367210Y-18861239D02*
X8367210Y-18966001D01*
X8462448Y-18966001D02*
X8462448Y-18832667D01*
X8462448Y-18851715D02*
X8471972Y-18842191D01*
X8471972Y-18842191D02*
X8491019Y-18832667D01*
X8491019Y-18832667D02*
X8519591Y-18832667D01*
X8519591Y-18832667D02*
X8538638Y-18842191D01*
X8538638Y-18842191D02*
X8548162Y-18861239D01*
X8548162Y-18861239D02*
X8548162Y-18966001D01*
X8548162Y-18861239D02*
X8557686Y-18842191D01*
X8557686Y-18842191D02*
X8576734Y-18832667D01*
X8576734Y-18832667D02*
X8605305Y-18832667D01*
X8605305Y-18832667D02*
X8624353Y-18842191D01*
X8624353Y-18842191D02*
X8633877Y-18861239D01*
X8633877Y-18861239D02*
X8633877Y-18966001D01*
X9024353Y-18756477D02*
X8852924Y-19013620D01*
X9281496Y-18766001D02*
X9300543Y-18766001D01*
X9300543Y-18766001D02*
X9319591Y-18775524D01*
X9319591Y-18775524D02*
X9329115Y-18785048D01*
X9329115Y-18785048D02*
X9338639Y-18804096D01*
X9338639Y-18804096D02*
X9348162Y-18842191D01*
X9348162Y-18842191D02*
X9348162Y-18889810D01*
X9348162Y-18889810D02*
X9338639Y-18927905D01*
X9338639Y-18927905D02*
X9329115Y-18946953D01*
X9329115Y-18946953D02*
X9319591Y-18956477D01*
X9319591Y-18956477D02*
X9300543Y-18966001D01*
X9300543Y-18966001D02*
X9281496Y-18966001D01*
X9281496Y-18966001D02*
X9262448Y-18956477D01*
X9262448Y-18956477D02*
X9252924Y-18946953D01*
X9252924Y-18946953D02*
X9243400Y-18927905D01*
X9243400Y-18927905D02*
X9233877Y-18889810D01*
X9233877Y-18889810D02*
X9233877Y-18842191D01*
X9233877Y-18842191D02*
X9243400Y-18804096D01*
X9243400Y-18804096D02*
X9252924Y-18785048D01*
X9252924Y-18785048D02*
X9262448Y-18775524D01*
X9262448Y-18775524D02*
X9281496Y-18766001D01*
X9433877Y-18946953D02*
X9443400Y-18956477D01*
X9443400Y-18956477D02*
X9433877Y-18966001D01*
X9433877Y-18966001D02*
X9424353Y-18956477D01*
X9424353Y-18956477D02*
X9433877Y-18946953D01*
X9433877Y-18946953D02*
X9433877Y-18966001D01*
X9633877Y-18966001D02*
X9519591Y-18966001D01*
X9576734Y-18966001D02*
X9576734Y-18766001D01*
X9576734Y-18766001D02*
X9557686Y-18794572D01*
X9557686Y-18794572D02*
X9538639Y-18813620D01*
X9538639Y-18813620D02*
X9519591Y-18823143D01*
X9710067Y-18785048D02*
X9719591Y-18775524D01*
X9719591Y-18775524D02*
X9738639Y-18766001D01*
X9738639Y-18766001D02*
X9786258Y-18766001D01*
X9786258Y-18766001D02*
X9805305Y-18775524D01*
X9805305Y-18775524D02*
X9814829Y-18785048D01*
X9814829Y-18785048D02*
X9824353Y-18804096D01*
X9824353Y-18804096D02*
X9824353Y-18823143D01*
X9824353Y-18823143D02*
X9814829Y-18851715D01*
X9814829Y-18851715D02*
X9700543Y-18966001D01*
X9700543Y-18966001D02*
X9824353Y-18966001D01*
X9995781Y-18766001D02*
X9957686Y-18766001D01*
X9957686Y-18766001D02*
X9938639Y-18775524D01*
X9938639Y-18775524D02*
X9929115Y-18785048D01*
X9929115Y-18785048D02*
X9910067Y-18813620D01*
X9910067Y-18813620D02*
X9900543Y-18851715D01*
X9900543Y-18851715D02*
X9900543Y-18927905D01*
X9900543Y-18927905D02*
X9910067Y-18946953D01*
X9910067Y-18946953D02*
X9919591Y-18956477D01*
X9919591Y-18956477D02*
X9938639Y-18966001D01*
X9938639Y-18966001D02*
X9976734Y-18966001D01*
X9976734Y-18966001D02*
X9995781Y-18956477D01*
X9995781Y-18956477D02*
X10005305Y-18946953D01*
X10005305Y-18946953D02*
X10014829Y-18927905D01*
X10014829Y-18927905D02*
X10014829Y-18880286D01*
X10014829Y-18880286D02*
X10005305Y-18861239D01*
X10005305Y-18861239D02*
X9995781Y-18851715D01*
X9995781Y-18851715D02*
X9976734Y-18842191D01*
X9976734Y-18842191D02*
X9938639Y-18842191D01*
X9938639Y-18842191D02*
X9919591Y-18851715D01*
X9919591Y-18851715D02*
X9910067Y-18861239D01*
X9910067Y-18861239D02*
X9900543Y-18880286D01*
X10138639Y-18766001D02*
X10157686Y-18766001D01*
X10157686Y-18766001D02*
X10176734Y-18775524D01*
X10176734Y-18775524D02*
X10186258Y-18785048D01*
X10186258Y-18785048D02*
X10195781Y-18804096D01*
X10195781Y-18804096D02*
X10205305Y-18842191D01*
X10205305Y-18842191D02*
X10205305Y-18889810D01*
X10205305Y-18889810D02*
X10195781Y-18927905D01*
X10195781Y-18927905D02*
X10186258Y-18946953D01*
X10186258Y-18946953D02*
X10176734Y-18956477D01*
X10176734Y-18956477D02*
X10157686Y-18966001D01*
X10157686Y-18966001D02*
X10138639Y-18966001D01*
X10138639Y-18966001D02*
X10119591Y-18956477D01*
X10119591Y-18956477D02*
X10110067Y-18946953D01*
X10110067Y-18946953D02*
X10100543Y-18927905D01*
X10100543Y-18927905D02*
X10091020Y-18889810D01*
X10091020Y-18889810D02*
X10091020Y-18842191D01*
X10091020Y-18842191D02*
X10100543Y-18804096D01*
X10100543Y-18804096D02*
X10110067Y-18785048D01*
X10110067Y-18785048D02*
X10119591Y-18775524D01*
X10119591Y-18775524D02*
X10138639Y-18766001D01*
X10281496Y-18766001D02*
X10281496Y-18804096D01*
X10357686Y-18766001D02*
X10357686Y-18804096D01*
X10652924Y-19042191D02*
X10643401Y-19032667D01*
X10643401Y-19032667D02*
X10624353Y-19004096D01*
X10624353Y-19004096D02*
X10614829Y-18985048D01*
X10614829Y-18985048D02*
X10605305Y-18956477D01*
X10605305Y-18956477D02*
X10595782Y-18908858D01*
X10595782Y-18908858D02*
X10595782Y-18870762D01*
X10595782Y-18870762D02*
X10605305Y-18823143D01*
X10605305Y-18823143D02*
X10614829Y-18794572D01*
X10614829Y-18794572D02*
X10624353Y-18775524D01*
X10624353Y-18775524D02*
X10643401Y-18746953D01*
X10643401Y-18746953D02*
X10652924Y-18737429D01*
X10757686Y-18851715D02*
X10738639Y-18842191D01*
X10738639Y-18842191D02*
X10729115Y-18832667D01*
X10729115Y-18832667D02*
X10719591Y-18813620D01*
X10719591Y-18813620D02*
X10719591Y-18804096D01*
X10719591Y-18804096D02*
X10729115Y-18785048D01*
X10729115Y-18785048D02*
X10738639Y-18775524D01*
X10738639Y-18775524D02*
X10757686Y-18766001D01*
X10757686Y-18766001D02*
X10795782Y-18766001D01*
X10795782Y-18766001D02*
X10814829Y-18775524D01*
X10814829Y-18775524D02*
X10824353Y-18785048D01*
X10824353Y-18785048D02*
X10833877Y-18804096D01*
X10833877Y-18804096D02*
X10833877Y-18813620D01*
X10833877Y-18813620D02*
X10824353Y-18832667D01*
X10824353Y-18832667D02*
X10814829Y-18842191D01*
X10814829Y-18842191D02*
X10795782Y-18851715D01*
X10795782Y-18851715D02*
X10757686Y-18851715D01*
X10757686Y-18851715D02*
X10738639Y-18861239D01*
X10738639Y-18861239D02*
X10729115Y-18870762D01*
X10729115Y-18870762D02*
X10719591Y-18889810D01*
X10719591Y-18889810D02*
X10719591Y-18927905D01*
X10719591Y-18927905D02*
X10729115Y-18946953D01*
X10729115Y-18946953D02*
X10738639Y-18956477D01*
X10738639Y-18956477D02*
X10757686Y-18966001D01*
X10757686Y-18966001D02*
X10795782Y-18966001D01*
X10795782Y-18966001D02*
X10814829Y-18956477D01*
X10814829Y-18956477D02*
X10824353Y-18946953D01*
X10824353Y-18946953D02*
X10833877Y-18927905D01*
X10833877Y-18927905D02*
X10833877Y-18889810D01*
X10833877Y-18889810D02*
X10824353Y-18870762D01*
X10824353Y-18870762D02*
X10814829Y-18861239D01*
X10814829Y-18861239D02*
X10795782Y-18851715D01*
X11071972Y-18966001D02*
X11071972Y-18766001D01*
X11157686Y-18966001D02*
X11157686Y-18861239D01*
X11157686Y-18861239D02*
X11148163Y-18842191D01*
X11148163Y-18842191D02*
X11129115Y-18832667D01*
X11129115Y-18832667D02*
X11100543Y-18832667D01*
X11100543Y-18832667D02*
X11081496Y-18842191D01*
X11081496Y-18842191D02*
X11071972Y-18851715D01*
X11281496Y-18966001D02*
X11262448Y-18956477D01*
X11262448Y-18956477D02*
X11252924Y-18946953D01*
X11252924Y-18946953D02*
X11243401Y-18927905D01*
X11243401Y-18927905D02*
X11243401Y-18870762D01*
X11243401Y-18870762D02*
X11252924Y-18851715D01*
X11252924Y-18851715D02*
X11262448Y-18842191D01*
X11262448Y-18842191D02*
X11281496Y-18832667D01*
X11281496Y-18832667D02*
X11310067Y-18832667D01*
X11310067Y-18832667D02*
X11329115Y-18842191D01*
X11329115Y-18842191D02*
X11338639Y-18851715D01*
X11338639Y-18851715D02*
X11348162Y-18870762D01*
X11348162Y-18870762D02*
X11348162Y-18927905D01*
X11348162Y-18927905D02*
X11338639Y-18946953D01*
X11338639Y-18946953D02*
X11329115Y-18956477D01*
X11329115Y-18956477D02*
X11310067Y-18966001D01*
X11310067Y-18966001D02*
X11281496Y-18966001D01*
X11462448Y-18966001D02*
X11443401Y-18956477D01*
X11443401Y-18956477D02*
X11433877Y-18937429D01*
X11433877Y-18937429D02*
X11433877Y-18766001D01*
X11614829Y-18956477D02*
X11595782Y-18966001D01*
X11595782Y-18966001D02*
X11557686Y-18966001D01*
X11557686Y-18966001D02*
X11538639Y-18956477D01*
X11538639Y-18956477D02*
X11529115Y-18937429D01*
X11529115Y-18937429D02*
X11529115Y-18861239D01*
X11529115Y-18861239D02*
X11538639Y-18842191D01*
X11538639Y-18842191D02*
X11557686Y-18832667D01*
X11557686Y-18832667D02*
X11595782Y-18832667D01*
X11595782Y-18832667D02*
X11614829Y-18842191D01*
X11614829Y-18842191D02*
X11624353Y-18861239D01*
X11624353Y-18861239D02*
X11624353Y-18880286D01*
X11624353Y-18880286D02*
X11529115Y-18899334D01*
X11700543Y-18956477D02*
X11719591Y-18966001D01*
X11719591Y-18966001D02*
X11757686Y-18966001D01*
X11757686Y-18966001D02*
X11776734Y-18956477D01*
X11776734Y-18956477D02*
X11786258Y-18937429D01*
X11786258Y-18937429D02*
X11786258Y-18927905D01*
X11786258Y-18927905D02*
X11776734Y-18908858D01*
X11776734Y-18908858D02*
X11757686Y-18899334D01*
X11757686Y-18899334D02*
X11729115Y-18899334D01*
X11729115Y-18899334D02*
X11710067Y-18889810D01*
X11710067Y-18889810D02*
X11700543Y-18870762D01*
X11700543Y-18870762D02*
X11700543Y-18861239D01*
X11700543Y-18861239D02*
X11710067Y-18842191D01*
X11710067Y-18842191D02*
X11729115Y-18832667D01*
X11729115Y-18832667D02*
X11757686Y-18832667D01*
X11757686Y-18832667D02*
X11776734Y-18842191D01*
X11852924Y-19042191D02*
X11862448Y-19032667D01*
X11862448Y-19032667D02*
X11881496Y-19004096D01*
X11881496Y-19004096D02*
X11891020Y-18985048D01*
X11891020Y-18985048D02*
X11900543Y-18956477D01*
X11900543Y-18956477D02*
X11910067Y-18908858D01*
X11910067Y-18908858D02*
X11910067Y-18870762D01*
X11910067Y-18870762D02*
X11900543Y-18823143D01*
X11900543Y-18823143D02*
X11891020Y-18794572D01*
X11891020Y-18794572D02*
X11881496Y-18775524D01*
X11881496Y-18775524D02*
X11862448Y-18746953D01*
X11862448Y-18746953D02*
X11852924Y-18737429D01*
X12214829Y-19042191D02*
X12205305Y-19032667D01*
X12205305Y-19032667D02*
X12186258Y-19004096D01*
X12186258Y-19004096D02*
X12176734Y-18985048D01*
X12176734Y-18985048D02*
X12167210Y-18956477D01*
X12167210Y-18956477D02*
X12157686Y-18908858D01*
X12157686Y-18908858D02*
X12157686Y-18870762D01*
X12157686Y-18870762D02*
X12167210Y-18823143D01*
X12167210Y-18823143D02*
X12176734Y-18794572D01*
X12176734Y-18794572D02*
X12186258Y-18775524D01*
X12186258Y-18775524D02*
X12205305Y-18746953D01*
X12205305Y-18746953D02*
X12214829Y-18737429D01*
X12291020Y-18832667D02*
X12291020Y-18966001D01*
X12291020Y-18851715D02*
X12300543Y-18842191D01*
X12300543Y-18842191D02*
X12319591Y-18832667D01*
X12319591Y-18832667D02*
X12348163Y-18832667D01*
X12348163Y-18832667D02*
X12367210Y-18842191D01*
X12367210Y-18842191D02*
X12376734Y-18861239D01*
X12376734Y-18861239D02*
X12376734Y-18966001D01*
X12500543Y-18966001D02*
X12481496Y-18956477D01*
X12481496Y-18956477D02*
X12471972Y-18946953D01*
X12471972Y-18946953D02*
X12462448Y-18927905D01*
X12462448Y-18927905D02*
X12462448Y-18870762D01*
X12462448Y-18870762D02*
X12471972Y-18851715D01*
X12471972Y-18851715D02*
X12481496Y-18842191D01*
X12481496Y-18842191D02*
X12500543Y-18832667D01*
X12500543Y-18832667D02*
X12529115Y-18832667D01*
X12529115Y-18832667D02*
X12548163Y-18842191D01*
X12548163Y-18842191D02*
X12557686Y-18851715D01*
X12557686Y-18851715D02*
X12567210Y-18870762D01*
X12567210Y-18870762D02*
X12567210Y-18927905D01*
X12567210Y-18927905D02*
X12557686Y-18946953D01*
X12557686Y-18946953D02*
X12548163Y-18956477D01*
X12548163Y-18956477D02*
X12529115Y-18966001D01*
X12529115Y-18966001D02*
X12500543Y-18966001D01*
X12624353Y-18832667D02*
X12700543Y-18832667D01*
X12652924Y-18766001D02*
X12652924Y-18937429D01*
X12652924Y-18937429D02*
X12662448Y-18956477D01*
X12662448Y-18956477D02*
X12681496Y-18966001D01*
X12681496Y-18966001D02*
X12700543Y-18966001D01*
X12919591Y-18832667D02*
X12919591Y-19032667D01*
X12919591Y-18842191D02*
X12938639Y-18832667D01*
X12938639Y-18832667D02*
X12976734Y-18832667D01*
X12976734Y-18832667D02*
X12995782Y-18842191D01*
X12995782Y-18842191D02*
X13005305Y-18851715D01*
X13005305Y-18851715D02*
X13014829Y-18870762D01*
X13014829Y-18870762D02*
X13014829Y-18927905D01*
X13014829Y-18927905D02*
X13005305Y-18946953D01*
X13005305Y-18946953D02*
X12995782Y-18956477D01*
X12995782Y-18956477D02*
X12976734Y-18966001D01*
X12976734Y-18966001D02*
X12938639Y-18966001D01*
X12938639Y-18966001D02*
X12919591Y-18956477D01*
X13129115Y-18966001D02*
X13110067Y-18956477D01*
X13110067Y-18956477D02*
X13100544Y-18937429D01*
X13100544Y-18937429D02*
X13100544Y-18766001D01*
X13291020Y-18966001D02*
X13291020Y-18861239D01*
X13291020Y-18861239D02*
X13281496Y-18842191D01*
X13281496Y-18842191D02*
X13262448Y-18832667D01*
X13262448Y-18832667D02*
X13224353Y-18832667D01*
X13224353Y-18832667D02*
X13205305Y-18842191D01*
X13291020Y-18956477D02*
X13271972Y-18966001D01*
X13271972Y-18966001D02*
X13224353Y-18966001D01*
X13224353Y-18966001D02*
X13205305Y-18956477D01*
X13205305Y-18956477D02*
X13195782Y-18937429D01*
X13195782Y-18937429D02*
X13195782Y-18918381D01*
X13195782Y-18918381D02*
X13205305Y-18899334D01*
X13205305Y-18899334D02*
X13224353Y-18889810D01*
X13224353Y-18889810D02*
X13271972Y-18889810D01*
X13271972Y-18889810D02*
X13291020Y-18880286D01*
X13357686Y-18832667D02*
X13433877Y-18832667D01*
X13386258Y-18766001D02*
X13386258Y-18937429D01*
X13386258Y-18937429D02*
X13395782Y-18956477D01*
X13395782Y-18956477D02*
X13414829Y-18966001D01*
X13414829Y-18966001D02*
X13433877Y-18966001D01*
X13576734Y-18956477D02*
X13557686Y-18966001D01*
X13557686Y-18966001D02*
X13519591Y-18966001D01*
X13519591Y-18966001D02*
X13500544Y-18956477D01*
X13500544Y-18956477D02*
X13491020Y-18937429D01*
X13491020Y-18937429D02*
X13491020Y-18861239D01*
X13491020Y-18861239D02*
X13500544Y-18842191D01*
X13500544Y-18842191D02*
X13519591Y-18832667D01*
X13519591Y-18832667D02*
X13557686Y-18832667D01*
X13557686Y-18832667D02*
X13576734Y-18842191D01*
X13576734Y-18842191D02*
X13586258Y-18861239D01*
X13586258Y-18861239D02*
X13586258Y-18880286D01*
X13586258Y-18880286D02*
X13491020Y-18899334D01*
X13757686Y-18966001D02*
X13757686Y-18766001D01*
X13757686Y-18956477D02*
X13738639Y-18966001D01*
X13738639Y-18966001D02*
X13700544Y-18966001D01*
X13700544Y-18966001D02*
X13681496Y-18956477D01*
X13681496Y-18956477D02*
X13671972Y-18946953D01*
X13671972Y-18946953D02*
X13662448Y-18927905D01*
X13662448Y-18927905D02*
X13662448Y-18870762D01*
X13662448Y-18870762D02*
X13671972Y-18851715D01*
X13671972Y-18851715D02*
X13681496Y-18842191D01*
X13681496Y-18842191D02*
X13700544Y-18832667D01*
X13700544Y-18832667D02*
X13738639Y-18832667D01*
X13738639Y-18832667D02*
X13757686Y-18842191D01*
X13833877Y-19042191D02*
X13843401Y-19032667D01*
X13843401Y-19032667D02*
X13862448Y-19004096D01*
X13862448Y-19004096D02*
X13871972Y-18985048D01*
X13871972Y-18985048D02*
X13881496Y-18956477D01*
X13881496Y-18956477D02*
X13891020Y-18908858D01*
X13891020Y-18908858D02*
X13891020Y-18870762D01*
X13891020Y-18870762D02*
X13881496Y-18823143D01*
X13881496Y-18823143D02*
X13871972Y-18794572D01*
X13871972Y-18794572D02*
X13862448Y-18775524D01*
X13862448Y-18775524D02*
X13843401Y-18746953D01*
X13843401Y-18746953D02*
X13833877Y-18737429D01*
X6877861Y-19094517D02*
X7077861Y-19294517D01*
X7077861Y-19094517D02*
X6877861Y-19294517D01*
X6977861Y-19094517D02*
X6977861Y-19294517D01*
X6877861Y-19194517D02*
X7077861Y-19194517D01*
X7319591Y-19086001D02*
X7443400Y-19086001D01*
X7443400Y-19086001D02*
X7376733Y-19162191D01*
X7376733Y-19162191D02*
X7405305Y-19162191D01*
X7405305Y-19162191D02*
X7424353Y-19171715D01*
X7424353Y-19171715D02*
X7433876Y-19181239D01*
X7433876Y-19181239D02*
X7443400Y-19200286D01*
X7443400Y-19200286D02*
X7443400Y-19247905D01*
X7443400Y-19247905D02*
X7433876Y-19266953D01*
X7433876Y-19266953D02*
X7424353Y-19276477D01*
X7424353Y-19276477D02*
X7405305Y-19286001D01*
X7405305Y-19286001D02*
X7348162Y-19286001D01*
X7348162Y-19286001D02*
X7329114Y-19276477D01*
X7329114Y-19276477D02*
X7319591Y-19266953D01*
X7529114Y-19266953D02*
X7538638Y-19276477D01*
X7538638Y-19276477D02*
X7529114Y-19286001D01*
X7529114Y-19286001D02*
X7519591Y-19276477D01*
X7519591Y-19276477D02*
X7529114Y-19266953D01*
X7529114Y-19266953D02*
X7529114Y-19286001D01*
X7633876Y-19286001D02*
X7671972Y-19286001D01*
X7671972Y-19286001D02*
X7691019Y-19276477D01*
X7691019Y-19276477D02*
X7700543Y-19266953D01*
X7700543Y-19266953D02*
X7719591Y-19238381D01*
X7719591Y-19238381D02*
X7729114Y-19200286D01*
X7729114Y-19200286D02*
X7729114Y-19124096D01*
X7729114Y-19124096D02*
X7719591Y-19105048D01*
X7719591Y-19105048D02*
X7710067Y-19095524D01*
X7710067Y-19095524D02*
X7691019Y-19086001D01*
X7691019Y-19086001D02*
X7652924Y-19086001D01*
X7652924Y-19086001D02*
X7633876Y-19095524D01*
X7633876Y-19095524D02*
X7624353Y-19105048D01*
X7624353Y-19105048D02*
X7614829Y-19124096D01*
X7614829Y-19124096D02*
X7614829Y-19171715D01*
X7614829Y-19171715D02*
X7624353Y-19190762D01*
X7624353Y-19190762D02*
X7633876Y-19200286D01*
X7633876Y-19200286D02*
X7652924Y-19209810D01*
X7652924Y-19209810D02*
X7691019Y-19209810D01*
X7691019Y-19209810D02*
X7710067Y-19200286D01*
X7710067Y-19200286D02*
X7719591Y-19190762D01*
X7719591Y-19190762D02*
X7729114Y-19171715D01*
X7843400Y-19171715D02*
X7824353Y-19162191D01*
X7824353Y-19162191D02*
X7814829Y-19152667D01*
X7814829Y-19152667D02*
X7805305Y-19133620D01*
X7805305Y-19133620D02*
X7805305Y-19124096D01*
X7805305Y-19124096D02*
X7814829Y-19105048D01*
X7814829Y-19105048D02*
X7824353Y-19095524D01*
X7824353Y-19095524D02*
X7843400Y-19086001D01*
X7843400Y-19086001D02*
X7881495Y-19086001D01*
X7881495Y-19086001D02*
X7900543Y-19095524D01*
X7900543Y-19095524D02*
X7910067Y-19105048D01*
X7910067Y-19105048D02*
X7919591Y-19124096D01*
X7919591Y-19124096D02*
X7919591Y-19133620D01*
X7919591Y-19133620D02*
X7910067Y-19152667D01*
X7910067Y-19152667D02*
X7900543Y-19162191D01*
X7900543Y-19162191D02*
X7881495Y-19171715D01*
X7881495Y-19171715D02*
X7843400Y-19171715D01*
X7843400Y-19171715D02*
X7824353Y-19181239D01*
X7824353Y-19181239D02*
X7814829Y-19190762D01*
X7814829Y-19190762D02*
X7805305Y-19209810D01*
X7805305Y-19209810D02*
X7805305Y-19247905D01*
X7805305Y-19247905D02*
X7814829Y-19266953D01*
X7814829Y-19266953D02*
X7824353Y-19276477D01*
X7824353Y-19276477D02*
X7843400Y-19286001D01*
X7843400Y-19286001D02*
X7881495Y-19286001D01*
X7881495Y-19286001D02*
X7900543Y-19276477D01*
X7900543Y-19276477D02*
X7910067Y-19266953D01*
X7910067Y-19266953D02*
X7919591Y-19247905D01*
X7919591Y-19247905D02*
X7919591Y-19209810D01*
X7919591Y-19209810D02*
X7910067Y-19190762D01*
X7910067Y-19190762D02*
X7900543Y-19181239D01*
X7900543Y-19181239D02*
X7881495Y-19171715D01*
X8033876Y-19171715D02*
X8014829Y-19162191D01*
X8014829Y-19162191D02*
X8005305Y-19152667D01*
X8005305Y-19152667D02*
X7995781Y-19133620D01*
X7995781Y-19133620D02*
X7995781Y-19124096D01*
X7995781Y-19124096D02*
X8005305Y-19105048D01*
X8005305Y-19105048D02*
X8014829Y-19095524D01*
X8014829Y-19095524D02*
X8033876Y-19086001D01*
X8033876Y-19086001D02*
X8071972Y-19086001D01*
X8071972Y-19086001D02*
X8091019Y-19095524D01*
X8091019Y-19095524D02*
X8100543Y-19105048D01*
X8100543Y-19105048D02*
X8110067Y-19124096D01*
X8110067Y-19124096D02*
X8110067Y-19133620D01*
X8110067Y-19133620D02*
X8100543Y-19152667D01*
X8100543Y-19152667D02*
X8091019Y-19162191D01*
X8091019Y-19162191D02*
X8071972Y-19171715D01*
X8071972Y-19171715D02*
X8033876Y-19171715D01*
X8033876Y-19171715D02*
X8014829Y-19181239D01*
X8014829Y-19181239D02*
X8005305Y-19190762D01*
X8005305Y-19190762D02*
X7995781Y-19209810D01*
X7995781Y-19209810D02*
X7995781Y-19247905D01*
X7995781Y-19247905D02*
X8005305Y-19266953D01*
X8005305Y-19266953D02*
X8014829Y-19276477D01*
X8014829Y-19276477D02*
X8033876Y-19286001D01*
X8033876Y-19286001D02*
X8071972Y-19286001D01*
X8071972Y-19286001D02*
X8091019Y-19276477D01*
X8091019Y-19276477D02*
X8100543Y-19266953D01*
X8100543Y-19266953D02*
X8110067Y-19247905D01*
X8110067Y-19247905D02*
X8110067Y-19209810D01*
X8110067Y-19209810D02*
X8100543Y-19190762D01*
X8100543Y-19190762D02*
X8091019Y-19181239D01*
X8091019Y-19181239D02*
X8071972Y-19171715D01*
X8195781Y-19286001D02*
X8195781Y-19152667D01*
X8195781Y-19171715D02*
X8205305Y-19162191D01*
X8205305Y-19162191D02*
X8224353Y-19152667D01*
X8224353Y-19152667D02*
X8252924Y-19152667D01*
X8252924Y-19152667D02*
X8271972Y-19162191D01*
X8271972Y-19162191D02*
X8281495Y-19181239D01*
X8281495Y-19181239D02*
X8281495Y-19286001D01*
X8281495Y-19181239D02*
X8291019Y-19162191D01*
X8291019Y-19162191D02*
X8310067Y-19152667D01*
X8310067Y-19152667D02*
X8338638Y-19152667D01*
X8338638Y-19152667D02*
X8357686Y-19162191D01*
X8357686Y-19162191D02*
X8367210Y-19181239D01*
X8367210Y-19181239D02*
X8367210Y-19286001D01*
X8462448Y-19286001D02*
X8462448Y-19152667D01*
X8462448Y-19171715D02*
X8471972Y-19162191D01*
X8471972Y-19162191D02*
X8491019Y-19152667D01*
X8491019Y-19152667D02*
X8519591Y-19152667D01*
X8519591Y-19152667D02*
X8538638Y-19162191D01*
X8538638Y-19162191D02*
X8548162Y-19181239D01*
X8548162Y-19181239D02*
X8548162Y-19286001D01*
X8548162Y-19181239D02*
X8557686Y-19162191D01*
X8557686Y-19162191D02*
X8576734Y-19152667D01*
X8576734Y-19152667D02*
X8605305Y-19152667D01*
X8605305Y-19152667D02*
X8624353Y-19162191D01*
X8624353Y-19162191D02*
X8633877Y-19181239D01*
X8633877Y-19181239D02*
X8633877Y-19286001D01*
X9024353Y-19076477D02*
X8852924Y-19333620D01*
X9281496Y-19086001D02*
X9300543Y-19086001D01*
X9300543Y-19086001D02*
X9319591Y-19095524D01*
X9319591Y-19095524D02*
X9329115Y-19105048D01*
X9329115Y-19105048D02*
X9338639Y-19124096D01*
X9338639Y-19124096D02*
X9348162Y-19162191D01*
X9348162Y-19162191D02*
X9348162Y-19209810D01*
X9348162Y-19209810D02*
X9338639Y-19247905D01*
X9338639Y-19247905D02*
X9329115Y-19266953D01*
X9329115Y-19266953D02*
X9319591Y-19276477D01*
X9319591Y-19276477D02*
X9300543Y-19286001D01*
X9300543Y-19286001D02*
X9281496Y-19286001D01*
X9281496Y-19286001D02*
X9262448Y-19276477D01*
X9262448Y-19276477D02*
X9252924Y-19266953D01*
X9252924Y-19266953D02*
X9243400Y-19247905D01*
X9243400Y-19247905D02*
X9233877Y-19209810D01*
X9233877Y-19209810D02*
X9233877Y-19162191D01*
X9233877Y-19162191D02*
X9243400Y-19124096D01*
X9243400Y-19124096D02*
X9252924Y-19105048D01*
X9252924Y-19105048D02*
X9262448Y-19095524D01*
X9262448Y-19095524D02*
X9281496Y-19086001D01*
X9433877Y-19266953D02*
X9443400Y-19276477D01*
X9443400Y-19276477D02*
X9433877Y-19286001D01*
X9433877Y-19286001D02*
X9424353Y-19276477D01*
X9424353Y-19276477D02*
X9433877Y-19266953D01*
X9433877Y-19266953D02*
X9433877Y-19286001D01*
X9633877Y-19286001D02*
X9519591Y-19286001D01*
X9576734Y-19286001D02*
X9576734Y-19086001D01*
X9576734Y-19086001D02*
X9557686Y-19114572D01*
X9557686Y-19114572D02*
X9538639Y-19133620D01*
X9538639Y-19133620D02*
X9519591Y-19143143D01*
X9814829Y-19086001D02*
X9719591Y-19086001D01*
X9719591Y-19086001D02*
X9710067Y-19181239D01*
X9710067Y-19181239D02*
X9719591Y-19171715D01*
X9719591Y-19171715D02*
X9738639Y-19162191D01*
X9738639Y-19162191D02*
X9786258Y-19162191D01*
X9786258Y-19162191D02*
X9805305Y-19171715D01*
X9805305Y-19171715D02*
X9814829Y-19181239D01*
X9814829Y-19181239D02*
X9824353Y-19200286D01*
X9824353Y-19200286D02*
X9824353Y-19247905D01*
X9824353Y-19247905D02*
X9814829Y-19266953D01*
X9814829Y-19266953D02*
X9805305Y-19276477D01*
X9805305Y-19276477D02*
X9786258Y-19286001D01*
X9786258Y-19286001D02*
X9738639Y-19286001D01*
X9738639Y-19286001D02*
X9719591Y-19276477D01*
X9719591Y-19276477D02*
X9710067Y-19266953D01*
X9891020Y-19086001D02*
X10024353Y-19086001D01*
X10024353Y-19086001D02*
X9938639Y-19286001D01*
X10138639Y-19086001D02*
X10157686Y-19086001D01*
X10157686Y-19086001D02*
X10176734Y-19095524D01*
X10176734Y-19095524D02*
X10186258Y-19105048D01*
X10186258Y-19105048D02*
X10195781Y-19124096D01*
X10195781Y-19124096D02*
X10205305Y-19162191D01*
X10205305Y-19162191D02*
X10205305Y-19209810D01*
X10205305Y-19209810D02*
X10195781Y-19247905D01*
X10195781Y-19247905D02*
X10186258Y-19266953D01*
X10186258Y-19266953D02*
X10176734Y-19276477D01*
X10176734Y-19276477D02*
X10157686Y-19286001D01*
X10157686Y-19286001D02*
X10138639Y-19286001D01*
X10138639Y-19286001D02*
X10119591Y-19276477D01*
X10119591Y-19276477D02*
X10110067Y-19266953D01*
X10110067Y-19266953D02*
X10100543Y-19247905D01*
X10100543Y-19247905D02*
X10091020Y-19209810D01*
X10091020Y-19209810D02*
X10091020Y-19162191D01*
X10091020Y-19162191D02*
X10100543Y-19124096D01*
X10100543Y-19124096D02*
X10110067Y-19105048D01*
X10110067Y-19105048D02*
X10119591Y-19095524D01*
X10119591Y-19095524D02*
X10138639Y-19086001D01*
X10281496Y-19086001D02*
X10281496Y-19124096D01*
X10357686Y-19086001D02*
X10357686Y-19124096D01*
X10652924Y-19362191D02*
X10643401Y-19352667D01*
X10643401Y-19352667D02*
X10624353Y-19324096D01*
X10624353Y-19324096D02*
X10614829Y-19305048D01*
X10614829Y-19305048D02*
X10605305Y-19276477D01*
X10605305Y-19276477D02*
X10595782Y-19228858D01*
X10595782Y-19228858D02*
X10595782Y-19190762D01*
X10595782Y-19190762D02*
X10605305Y-19143143D01*
X10605305Y-19143143D02*
X10614829Y-19114572D01*
X10614829Y-19114572D02*
X10624353Y-19095524D01*
X10624353Y-19095524D02*
X10643401Y-19066953D01*
X10643401Y-19066953D02*
X10652924Y-19057429D01*
X10719591Y-19105048D02*
X10729115Y-19095524D01*
X10729115Y-19095524D02*
X10748162Y-19086001D01*
X10748162Y-19086001D02*
X10795782Y-19086001D01*
X10795782Y-19086001D02*
X10814829Y-19095524D01*
X10814829Y-19095524D02*
X10824353Y-19105048D01*
X10824353Y-19105048D02*
X10833877Y-19124096D01*
X10833877Y-19124096D02*
X10833877Y-19143143D01*
X10833877Y-19143143D02*
X10824353Y-19171715D01*
X10824353Y-19171715D02*
X10710067Y-19286001D01*
X10710067Y-19286001D02*
X10833877Y-19286001D01*
X11024353Y-19286001D02*
X10910067Y-19286001D01*
X10967210Y-19286001D02*
X10967210Y-19086001D01*
X10967210Y-19086001D02*
X10948162Y-19114572D01*
X10948162Y-19114572D02*
X10929115Y-19133620D01*
X10929115Y-19133620D02*
X10910067Y-19143143D01*
X11262448Y-19286001D02*
X11262448Y-19086001D01*
X11348162Y-19286001D02*
X11348162Y-19181239D01*
X11348162Y-19181239D02*
X11338639Y-19162191D01*
X11338639Y-19162191D02*
X11319591Y-19152667D01*
X11319591Y-19152667D02*
X11291020Y-19152667D01*
X11291020Y-19152667D02*
X11271972Y-19162191D01*
X11271972Y-19162191D02*
X11262448Y-19171715D01*
X11471972Y-19286001D02*
X11452924Y-19276477D01*
X11452924Y-19276477D02*
X11443401Y-19266953D01*
X11443401Y-19266953D02*
X11433877Y-19247905D01*
X11433877Y-19247905D02*
X11433877Y-19190762D01*
X11433877Y-19190762D02*
X11443401Y-19171715D01*
X11443401Y-19171715D02*
X11452924Y-19162191D01*
X11452924Y-19162191D02*
X11471972Y-19152667D01*
X11471972Y-19152667D02*
X11500543Y-19152667D01*
X11500543Y-19152667D02*
X11519591Y-19162191D01*
X11519591Y-19162191D02*
X11529115Y-19171715D01*
X11529115Y-19171715D02*
X11538639Y-19190762D01*
X11538639Y-19190762D02*
X11538639Y-19247905D01*
X11538639Y-19247905D02*
X11529115Y-19266953D01*
X11529115Y-19266953D02*
X11519591Y-19276477D01*
X11519591Y-19276477D02*
X11500543Y-19286001D01*
X11500543Y-19286001D02*
X11471972Y-19286001D01*
X11652924Y-19286001D02*
X11633877Y-19276477D01*
X11633877Y-19276477D02*
X11624353Y-19257429D01*
X11624353Y-19257429D02*
X11624353Y-19086001D01*
X11805305Y-19276477D02*
X11786258Y-19286001D01*
X11786258Y-19286001D02*
X11748162Y-19286001D01*
X11748162Y-19286001D02*
X11729115Y-19276477D01*
X11729115Y-19276477D02*
X11719591Y-19257429D01*
X11719591Y-19257429D02*
X11719591Y-19181239D01*
X11719591Y-19181239D02*
X11729115Y-19162191D01*
X11729115Y-19162191D02*
X11748162Y-19152667D01*
X11748162Y-19152667D02*
X11786258Y-19152667D01*
X11786258Y-19152667D02*
X11805305Y-19162191D01*
X11805305Y-19162191D02*
X11814829Y-19181239D01*
X11814829Y-19181239D02*
X11814829Y-19200286D01*
X11814829Y-19200286D02*
X11719591Y-19219334D01*
X11891020Y-19276477D02*
X11910067Y-19286001D01*
X11910067Y-19286001D02*
X11948162Y-19286001D01*
X11948162Y-19286001D02*
X11967210Y-19276477D01*
X11967210Y-19276477D02*
X11976734Y-19257429D01*
X11976734Y-19257429D02*
X11976734Y-19247905D01*
X11976734Y-19247905D02*
X11967210Y-19228858D01*
X11967210Y-19228858D02*
X11948162Y-19219334D01*
X11948162Y-19219334D02*
X11919591Y-19219334D01*
X11919591Y-19219334D02*
X11900543Y-19209810D01*
X11900543Y-19209810D02*
X11891020Y-19190762D01*
X11891020Y-19190762D02*
X11891020Y-19181239D01*
X11891020Y-19181239D02*
X11900543Y-19162191D01*
X11900543Y-19162191D02*
X11919591Y-19152667D01*
X11919591Y-19152667D02*
X11948162Y-19152667D01*
X11948162Y-19152667D02*
X11967210Y-19162191D01*
X12043401Y-19362191D02*
X12052924Y-19352667D01*
X12052924Y-19352667D02*
X12071972Y-19324096D01*
X12071972Y-19324096D02*
X12081496Y-19305048D01*
X12081496Y-19305048D02*
X12091020Y-19276477D01*
X12091020Y-19276477D02*
X12100543Y-19228858D01*
X12100543Y-19228858D02*
X12100543Y-19190762D01*
X12100543Y-19190762D02*
X12091020Y-19143143D01*
X12091020Y-19143143D02*
X12081496Y-19114572D01*
X12081496Y-19114572D02*
X12071972Y-19095524D01*
X12071972Y-19095524D02*
X12052924Y-19066953D01*
X12052924Y-19066953D02*
X12043401Y-19057429D01*
X12405305Y-19362191D02*
X12395782Y-19352667D01*
X12395782Y-19352667D02*
X12376734Y-19324096D01*
X12376734Y-19324096D02*
X12367210Y-19305048D01*
X12367210Y-19305048D02*
X12357686Y-19276477D01*
X12357686Y-19276477D02*
X12348163Y-19228858D01*
X12348163Y-19228858D02*
X12348163Y-19190762D01*
X12348163Y-19190762D02*
X12357686Y-19143143D01*
X12357686Y-19143143D02*
X12367210Y-19114572D01*
X12367210Y-19114572D02*
X12376734Y-19095524D01*
X12376734Y-19095524D02*
X12395782Y-19066953D01*
X12395782Y-19066953D02*
X12405305Y-19057429D01*
X12481496Y-19152667D02*
X12481496Y-19286001D01*
X12481496Y-19171715D02*
X12491020Y-19162191D01*
X12491020Y-19162191D02*
X12510067Y-19152667D01*
X12510067Y-19152667D02*
X12538639Y-19152667D01*
X12538639Y-19152667D02*
X12557686Y-19162191D01*
X12557686Y-19162191D02*
X12567210Y-19181239D01*
X12567210Y-19181239D02*
X12567210Y-19286001D01*
X12691020Y-19286001D02*
X12671972Y-19276477D01*
X12671972Y-19276477D02*
X12662448Y-19266953D01*
X12662448Y-19266953D02*
X12652924Y-19247905D01*
X12652924Y-19247905D02*
X12652924Y-19190762D01*
X12652924Y-19190762D02*
X12662448Y-19171715D01*
X12662448Y-19171715D02*
X12671972Y-19162191D01*
X12671972Y-19162191D02*
X12691020Y-19152667D01*
X12691020Y-19152667D02*
X12719591Y-19152667D01*
X12719591Y-19152667D02*
X12738639Y-19162191D01*
X12738639Y-19162191D02*
X12748163Y-19171715D01*
X12748163Y-19171715D02*
X12757686Y-19190762D01*
X12757686Y-19190762D02*
X12757686Y-19247905D01*
X12757686Y-19247905D02*
X12748163Y-19266953D01*
X12748163Y-19266953D02*
X12738639Y-19276477D01*
X12738639Y-19276477D02*
X12719591Y-19286001D01*
X12719591Y-19286001D02*
X12691020Y-19286001D01*
X12814829Y-19152667D02*
X12891020Y-19152667D01*
X12843401Y-19086001D02*
X12843401Y-19257429D01*
X12843401Y-19257429D02*
X12852924Y-19276477D01*
X12852924Y-19276477D02*
X12871972Y-19286001D01*
X12871972Y-19286001D02*
X12891020Y-19286001D01*
X13110067Y-19152667D02*
X13110067Y-19352667D01*
X13110067Y-19162191D02*
X13129115Y-19152667D01*
X13129115Y-19152667D02*
X13167210Y-19152667D01*
X13167210Y-19152667D02*
X13186258Y-19162191D01*
X13186258Y-19162191D02*
X13195782Y-19171715D01*
X13195782Y-19171715D02*
X13205305Y-19190762D01*
X13205305Y-19190762D02*
X13205305Y-19247905D01*
X13205305Y-19247905D02*
X13195782Y-19266953D01*
X13195782Y-19266953D02*
X13186258Y-19276477D01*
X13186258Y-19276477D02*
X13167210Y-19286001D01*
X13167210Y-19286001D02*
X13129115Y-19286001D01*
X13129115Y-19286001D02*
X13110067Y-19276477D01*
X13319591Y-19286001D02*
X13300544Y-19276477D01*
X13300544Y-19276477D02*
X13291020Y-19257429D01*
X13291020Y-19257429D02*
X13291020Y-19086001D01*
X13481496Y-19286001D02*
X13481496Y-19181239D01*
X13481496Y-19181239D02*
X13471972Y-19162191D01*
X13471972Y-19162191D02*
X13452925Y-19152667D01*
X13452925Y-19152667D02*
X13414829Y-19152667D01*
X13414829Y-19152667D02*
X13395782Y-19162191D01*
X13481496Y-19276477D02*
X13462448Y-19286001D01*
X13462448Y-19286001D02*
X13414829Y-19286001D01*
X13414829Y-19286001D02*
X13395782Y-19276477D01*
X13395782Y-19276477D02*
X13386258Y-19257429D01*
X13386258Y-19257429D02*
X13386258Y-19238381D01*
X13386258Y-19238381D02*
X13395782Y-19219334D01*
X13395782Y-19219334D02*
X13414829Y-19209810D01*
X13414829Y-19209810D02*
X13462448Y-19209810D01*
X13462448Y-19209810D02*
X13481496Y-19200286D01*
X13548163Y-19152667D02*
X13624353Y-19152667D01*
X13576734Y-19086001D02*
X13576734Y-19257429D01*
X13576734Y-19257429D02*
X13586258Y-19276477D01*
X13586258Y-19276477D02*
X13605305Y-19286001D01*
X13605305Y-19286001D02*
X13624353Y-19286001D01*
X13767210Y-19276477D02*
X13748163Y-19286001D01*
X13748163Y-19286001D02*
X13710067Y-19286001D01*
X13710067Y-19286001D02*
X13691020Y-19276477D01*
X13691020Y-19276477D02*
X13681496Y-19257429D01*
X13681496Y-19257429D02*
X13681496Y-19181239D01*
X13681496Y-19181239D02*
X13691020Y-19162191D01*
X13691020Y-19162191D02*
X13710067Y-19152667D01*
X13710067Y-19152667D02*
X13748163Y-19152667D01*
X13748163Y-19152667D02*
X13767210Y-19162191D01*
X13767210Y-19162191D02*
X13776734Y-19181239D01*
X13776734Y-19181239D02*
X13776734Y-19200286D01*
X13776734Y-19200286D02*
X13681496Y-19219334D01*
X13948163Y-19286001D02*
X13948163Y-19086001D01*
X13948163Y-19276477D02*
X13929115Y-19286001D01*
X13929115Y-19286001D02*
X13891020Y-19286001D01*
X13891020Y-19286001D02*
X13871972Y-19276477D01*
X13871972Y-19276477D02*
X13862448Y-19266953D01*
X13862448Y-19266953D02*
X13852925Y-19247905D01*
X13852925Y-19247905D02*
X13852925Y-19190762D01*
X13852925Y-19190762D02*
X13862448Y-19171715D01*
X13862448Y-19171715D02*
X13871972Y-19162191D01*
X13871972Y-19162191D02*
X13891020Y-19152667D01*
X13891020Y-19152667D02*
X13929115Y-19152667D01*
X13929115Y-19152667D02*
X13948163Y-19162191D01*
X14024353Y-19362191D02*
X14033877Y-19352667D01*
X14033877Y-19352667D02*
X14052925Y-19324096D01*
X14052925Y-19324096D02*
X14062448Y-19305048D01*
X14062448Y-19305048D02*
X14071972Y-19276477D01*
X14071972Y-19276477D02*
X14081496Y-19228858D01*
X14081496Y-19228858D02*
X14081496Y-19190762D01*
X14081496Y-19190762D02*
X14071972Y-19143143D01*
X14071972Y-19143143D02*
X14062448Y-19114572D01*
X14062448Y-19114572D02*
X14052925Y-19095524D01*
X14052925Y-19095524D02*
X14033877Y-19066953D01*
X14033877Y-19066953D02*
X14024353Y-19057429D01*
M02*
