G04 #@! TF.GenerationSoftware,KiCad,Pcbnew,7.0.7-2.fc38*
G04 #@! TF.CreationDate,2023-10-01T14:52:00+02:00*
G04 #@! TF.ProjectId,klor1_3,6b6c6f72-315f-4332-9e6b-696361645f70,v1.3.0*
G04 #@! TF.SameCoordinates,Original*
G04 #@! TF.FileFunction,Profile,NP*
%FSLAX46Y46*%
G04 Gerber Fmt 4.6, Leading zero omitted, Abs format (unit mm)*
G04 Created by KiCad (PCBNEW 7.0.7-2.fc38) date 2023-10-01 14:52:00*
%MOMM*%
%LPD*%
G01*
G04 APERTURE LIST*
G04 #@! TA.AperFunction,Profile*
%ADD10C,0.100000*%
G04 #@! TD*
%ADD11C,0.100000*%
G04 APERTURE END LIST*
D10*
X210241503Y-75251875D02*
X210241503Y-53885104D01*
D11*
X152769828Y-139175891D02*
X152876846Y-139167727D01*
X152978926Y-139144049D01*
X153074846Y-139106078D01*
X153163388Y-139055033D01*
X153243330Y-138992135D01*
X153313452Y-138918604D01*
X153372534Y-138835660D01*
X153419357Y-138744523D01*
X153452699Y-138646414D01*
X153471341Y-138542552D01*
X153475000Y-138470718D01*
X230832582Y-93903724D02*
X230862254Y-93796647D01*
X230872868Y-93694161D01*
X230859784Y-93566159D01*
X230818603Y-93449933D01*
X230752631Y-93347548D01*
X230665173Y-93261071D01*
X230559534Y-93192567D01*
X230439021Y-93144103D01*
X230374220Y-93128032D01*
D10*
X148538783Y-53144670D02*
X81370965Y-53144670D01*
D11*
X105170585Y-150282382D02*
X105309820Y-150190240D01*
X105449831Y-150098926D01*
X105590565Y-150008437D01*
X105731970Y-149918775D01*
X105873995Y-149829940D01*
X106016588Y-149741931D01*
X106159697Y-149654748D01*
X106303271Y-149568392D01*
X106447259Y-149482862D01*
X106591608Y-149398158D01*
X106736266Y-149314281D01*
X106881183Y-149231230D01*
X107026307Y-149149006D01*
X107171585Y-149067608D01*
X107316966Y-148987037D01*
X107462400Y-148907292D01*
D10*
X214084700Y-75921789D02*
X210241503Y-75251875D01*
D11*
X81370965Y-53144670D02*
X81254930Y-53152833D01*
X81145520Y-53176511D01*
X81043779Y-53214483D01*
X80950754Y-53265528D01*
X80867490Y-53328426D01*
X80795034Y-53401958D01*
X80734431Y-53484902D01*
X80686727Y-53576039D01*
X80652968Y-53674149D01*
X80634201Y-53778010D01*
X80630534Y-53849845D01*
X92794784Y-160295850D02*
X92950349Y-160140699D01*
X93106327Y-159985968D01*
X93262718Y-159831663D01*
X93419523Y-159677790D01*
X93576741Y-159524357D01*
X93734372Y-159371369D01*
X93892416Y-159218832D01*
X94050874Y-159066755D01*
X94209744Y-158915142D01*
X94369028Y-158764000D01*
X94528725Y-158613336D01*
X94688835Y-158463156D01*
X94849359Y-158313467D01*
X95010295Y-158164275D01*
X95171645Y-158015587D01*
X95333408Y-157867408D01*
X95495585Y-157719746D01*
X95658174Y-157572607D01*
X95821177Y-157425998D01*
X95984593Y-157279924D01*
X96148422Y-157134393D01*
X96312664Y-156989410D01*
X96477319Y-156844982D01*
X96642388Y-156701117D01*
X96807870Y-156557819D01*
X96973765Y-156415096D01*
X97140073Y-156272954D01*
X97306795Y-156131399D01*
X97473929Y-155990439D01*
X97641477Y-155850079D01*
X97809438Y-155710325D01*
X97977813Y-155571186D01*
X84967353Y-167171297D02*
X85050171Y-167243191D01*
X85139032Y-167300211D01*
X85232542Y-167342357D01*
X85329305Y-167369627D01*
X85460974Y-167382849D01*
X85592643Y-167369627D01*
X85689406Y-167342357D01*
X85782916Y-167300211D01*
X85871777Y-167243191D01*
X85954596Y-167171297D01*
D10*
X206292528Y-129515009D02*
X205375000Y-129350000D01*
X169447190Y-125425000D02*
X184537912Y-126482762D01*
D11*
X214613581Y-76697481D02*
X214624117Y-76565812D01*
X214605316Y-76437448D01*
X214560899Y-76315695D01*
X214494582Y-76203859D01*
X214410085Y-76105244D01*
X214311126Y-76023157D01*
X214201425Y-75960904D01*
X214084700Y-75921789D01*
D10*
X209501072Y-53144670D02*
X208549085Y-53144670D01*
X80630534Y-53849845D02*
X80623000Y-120561000D01*
X77986130Y-145451940D02*
X71110685Y-152327386D01*
X87100000Y-120561000D02*
X87100000Y-129451000D01*
X148538783Y-49865612D02*
X148538783Y-53144670D01*
D11*
X183938514Y-129973373D02*
X183938101Y-130103526D01*
X183961652Y-130227896D01*
X184006690Y-130344001D01*
X184070734Y-130449364D01*
X184151306Y-130541505D01*
X184245926Y-130617944D01*
X184352115Y-130676204D01*
X184467395Y-130713804D01*
D10*
X169552968Y-53144670D02*
X169552968Y-49865612D01*
X85954596Y-167171297D02*
X92794784Y-160295850D01*
D11*
X210241503Y-53885104D02*
X210233310Y-53769912D01*
X210209429Y-53662680D01*
X210170906Y-53563931D01*
X210118786Y-53474189D01*
X210054116Y-53393976D01*
X209977941Y-53323814D01*
X209891307Y-53264228D01*
X209795260Y-53215739D01*
X209690847Y-53178871D01*
X209579112Y-53154147D01*
X209501072Y-53144670D01*
D10*
X204600113Y-133605017D02*
X205375000Y-129350000D01*
X153475000Y-125425000D02*
X169447190Y-125425000D01*
X142967909Y-139175891D02*
X152769828Y-139175891D01*
X224098171Y-131983119D02*
X230832582Y-93903724D01*
X105170585Y-150282382D02*
X97977813Y-155571186D01*
X80623000Y-120561000D02*
X87100000Y-120561000D01*
X214014183Y-80117575D02*
X214613581Y-76697481D01*
X184467395Y-130713804D02*
X203824420Y-134133898D01*
D11*
X203824420Y-134133898D02*
X203956089Y-134145880D01*
X204084452Y-134130592D01*
X204206205Y-134090512D01*
X204318041Y-134028121D01*
X204416655Y-133945897D01*
X204498742Y-133846318D01*
X204560997Y-133731865D01*
X204600113Y-133605017D01*
X149208697Y-49195697D02*
X149078680Y-49210020D01*
X148955275Y-49250788D01*
X148841787Y-49314695D01*
X148741520Y-49398434D01*
X148657780Y-49498701D01*
X148593874Y-49612190D01*
X148553106Y-49735595D01*
X148538783Y-49865612D01*
D10*
X230374220Y-93128032D02*
X213273752Y-90131044D01*
D11*
X71110685Y-152327386D02*
X71038790Y-152410204D01*
X70981770Y-152499065D01*
X70939624Y-152592575D01*
X70912354Y-152689338D01*
X70899132Y-152821007D01*
X70912354Y-152952676D01*
X70939624Y-153049439D01*
X70981770Y-153142949D01*
X71038790Y-153231810D01*
X71110685Y-153314629D01*
D10*
X87100000Y-129451000D02*
X80623000Y-129451000D01*
D11*
X107462400Y-148907292D02*
X107982580Y-148608666D01*
X108505105Y-148314419D01*
X109029837Y-148024587D01*
X109556642Y-147739210D01*
X110085384Y-147458326D01*
X110615927Y-147181974D01*
X111148136Y-146910193D01*
X111681874Y-146643022D01*
X112217007Y-146380499D01*
X112753400Y-146122664D01*
X113290915Y-145869554D01*
X113829418Y-145621208D01*
X114368774Y-145377666D01*
X114908846Y-145138966D01*
X115449499Y-144905147D01*
X115990597Y-144676248D01*
X116532006Y-144452306D01*
X117073589Y-144233362D01*
X117615210Y-144019453D01*
X118156735Y-143810619D01*
X118698027Y-143606898D01*
X119238951Y-143408329D01*
X119779372Y-143214950D01*
X120319153Y-143026801D01*
X120858160Y-142843920D01*
X121396257Y-142666346D01*
X121933307Y-142494118D01*
X122469176Y-142327274D01*
X123003728Y-142165853D01*
X123536828Y-142009894D01*
X124068339Y-141859436D01*
X124598127Y-141714517D01*
X124598127Y-141714517D02*
X125176986Y-141561534D01*
X125756568Y-141413303D01*
X126336770Y-141269823D01*
X126917488Y-141131095D01*
X127498620Y-140997119D01*
X128080061Y-140867895D01*
X128661709Y-140743422D01*
X129243461Y-140623701D01*
X129825212Y-140508731D01*
X130406860Y-140398514D01*
X130988301Y-140293047D01*
X131569433Y-140192333D01*
X132150151Y-140096370D01*
X132730353Y-140005159D01*
X133309935Y-139918700D01*
X133888794Y-139836992D01*
X134466826Y-139760036D01*
X135043929Y-139687831D01*
X135619999Y-139620378D01*
X136194933Y-139557677D01*
X136768627Y-139499727D01*
X137340978Y-139446529D01*
X137911883Y-139398083D01*
X138481239Y-139354389D01*
X139048942Y-139315446D01*
X139614889Y-139281254D01*
X140178976Y-139251815D01*
X140741101Y-139227126D01*
X141301160Y-139207190D01*
X141859050Y-139192005D01*
X142414667Y-139181572D01*
X142967909Y-139175891D01*
D10*
X71110685Y-153314629D02*
X84967353Y-167171297D01*
X212275000Y-89950000D02*
X214014183Y-80117575D01*
X213273752Y-90131044D02*
X212275000Y-89950000D01*
D11*
X169552968Y-49865612D02*
X169538644Y-49735595D01*
X169497876Y-49612190D01*
X169433969Y-49498701D01*
X169350230Y-49398434D01*
X169249963Y-49314695D01*
X169136474Y-49250788D01*
X169013068Y-49210020D01*
X168883051Y-49195697D01*
X223322479Y-132547258D02*
X223429556Y-132558869D01*
X223532043Y-132554617D01*
X223660045Y-132525780D01*
X223776272Y-132472358D01*
X223878656Y-132396417D01*
X223965133Y-132300024D01*
X224033636Y-132185244D01*
X224071975Y-132088336D01*
X224098171Y-131983119D01*
X80623000Y-142850000D02*
X80540946Y-142925677D01*
X80458663Y-143001990D01*
X80376171Y-143078910D01*
X80293490Y-143156411D01*
X80210641Y-143234465D01*
X80127645Y-143313046D01*
X80044523Y-143392125D01*
X79961296Y-143471677D01*
X79877983Y-143551673D01*
X79794607Y-143632088D01*
X79711188Y-143712892D01*
X79627746Y-143794060D01*
X79544302Y-143875565D01*
X79460877Y-143957378D01*
X79377492Y-144039474D01*
X79294167Y-144121824D01*
X79210924Y-144204402D01*
X79127782Y-144287181D01*
X79044764Y-144370133D01*
X78961889Y-144453231D01*
X78879178Y-144536448D01*
X78796652Y-144619758D01*
X78714331Y-144703132D01*
X78632237Y-144786544D01*
X78550391Y-144869966D01*
X78468812Y-144953372D01*
X78387522Y-145036735D01*
X78306542Y-145120026D01*
X78225892Y-145203219D01*
X78145592Y-145286287D01*
X78065665Y-145369203D01*
X77986130Y-145451940D01*
D10*
X208549085Y-53144670D02*
X169552968Y-53144670D01*
X206292528Y-129515009D02*
X223322479Y-132547258D01*
X168883051Y-49195697D02*
X149208697Y-49195697D01*
X153475000Y-138470718D02*
X153475000Y-125425000D01*
X184537912Y-126482762D02*
X183938514Y-129973373D01*
X80623000Y-129451000D02*
X80623000Y-142850000D01*
M02*
